<svg width="25" height="25" viewBox="0 0 25 25" fill="none" xmlns="http://www.w3.org/2000/svg">
    <g clip-path="url(#clip0_3214_59549)">
        <path fill-rule="evenodd" clip-rule="evenodd" d="M10.2041 4.82704C11.4011 3.71979 12.6468 2.56737 14.472 2.56738C16.4033 2.56739 18.1834 4.44177 19.5421 5.87289L19.5489 5.88C20.0265 6.38304 20.4515 6.83073 20.8131 7.12209C21.7876 7.90741 21.9659 8.46757 21.9871 9.73769L21.9886 9.73682V9.85087C21.99 9.9944 21.9897 10.1467 21.9886 10.3091V17.0346L12.0262 22.5363L2.36133 17.0346V11.3148C2.35975 11.2242 2.35784 11.1306 2.35587 11.0348C2.33871 10.1971 2.31797 9.18456 2.49 8.41401C2.70103 7.46878 4.84226 7.1453 6.29735 6.92548C6.69964 6.8647 7.04948 6.81185 7.29159 6.75598C8.39398 6.50156 9.28464 5.67762 10.2041 4.82704ZM20.2844 10.7457L12.0435 15.6199L4.05007 10.7218C4.04627 10.5096 4.04374 10.2987 4.04509 10.0893C4.04746 9.72189 4.06216 9.40328 4.09196 9.14022C4.28486 9.05988 4.5686 8.97282 4.94635 8.88769C5.39594 8.78637 5.8838 8.70784 6.36338 8.63486L6.54307 8.60772C6.93319 8.54899 7.36168 8.48449 7.67388 8.41243C7.74146 8.39684 7.80816 8.37993 7.87399 8.3618C8.74488 10.1692 10.4377 12.0108 13.0814 10.9894C15.0314 10.236 16.2179 9.29688 17.1897 8.52775C17.7309 8.09937 18.2055 7.72374 18.7083 7.4623C19.0476 7.8145 19.4072 8.17245 19.7464 8.44579C20.0167 8.66358 20.1169 8.78698 20.1581 8.84924C20.1853 8.89028 20.2133 8.94116 20.2384 9.07937C20.2698 9.25264 20.2876 9.50991 20.2894 9.97226C20.2904 10.2319 20.2878 10.4569 20.2848 10.7128L20.2844 10.7457ZM12.8797 17.105V20.1229L20.2886 16.0314V12.7239L12.8797 17.105ZM4.06133 12.7658L11.1797 17.1097V20.0983L4.06133 16.0461V12.7658Z" fill="black"/>
    </g>
    <defs>
        <clipPath id="clip0_3214_59549">
            <rect width="24" height="24" fill="white" transform="translate(0.00976562 0.191895)"/>
        </clipPath>
    </defs>
</svg>
