<svg width="24" height="24" viewBox="0 0 24 24" fill="none" xmlns="http://www.w3.org/2000/svg">
    <path fill-rule="evenodd" clip-rule="evenodd" d="M19.0413 10.995L16.2515 8.1225C14.699 6.48833 14.699 3.845 16.242 2.22C16.9901 1.43333 17.9844 1 19.0413 1C20.0982 1 21.0925 1.43333 21.8398 2.22C22.588 3.00667 22.9996 4.05333 22.9996 5.16667C22.9996 6.28 22.588 7.32583 21.8398 8.11333L19.0413 10.995ZM19.0424 7.44782L17.9283 6.30075C17.3084 5.64818 17.3084 4.59263 17.9245 3.94372C18.2233 3.62958 18.6203 3.45654 19.0424 3.45654C19.4644 3.45654 19.8615 3.62958 20.1599 3.94372C20.4587 4.25786 20.623 4.67582 20.623 5.12041C20.623 5.56499 20.4587 5.98262 20.1599 6.29709L19.0424 7.44782Z" fill="black"/>
    <path fill-rule="evenodd" clip-rule="evenodd" d="M4.76569 2.81396H6.85055V4.31396H6.26567L6.26567 4.56095L4.76567 4.56093L4.76569 2.81396ZM8.63038 2.81396H11.3001V4.31396H8.63038V2.81396ZM13.08 2.81396H14.4148V4.31396H13.08V2.81396ZM4.76565 5.89023L6.26565 5.89025L6.26564 6.47236L7.29526 7.1183L6.49812 8.38895L4.76562 7.30207L4.76565 5.89023ZM11.1017 11.277L8.33953 9.54416L9.13668 8.27351L11.8988 10.0063L11.1017 11.277ZM15.7052 14.165L12.9431 12.4322L13.7402 11.1615L16.5023 12.8944L15.7052 14.165ZM18.5762 15.9662L17.5466 15.3202L18.3437 14.0496L20.0762 15.1364V17.0167H18.5762V15.9662ZM18.5762 19.686V18.9706H20.0762V21.186H18.0173V19.686H18.5762Z" fill="black"/>
    <path fill-rule="evenodd" clip-rule="evenodd" d="M3.07115 15.605L2.60683 16.5024C2.58731 16.5004 2.56749 16.4994 2.54744 16.4994H1.56723C1.25396 16.4994 1 16.7533 1 17.0666C1 17.3799 1.25396 17.6338 1.56723 17.6338H2.04233V22.2654C2.04233 22.6711 2.37125 23.0001 2.77701 23.0001H3.45243C3.85817 23.0001 4.18711 22.6711 4.18711 22.2654V21.7645H12.6863V22.2654C12.6863 22.6711 13.0152 23.0001 13.421 23.0001H14.0964C14.5021 23.0001 14.8311 22.6711 14.8311 22.2654L14.8312 17.6338H15.3213C15.6346 17.6338 15.8885 17.3799 15.8885 17.0666C15.8885 16.7533 15.6346 16.4994 15.3213 16.4994H14.3411C14.3139 16.4994 14.2873 16.5013 14.2612 16.505L13.7898 15.605C13.068 14.5552 12.1918 13.8418 11.218 13.8418H5.54151C4.56772 13.8418 3.8056 14.3935 3.07115 15.605ZM13.0806 17.0574L12.5995 16.1389C11.9456 15.2056 11.3508 14.994 10.9092 14.994H5.92503C5.46911 14.994 4.98798 15.0706 4.35171 16.1095L3.86129 17.0574H13.0806ZM2.85033 19.7984C2.85033 19.4144 3.16159 19.1032 3.54554 19.1032H4.35171C4.73566 19.1032 5.04691 19.4144 5.04691 19.7984C5.04691 20.1823 4.73566 20.4936 4.35171 20.4936H3.54554C3.16159 20.4936 2.85033 20.1823 2.85033 19.7984ZM12.7979 19.1032C12.414 19.1032 12.1027 19.4144 12.1027 19.7984C12.1027 20.1823 12.414 20.4936 12.7979 20.4936H13.6041C13.988 20.4936 14.2993 20.1823 14.2993 19.7984C14.2993 19.4144 13.988 19.1032 13.6041 19.1032H12.7979Z" fill="black"/>
</svg>
