<svg width="25" height="25" viewBox="0 0 25 25" fill="none" xmlns="http://www.w3.org/2000/svg">
    <path d="M1.1965 5.43775V3.61955H8.4692V2.71045H10.2874V3.61955H17.5601V5.43775H10.2874V7.25594H21.1965V5.43775H23.0146V11.6805L16.651 12.5896V13.6195C16.6484 15.9288 15.1918 17.9861 13.0146 18.7559V20.8923H16.651V22.7104H3.92375C2.41751 22.7104 1.1965 21.4894 1.1965 19.9832H3.01469C3.01469 20.4853 3.4217 20.8923 3.92379 20.8923H5.74199V19.0741H4.83289C2.8246 19.0741 1.19654 17.446 1.19654 15.4377V14.5286C1.20107 10.5139 4.4545 7.26043 8.46924 7.25594V5.43775H1.1965ZM7.5601 20.8923H11.1965V19.0741H7.56014V20.8923H7.5601ZM4.83285 17.2559H11.1965C13.2048 17.2559 14.8328 15.6278 14.8328 13.6195V11.0132L21.1965 10.1041V9.0741H10.2874V15.4377H3.01469C3.01469 16.4419 3.8287 17.2559 4.83285 17.2559ZM3.09739 13.6195H8.4692V9.0741C5.80999 9.07722 3.54062 10.9975 3.09739 13.6195Z" fill="black"/>
</svg>
