<svg width="25" height="25" viewBox="0 0 25 25" fill="none" xmlns="http://www.w3.org/2000/svg">
    <g clip-path="url(#clip0_3210_59657)">
        <path fill-rule="evenodd" clip-rule="evenodd" d="M6.32872 4.62348L3.70733 7.24487L5.65582 9.19336L8.27721 6.57197L6.32872 4.62348ZM0.878906 7.24487L5.65582 12.0218L11.1056 6.57197L6.32872 1.79506L0.878906 7.24487Z" fill="black"/>
        <path fill-rule="evenodd" clip-rule="evenodd" d="M9.84368 14.4052C9.90778 15.5965 10.3601 17.1063 11.0483 18.6256C11.3759 19.3486 11.7234 20.002 12.0483 20.5515L20.1235 12.4763C19.4091 12.1131 18.5737 11.7551 17.7063 11.4473C16.7431 11.1056 15.7817 10.8406 14.9403 10.6945C14.4111 10.6027 13.9912 10.5691 13.6784 10.5704L9.84368 14.4052ZM12.7595 8.66088L7.86032 13.5601C7.61871 16.2401 9.22825 19.832 10.593 22.0068C11.0494 22.7343 11.4785 23.3032 11.8018 23.6265L23.2631 12.1651C22.8961 11.7981 22.3144 11.396 21.6019 10.9979C19.0534 9.57419 14.8303 8.20109 12.7595 8.66088Z" fill="black"/>
    </g>
    <defs>
        <clipPath id="clip0_3210_59657">
            <rect width="24" height="24" fill="white" transform="translate(0.0712891 0.710449)"/>
        </clipPath>
    </defs>
</svg>
