<svg width="25" height="25" viewBox="0 0 25 25" fill="none" xmlns="http://www.w3.org/2000/svg">
    <g clip-path="url(#clip0_3214_59518)">
        <path fill-rule="evenodd" clip-rule="evenodd" d="M22.4141 15.282C23.7948 15.282 24.9141 16.4185 24.9141 17.8204V22.421C24.9141 23.823 23.7948 24.9595 22.4141 24.9595H3.4541C2.07339 24.9595 0.954098 23.823 0.954098 22.421V17.8204C0.954098 16.4185 2.07339 15.282 3.4541 15.282H22.4141ZM15.3679 16.9743H17.0346V21.2051C17.0346 21.6724 17.4077 22.0512 17.8679 22.0512C18.3281 22.0512 18.7012 21.6724 18.7012 21.2051V16.9743H22.4141C22.8743 16.9743 23.2474 17.3531 23.2474 17.8204V22.421C23.2474 22.8883 22.8743 23.2672 22.4141 23.2672H3.4541C2.99386 23.2672 2.62077 22.8883 2.62077 22.421V17.8204C2.62077 17.3531 2.99386 16.9743 3.4541 16.9743H7.03456V19.5128C7.03456 19.9801 7.40765 20.3589 7.86789 20.3589C8.32813 20.3589 8.70123 19.9801 8.70123 19.5128V16.9743H10.3679V21.2051C10.3679 21.6724 10.741 22.0512 11.2012 22.0512C11.6615 22.0512 12.0346 21.6724 12.0346 21.2051V16.9743H13.7012V19.5128C13.7012 19.9801 14.0743 20.3589 14.5346 20.3589C14.9948 20.3589 15.3679 19.9801 15.3679 19.5128V16.9743Z" fill="black"/>
        <path fill-rule="evenodd" clip-rule="evenodd" d="M2.14648 2.12598L15.3879 11.3721L22.8843 5.50762V13.3786H21.8843V7.55956L15.4217 12.6153L3.14648 4.04391V13.3786H2.14648V2.12598Z" fill="black"/>
        <circle cx="15.2955" cy="11.3233" r="1.63633" fill="black"/>
        <circle cx="22.3844" cy="6.11827" r="1.63633" fill="black"/>
        <circle cx="3.14272" cy="3.09242" r="2.13295" fill="black"/>
    </g>
    <defs>
        <clipPath id="clip0_3214_59518">
            <rect width="24" height="24" fill="white" transform="translate(0.868164 0.959473)"/>
        </clipPath>
    </defs>
</svg>
