<svg width="25" height="24" viewBox="0 0 25 24" fill="none" xmlns="http://www.w3.org/2000/svg">
    <path d="M22.0146 13.25V10.75H18.5596C18.3903 9.85644 18.0385 9.00738 17.5263 8.25583L19.9696 5.8125L18.2021 4.045L15.7588 6.48833C15.0073 5.97601 14.1583 5.62423 13.2646 5.455V2H10.7646V5.455C9.87104 5.62423 9.02195 5.97601 8.27048 6.48833L5.82715 4.045L4.05965 5.8125L6.50298 8.25583C5.9908 9.00738 5.63904 9.85644 5.46965 10.75H2.01465V13.25H5.46965C5.63904 14.1436 5.9908 14.9926 6.50298 15.7442L4.05965 18.1875L5.82715 19.955L8.27048 17.5117C9.02195 18.024 9.87104 18.3758 10.7646 18.545V22H13.2646V18.545C14.1583 18.3758 15.0073 18.024 15.7588 17.5117L18.2021 19.955L19.9696 18.1875L17.5263 15.7442C18.0385 14.9926 18.3903 14.1436 18.5596 13.25H22.0146ZM12.0146 16.1667C6.50798 15.9917 6.50965 8.0075 12.0146 7.83333C17.5213 8.00833 17.5196 15.9925 12.0146 16.1667Z" fill="black"/>
</svg>
