<svg width="25" height="25" viewBox="0 0 25 25" fill="none" xmlns="http://www.w3.org/2000/svg">
    <path fill-rule="evenodd" clip-rule="evenodd" d="M21.1959 6.9729C22.7208 6.9729 23.957 8.14702 23.957 9.59537V15.7145C23.957 17.1628 22.7208 18.3369 21.1959 18.3369H4.62939C3.10449 18.3369 1.8683 17.1628 1.8683 15.7145V9.59537C1.8683 8.14702 3.10449 6.9729 4.62939 6.9729H21.1959ZM15.6738 8.72121H17.5145V13.092C17.5145 13.5748 17.9265 13.9662 18.4348 13.9662C18.9432 13.9662 19.3552 13.5748 19.3552 13.092V8.72121H21.1959C21.7042 8.72121 22.1163 9.11259 22.1163 9.59537V15.7145C22.1163 16.1973 21.7042 16.5886 21.1959 16.5886H4.62939C4.12109 16.5886 3.70903 16.1973 3.70903 15.7145V9.59537C3.70903 9.11259 4.12109 8.72121 4.62939 8.72121H6.47012V11.3437C6.47012 11.8265 6.88218 12.2178 7.39049 12.2178C7.89879 12.2178 8.31085 11.8265 8.31085 11.3437V8.72121H10.1516V13.092C10.1516 13.5748 10.5636 13.9662 11.0719 13.9662C11.5802 13.9662 11.9923 13.5748 11.9923 13.092V8.72121H13.833V11.3437C13.833 11.8265 14.2451 12.2178 14.7534 12.2178C15.2617 12.2178 15.6738 11.8265 15.6738 11.3437V8.72121Z" fill="black"/>
</svg>
