<svg width="25" height="24" viewBox="0 0 25 24" fill="none" xmlns="http://www.w3.org/2000/svg">
    <path d="M21.8124 20.29L20.3924 21.71C20.205 21.8963 19.9515 22.0008 19.6874 22.0008C19.4232 22.0008 19.1697 21.8963 18.9824 21.71L7.10236 9.85C6.77717 9.94421 6.44087 9.99465 6.10236 10C5.46566 9.99955 4.83827 9.84711 4.27235 9.55536C3.70642 9.26362 3.21832 8.84099 2.84862 8.32263C2.47891 7.80426 2.23829 7.20513 2.14676 6.57505C2.05523 5.94496 2.11543 5.30213 2.32236 4.7L4.86236 7.24L5.39236 6.71L6.81236 5.29L7.34235 4.76L4.80236 2.22C5.40449 2.01307 6.04732 1.95287 6.6774 2.04441C7.30749 2.13594 7.90662 2.37656 8.42498 2.74626C8.94335 3.11596 9.36597 3.60407 9.65772 4.16999C9.94946 4.73591 10.1019 5.3633 10.1024 6C10.097 6.33852 10.0466 6.67481 9.95236 7L21.8124 18.88C21.9986 19.0674 22.1031 19.3208 22.1031 19.585C22.1031 19.8492 21.9986 20.1026 21.8124 20.29ZM2.39236 18.88C2.2061 19.0674 2.10156 19.3208 2.10156 19.585C2.10156 19.8492 2.2061 20.1026 2.39236 20.29L3.81236 21.71C3.99972 21.8963 4.25317 22.0008 4.51736 22.0008C4.78154 22.0008 5.03499 21.8963 5.22236 21.71L10.6924 16.25L7.86236 13.42M20.1024 2L16.1024 4V6L13.9324 8.17L15.9324 10.17L18.1024 8H20.1024L22.1024 4L20.1024 2Z" fill="black"/>
</svg>
