<svg width="24" height="24" viewBox="0 0 24 24" fill="none" xmlns="http://www.w3.org/2000/svg">
<path fill-rule="evenodd" clip-rule="evenodd" d="M21 4.5H3C2.17157 4.5 1.5 5.17157 1.5 6V18C1.5 18.8284 2.17157 19.5 3 19.5H21C21.8284 19.5 22.5 18.8284 22.5 18V6C22.5 5.17157 21.8284 4.5 21 4.5ZM3 3C1.34315 3 0 4.34315 0 6V18C0 19.6569 1.34315 21 3 21H21C22.6569 21 24 19.6569 24 18V6C24 4.34315 22.6569 3 21 3H3Z" fill="black"/>
<path d="M6.78076 12.5515H7.77612C8.74512 12.5515 9.35815 13.1184 9.36475 13.9028C9.37793 14.707 8.72534 15.2805 7.73657 15.2805C6.84009 15.2739 6.18091 14.7927 6.13477 14.1467H4.5C4.54614 15.5178 5.68652 16.678 7.72998 16.678C9.58887 16.678 11.1577 15.6892 11.1379 13.9819C11.1182 12.5515 10.0173 11.9121 9.19995 11.833V11.7407C9.85913 11.6353 10.8875 10.9497 10.8611 9.67749C10.8413 8.31958 9.66138 7.32422 7.78271 7.33081C5.81836 7.3374 4.71753 8.43164 4.67139 9.83569H6.32593C6.35889 9.24902 6.89941 8.7085 7.72998 8.7085C8.52759 8.7085 9.12085 9.20288 9.12085 9.92798C9.12744 10.6465 8.54736 11.1804 7.72998 11.1804H6.78076V12.5515Z" fill="black"/>
<path d="M12.1897 7.5022V16.5H15.4724C18.1882 16.5 19.5 14.8389 19.5 11.978C19.5 9.13696 18.208 7.5022 15.4724 7.5022H12.1897ZM13.9695 8.95239H15.2351C16.9028 8.95239 17.6675 9.98071 17.6675 12.011C17.6675 14.0413 16.9094 15.0432 15.2351 15.0432H13.9695V8.95239Z" fill="black"/>
</svg>
