<svg width="25" height="25" viewBox="0 0 25 25" fill="none" xmlns="http://www.w3.org/2000/svg">
    <path fill-rule="evenodd" clip-rule="evenodd" d="M3.62365 7.729L12.0682 21.7155L11.2121 22.2323L2.76758 8.24587L3.62365 7.729Z" fill="black"/>
    <path fill-rule="evenodd" clip-rule="evenodd" d="M3.31445 7.12281L20.0284 7.1228V8.1228L3.31445 8.12281V7.12281Z" fill="black"/>
    <path fill-rule="evenodd" clip-rule="evenodd" d="M20.5131 7.729L12.0685 21.7155L12.9246 22.2323L21.3691 8.24587L20.5131 7.729Z" fill="black"/>
    <path fill-rule="evenodd" clip-rule="evenodd" d="M11.8465 1.71704L2.15625 7.03736V17.8044L11.8465 23.6946L21.9803 17.8044V7.03736L11.8465 1.71704ZM3.85625 16.8484L11.2185 21.3235V12.9493L3.85625 8.80055V16.8484ZM12.9185 12.9507V21.1052L20.2803 16.8263V8.8023L12.9185 12.9507ZM12.0698 11.4776L4.9296 7.45406L11.8645 3.64653L19.1651 7.4794L12.0698 11.4776Z" fill="black"/>
</svg>
