<svg width="24" height="25" viewBox="0 0 24 25" fill="none" xmlns="http://www.w3.org/2000/svg">
<path d="M12.0002 3.98633C13.9302 3.98633 17.0002 5.38633 17.0002 9.13633C17.0002 11.2963 15.2802 13.8063 12.0002 16.4563C8.72024 13.8063 7.00024 11.2863 7.00024 9.13633C7.00024 5.38633 10.0702 3.98633 12.0002 3.98633ZM12.0002 1.98633C8.73024 1.98633 5.00024 4.44633 5.00024 9.13633C5.00024 12.2563 7.33024 15.5463 12.0002 18.9863C16.6702 15.5463 19.0002 12.2563 19.0002 9.13633C19.0002 4.44633 15.2702 1.98633 12.0002 1.98633Z" fill="black"/>
<path d="M12.0002 6.98633C10.9002 6.98633 10.0002 7.88633 10.0002 8.98633C10.0002 10.0863 10.9002 10.9863 12.0002 10.9863C12.5307 10.9863 13.0394 10.7756 13.4145 10.4005C13.7895 10.0255 14.0002 9.51676 14.0002 8.98633C14.0002 8.4559 13.7895 7.94719 13.4145 7.57211C13.0394 7.19704 12.5307 6.98633 12.0002 6.98633Z" fill="black"/>
<path fill-rule="evenodd" clip-rule="evenodd" d="M17.4994 16.1553L21.5707 22.2623H2.42944L6.50086 16.1554L8.16494 17.2648L6.16653 20.2623H17.8337L15.8353 17.2647L17.4994 16.1553Z" fill="black"/>
</svg>
