<svg width="24" height="24" viewBox="0 0 24 24" fill="none" xmlns="http://www.w3.org/2000/svg">
    <path fill-rule="evenodd" clip-rule="evenodd" d="M16.022 7.27219L16.022 20.3534H18.022L18.022 7.27219C18.022 5.2099 16.1151 3.28125 13.5069 3.28125C12.2807 3.28125 11.1818 3.76964 10.3884 4.48708C9.606 5.19462 9.04894 6.19557 9.04894 7.27219L9.04894 18.5815L11.0489 18.5815L11.0489 7.27219C11.0489 6.88765 11.2625 6.39314 11.7299 5.9705C12.1863 5.55776 12.8164 5.28125 13.5069 5.28125C15.1565 5.28125 16.022 6.45503 16.022 7.27219Z" fill="#818181"/>
    <path fill-rule="evenodd" clip-rule="evenodd" d="M10.049 20.7189L14.7915 14.9098L13.2422 13.645L10.049 17.5563L6.85592 13.645L5.30663 14.9098L10.049 20.7189Z" fill="#818181"/>
</svg>
