<svg width="24" height="25" viewBox="0 0 24 25" fill="none" xmlns="http://www.w3.org/2000/svg">
<g clip-path="url(#clip0_3798_38926)">
<rect x="1.20996" y="1.55127" width="2.00303" height="9.21903" transform="rotate(-30 1.20996 1.55127)" fill="black"/>
<path d="M2.25293 13.619C1.70065 12.6624 2.0284 11.4392 2.98498 10.887L10.1604 6.74422C11.117 6.19193 12.3402 6.51968 12.8925 7.47627L13.1931 7.99689L2.55351 14.1396L2.25293 13.619Z" fill="black"/>
<path d="M15.5023 11.8443L14.0528 9.33362C13.8457 8.9749 13.387 8.852 13.0282 9.0591L3.56543 14.5225C3.39317 14.6219 3.26747 14.7857 3.21599 14.9779C3.1645 15.17 3.19146 15.3747 3.29091 15.547L5.42984 19.2517C5.85698 19.9915 5.97596 20.725 5.98663 21.2793C5.99196 21.5559 5.97014 21.7835 5.94799 21.9378C5.93696 22.0147 5.92594 22.0727 5.91844 22.1086C5.91469 22.1265 5.91184 22.1388 5.91032 22.1451L5.90919 22.1498C5.83314 22.4416 5.93921 22.7507 6.17874 22.9343C6.41938 23.1187 6.74738 23.1401 7.00994 22.9885L11.7851 20.2316C11.594 19.7566 11.4583 19.2534 11.3859 18.73L7.47541 20.9877C7.43032 20.2837 7.2466 19.3984 6.72888 18.5017L4.96495 15.4465L6.235 14.7132L8.26792 18.2343L9.28659 17.6462L7.25367 14.1251L8.52331 13.3921L10.556 16.9128L11.4962 16.37C11.5062 16.3275 11.5167 16.2852 11.5275 16.2431L9.54198 12.804L10.8122 12.0706L12.2411 14.5454C12.4625 14.1784 12.7198 13.8354 13.0081 13.5213L11.8309 11.4824L13.1287 10.7331L14.165 12.528C14.5791 12.2505 15.0274 12.02 15.5023 11.8443Z" fill="black"/>
<path d="M12.941 16.5255L14.011 17.3455C13.991 17.5155 13.971 17.6755 13.971 17.8455C13.971 18.0155 13.981 18.1755 14.011 18.3455L12.951 19.1655C12.861 19.2455 12.831 19.3755 12.891 19.4855L13.891 21.2155C13.951 21.3455 14.081 21.3455 14.211 21.3455L15.441 20.8455C15.711 21.0255 15.981 21.1955 16.291 21.3155L16.481 22.6355C16.491 22.7555 16.601 22.8455 16.711 22.8455H18.711C18.841 22.8455 18.951 22.7555 18.971 22.6355L19.161 21.3155C19.461 21.1855 19.751 21.0255 20.011 20.8455L21.251 21.3455C21.361 21.3455 21.491 21.3455 21.561 21.2155L22.561 19.4855C22.621 19.3755 22.601 19.2455 22.501 19.1655L21.441 18.3455C21.461 18.1755 21.471 18.0155 21.471 17.8455C21.471 17.6755 21.461 17.5155 21.441 17.3455L22.501 16.5255C22.591 16.4455 22.621 16.3155 22.561 16.2055L21.561 14.4755C21.501 14.3455 21.371 14.3455 21.251 14.3455L20.011 14.8455C19.751 14.6655 19.471 14.4955 19.161 14.3755L18.971 13.0555C18.951 12.9355 18.851 12.8455 18.711 12.8455H16.711C16.601 12.8455 16.491 12.9355 16.471 13.0555L16.281 14.3755C15.981 14.5055 15.711 14.6655 15.441 14.8455L14.211 14.3455C14.081 14.3455 13.951 14.3455 13.881 14.4755L12.881 16.2055C12.821 16.3155 12.851 16.4455 12.941 16.5255ZM17.711 16.3455C18.551 16.3455 19.211 17.0155 19.211 17.8455C19.211 18.6755 18.541 19.3455 17.711 19.3455C16.881 19.3455 16.211 18.6755 16.211 17.8455C16.211 17.0155 16.881 16.3455 17.711 16.3455Z" fill="black"/>
</g>
<defs>
<clipPath id="clip0_3798_38926">
<rect width="24" height="24" fill="white" transform="matrix(-1 0 0 -1 24 24.292)"/>
</clipPath>
</defs>
</svg>
