<svg width="25" height="25" viewBox="0 0 25 25" fill="none" xmlns="http://www.w3.org/2000/svg">
    <path d="M12.1101 2.49121C6.58011 2.49121 2.11011 6.96121 2.11011 12.4912C2.11011 18.0212 6.58011 22.4912 12.1101 22.4912C17.6401 22.4912 22.1101 18.0212 22.1101 12.4912C22.1101 6.96121 17.6401 2.49121 12.1101 2.49121ZM12.1101 20.4912C7.70011 20.4912 4.11011 16.9012 4.11011 12.4912C4.11011 8.08121 7.70011 4.49121 12.1101 4.49121C16.5201 4.49121 20.1101 8.08121 20.1101 12.4912C20.1101 16.9012 16.5201 20.4912 12.1101 20.4912Z" fill="black"/>
    <circle cx="12.1101" cy="12.4915" r="1.84208" fill="black"/>
    <path fill-rule="evenodd" clip-rule="evenodd" d="M4.83681 18.0694L17.688 5.21826L18.0415 5.57182L5.19036 18.423L4.83681 18.0694Z" fill="black"/>
    <path fill-rule="evenodd" clip-rule="evenodd" d="M3.49489 16.7276L16.3461 3.87646L16.6996 4.23002L3.84844 17.0812L3.49489 16.7276Z" fill="black"/>
    <path fill-rule="evenodd" clip-rule="evenodd" d="M3.43829 14.1002L13.8041 3.73438L14.1576 4.08793L3.79185 14.4537L3.43829 14.1002Z" fill="black"/>
    <path fill-rule="evenodd" clip-rule="evenodd" d="M3.01783 11.837L11.7914 3.06348L12.1449 3.41703L3.37138 12.1906L3.01783 11.837Z" fill="black"/>
    <path fill-rule="evenodd" clip-rule="evenodd" d="M6.17873 19.4112L19.0299 6.56006L19.3835 6.91361L6.53228 19.7648L6.17873 19.4112Z" fill="black"/>
    <path fill-rule="evenodd" clip-rule="evenodd" d="M7.52052 20.753L20.3717 7.90186L20.7253 8.25541L7.87408 21.1066L7.52052 20.753Z" fill="black"/>
    <path fill-rule="evenodd" clip-rule="evenodd" d="M10.0624 20.8949L20.3718 10.5854L20.7254 10.939L10.416 21.2484L10.0624 20.8949Z" fill="black"/>
    <path fill-rule="evenodd" clip-rule="evenodd" d="M12.6752 20.9659L21.0879 12.5532L21.4414 12.9068L13.0288 21.3194L12.6752 20.9659Z" fill="black"/>
</svg>
