<svg width="24" height="25" viewBox="0 0 24 25" fill="none" xmlns="http://www.w3.org/2000/svg">
<path fill-rule="evenodd" clip-rule="evenodd" d="M8.28118 14.887C11.6382 14.887 14.3597 12.1656 14.3597 8.80852C14.3597 5.45147 11.6382 2.73003 8.28118 2.73003C4.92412 2.73003 2.20269 5.45147 2.20269 8.80852C2.20269 12.1656 4.92412 14.887 8.28118 14.887ZM8.28118 16.5448C12.5538 16.5448 16.0174 13.0811 16.0174 8.80852C16.0174 4.53591 12.5538 1.07227 8.28118 1.07227C4.00856 1.07227 0.544922 4.53591 0.544922 8.80852C0.544922 13.0811 4.00856 16.5448 8.28118 16.5448Z" fill="black"/>
<path fill-rule="evenodd" clip-rule="evenodd" d="M21.7973 11.5718H11.8506V21.5184H21.7973V11.5718ZM10.1929 9.91406V23.1762H23.455V9.91406H10.1929Z" fill="black"/>
<path d="M7.45215 7.97998H9.10992V9.63775H7.45215V7.97998Z" fill="black"/>
<path d="M7.45215 4.02344H9.10992V5.68121H7.45215V4.02344Z" fill="black"/>
<path d="M7.45215 11.9365H9.10992V13.5943H7.45215V11.9365Z" fill="black"/>
<path d="M4.02563 6.00146H5.6834V7.65923H4.02563V6.00146Z" fill="black"/>
<path d="M10.8787 6.00146H12.5364V7.65923H10.8787V6.00146Z" fill="black"/>
<path d="M4.02563 9.95801H5.6834V11.6158H4.02563V9.95801Z" fill="black"/>
<path fill-rule="evenodd" clip-rule="evenodd" d="M20.4016 10.8895L11.2342 20.0569L10.6855 19.5082L19.8529 10.3408L20.4016 10.8895Z" fill="black"/>
<path fill-rule="evenodd" clip-rule="evenodd" d="M22.255 11.9896L11.5899 22.6547L11.0413 22.106L21.7063 11.4409L22.255 11.9896Z" fill="black"/>
<path fill-rule="evenodd" clip-rule="evenodd" d="M22.7479 14.4515L14.3692 22.8303L13.8206 22.2816L22.1992 13.9028L22.7479 14.4515Z" fill="black"/>
<path fill-rule="evenodd" clip-rule="evenodd" d="M22.9585 17.1961L17.5233 22.631L16.9746 22.0824L22.4098 16.6475L22.9585 17.1961Z" fill="black"/>
</svg>
