<svg width="24" height="25" viewBox="0 0 24 25" fill="none" xmlns="http://www.w3.org/2000/svg">
<path d="M8.02731 7.30545L6.84321 8.48955L9.00641 10.6527L6.84313 12.816L8.02721 14.0001L10.1905 11.8368L12.3538 14.0001L13.5379 12.816L11.3746 10.6527L13.5378 8.48953L12.3537 7.30545L10.1905 9.46865L8.02731 7.30545Z" fill="black"/>
<path fill-rule="evenodd" clip-rule="evenodd" d="M16.0541 10.6526C16.0541 13.891 13.4289 16.5162 10.1905 16.5162C6.95212 16.5162 4.3269 13.891 4.3269 10.6526C4.3269 7.41428 6.95212 4.78906 10.1905 4.78906C13.4289 4.78906 16.0541 7.41428 16.0541 10.6526ZM15.3378 16.5977C13.9584 17.793 12.1589 18.5162 10.1905 18.5162C5.84755 18.5162 2.3269 14.9956 2.3269 10.6526C2.3269 6.30971 5.84755 2.78906 10.1905 2.78906C14.5334 2.78906 18.0541 6.30971 18.0541 10.6526C18.0541 12.6031 17.344 14.3876 16.1682 15.7619L16.3988 15.9843H17.3349L21.7458 20.407L19.9803 22.1726L15.5575 17.7616V16.8255L15.3378 16.5977Z" fill="black"/>
</svg>
