<svg width="25" height="25" viewBox="0 0 25 25" fill="none" xmlns="http://www.w3.org/2000/svg">
<rect x="1.94336" y="6.00391" width="6" height="12" fill="black"/>
<path fill-rule="evenodd" clip-rule="evenodd" d="M7.30023 12.7539H17.5789V11.2539H7.30023V12.7539Z" fill="black"/>
<path fill-rule="evenodd" clip-rule="evenodd" d="M7.60764 9.68773L17.8862 5.06375L17.2708 3.6958L6.99224 8.31977L7.60764 9.68773Z" fill="black"/>
<path fill-rule="evenodd" clip-rule="evenodd" d="M6.94811 15.6659L17.2266 21.1272L17.9304 19.8026L7.65193 14.3413L6.94811 15.6659Z" fill="black"/>
<path fill-rule="evenodd" clip-rule="evenodd" d="M21.5566 2.76758H18.521V5.80322H21.5566V2.76758ZM17.021 1.26758V7.30322H23.0566V1.26758H17.021Z" fill="black"/>
<path fill-rule="evenodd" clip-rule="evenodd" d="M21.5566 10.4863H18.521V13.522H21.5566V10.4863ZM17.021 8.98633V15.022H23.0566V8.98633H17.021Z" fill="black"/>
<path fill-rule="evenodd" clip-rule="evenodd" d="M21.5566 18.2051H18.521V21.2407H21.5566V18.2051ZM17.021 16.7051V22.7407H23.0566V16.7051H17.021Z" fill="black"/>
</svg>
