<svg width="25" height="25" viewBox="0 0 25 25" fill="none" xmlns="http://www.w3.org/2000/svg">
<path fill-rule="evenodd" clip-rule="evenodd" d="M3.03995 15.3733L3.03995 10.8503L7.82318 10.8502L7.82313 8.9356L7.82314 8.93561L7.82314 8.93545L11.9862 11.3388L11.9861 11.3389L11.9862 11.339L7.82326 13.7426L7.82321 11.8554L4.23237 11.8555L4.23237 15.3733L3.03995 15.3733Z" fill="black"/>
<path fill-rule="evenodd" clip-rule="evenodd" d="M11.1829 1.24463L7.55469 4.87288L16.8695 14.1877L20.4978 10.5595L20.4971 10.5588L23.5523 7.50351L19.4109 3.36204L16.3556 6.4173L11.1829 1.24463Z" fill="black"/>
<path fill-rule="evenodd" clip-rule="evenodd" d="M13.2952 16.4834H1.8125V22.8627H13.2952V16.4834ZM12.3897 17.2539H2.71358V22.0919H12.3897V17.2539Z" fill="black"/>
<rect x="3.58398" y="18.1064" width="2.80406" height="1.79275" fill="black"/>
</svg>
