<svg width="31" height="20" viewBox="0 0 31 20" fill="none" xmlns="http://www.w3.org/2000/svg">
<path fill-rule="evenodd" clip-rule="evenodd" d="M28.5265 2.82733H2.0027V17.9524H28.5265V2.82733ZM0.079834 0.917969V19.8617H30.4494V0.917969H0.079834Z" fill="black"/>
<path d="M27.1862 16.5724V4.41895H20.901C20.901 4.41895 22.8615 5.4699 24.0083 5.93708C25.4418 6.52105 23.7014 7.85681 22.6653 7.55209C22.0872 7.3821 21.9301 9.34614 21.9301 9.34614C21.9301 9.34614 23.2364 10.1432 24.0083 10.6907C24.7801 11.2382 22.6653 12.5945 22.6653 12.5945C22.6653 12.5945 21.3385 11.3611 19.982 12.12C18.752 12.8082 19.2776 13.4399 19.9702 14.2724L19.9819 14.2864C20.5406 14.958 19.0139 16.0737 19.7735 16.5724H27.1862Z" fill="black"/>
<path fill-rule="evenodd" clip-rule="evenodd" d="M14.5919 1.91111L14.5919 1.25883L15.8738 1.25879L15.8738 1.91107L14.5919 1.91111ZM14.592 4.52024L14.5919 3.21568L15.8738 3.21564L15.8739 4.5202L14.592 4.52024ZM14.5921 7.12937L14.592 5.82481L15.8739 5.82477L15.874 7.12933L14.5921 7.12937ZM14.5922 9.7385L14.5921 8.43394L15.874 8.4339L15.8741 9.73846L14.5922 9.7385ZM14.5923 12.3476L14.5922 11.0431L15.8741 11.043L15.8742 12.3476L14.5923 12.3476ZM14.5923 14.9568L14.5923 13.6522L15.8742 13.6522L15.8743 14.9567L14.5923 14.9568ZM14.5924 17.5659L14.5924 16.2613L15.8743 16.2613L15.8743 17.5659L14.5924 17.5659ZM14.5925 19.5227L14.5925 18.8705L15.8744 18.8704L15.8744 19.5227L14.5925 19.5227Z" fill="black"/>
<path fill-rule="evenodd" clip-rule="evenodd" d="M8.40931 8.2373L12.1634 10.3895L8.40931 12.5417V10.9823H3.81152V9.79957H8.40931V8.2373Z" fill="black"/>
</svg>
