<svg width="25" height="25" viewBox="0 0 25 25" fill="none" xmlns="http://www.w3.org/2000/svg">
    <path fill-rule="evenodd" clip-rule="evenodd" d="M4.67123 6.40188C6.25959 4.56057 8.49657 3.35972 10.9097 3.05306C11.6336 2.96103 13.1455 2.99376 13.8353 3.11634C14.1273 3.16823 14.4403 3.23062 14.531 3.25506L14.6959 3.29945L13.8539 5.79308C13.3907 7.16453 12.6614 9.32076 12.233 10.5847C11.6881 12.1925 11.4615 12.9184 11.4783 13.0017C11.4975 13.0965 12.7599 16.3432 14.9685 21.9782L15.1376 22.4098L14.8289 22.5018C13.9705 22.7574 12.9309 22.876 11.8482 22.8418C10.2812 22.7923 9.10454 22.4971 7.71672 21.8053C4.86481 20.3838 2.86206 17.6498 2.34111 14.4671C2.23525 13.8203 2.23525 12.0217 2.34111 11.3749C2.64321 9.52906 3.43929 7.83006 4.67123 6.40188ZM13.2213 11.963L16.0452 3.70844C17.3667 4.29675 20.2974 6.23909 21.4487 9.30195L13.2213 11.963ZM13.0315 13.4292L16.4254 21.9281C17.3758 21.6023 19.7326 20.0925 21.0143 17.6379C22.5886 14.6227 22.0389 11.4501 21.8906 10.594L21.8832 10.551L13.0315 13.4292Z" fill="#1672EC"/>
</svg>
