<svg width="24" height="25" viewBox="0 0 24 25" fill="none" xmlns="http://www.w3.org/2000/svg">
    <path fill-rule="evenodd" clip-rule="evenodd" d="M16.4071 3.51096C15.3246 3.06257 14.1643 2.83179 12.9926 2.83179V11.7541L21.915 11.7541C21.915 10.5824 21.6842 9.4222 21.2358 8.33969C20.7874 7.25718 20.1302 6.27359 19.3017 5.44508C18.4732 4.61656 17.4896 3.95935 16.4071 3.51096ZM17.8061 19.7385C16.7627 20.7819 15.4781 21.5519 14.066 21.9803C12.6539 22.4086 11.158 22.4821 9.71073 22.1942C8.26347 21.9064 6.90954 21.266 5.76887 20.3299C4.6282 19.3937 3.73601 18.1908 3.17131 16.8275C2.60662 15.4642 2.38686 13.9827 2.53149 12.5141C2.67613 11.0456 3.1807 9.63545 4.00051 8.40852C4.82032 7.18159 5.93006 6.17578 7.23144 5.48017C8.53282 4.78457 9.98566 4.42065 11.4613 4.42065L11.4613 13.3937L17.8061 19.7385ZM22.0956 13.0512C22.0956 15.3421 21.2145 17.5452 19.6347 19.2041L13.1733 13.0512H22.0956Z" fill="#1672EC"/>
</svg>
