<svg width="33" height="33" viewBox="0 0 33 33" fill="none" xmlns="http://www.w3.org/2000/svg">
<g clip-path="url(#clip0_3490_62388)">
<path d="M28.1886 30.554V27.3539H5.78833V30.554L0.988281 25.7539L5.78833 20.9539V24.1539H28.1886V20.9539L32.9886 25.7539L28.1886 30.554Z" fill="black"/>
<path fill-rule="evenodd" clip-rule="evenodd" d="M12.0121 5.81982H2.56311V15.2688H12.0121V5.81982ZM0.988281 4.245V16.8436H13.5869V4.245H0.988281Z" fill="black"/>
<rect x="6.73828" y="4.83984" width="0.854052" height="7.69865" transform="rotate(45 6.73828 4.83984)" fill="black"/>
<rect x="10.6387" y="4.87988" width="0.854052" height="13.117" transform="rotate(45 10.6387 4.87988)" fill="black"/>
<rect x="12.6064" y="6.84796" width="0.854052" height="13.117" transform="rotate(45 12.6064 6.84796)" fill="black"/>
<rect x="12.6465" y="10.7472" width="0.854052" height="7.69865" transform="rotate(45 12.6465 10.7472)" fill="black"/>
<path fill-rule="evenodd" clip-rule="evenodd" d="M31.4134 5.81976H21.9645V15.2687H31.4134V5.81976ZM20.3896 4.24493V16.8436H32.9883V4.24493H20.3896Z" fill="black"/>
<rect x="26.1406" y="4.8399" width="0.854052" height="7.69865" transform="rotate(45 26.1406 4.8399)" fill="black"/>
<rect x="30.041" y="4.87994" width="0.854052" height="13.117" transform="rotate(45 30.041 4.87994)" fill="black"/>
<rect x="32.0088" y="6.8479" width="0.854052" height="13.117" transform="rotate(45 32.0088 6.8479)" fill="black"/>
<rect x="32.0488" y="10.7473" width="0.854052" height="7.69865" transform="rotate(45 32.0488 10.7473)" fill="black"/>
</g>
<defs>
<clipPath id="clip0_3490_62388">
<rect width="32" height="32" fill="white" transform="translate(0.988281 0.483643)"/>
</clipPath>
</defs>
</svg>
