<svg width="26" height="25" viewBox="0 0 26 25" fill="none" xmlns="http://www.w3.org/2000/svg">
<path fill-rule="evenodd" clip-rule="evenodd" d="M14.3078 11.8153C12.5217 12.7948 10.4414 13.8497 8.26185 13.8497C6.49784 13.8497 4.91726 13.137 3.67596 12.2792C2.43469 11.4214 1.49333 10.3918 0.996338 9.68775L1.85581 9.08107C2.2857 9.69009 3.14019 10.6302 4.27406 11.4137C5.4079 12.1973 6.78177 12.7977 8.26185 12.7977C10.1374 12.7977 11.9964 11.883 13.802 10.8929C13.9843 10.7929 14.1666 10.6919 14.3482 10.5912C15.0456 10.2048 15.7337 9.82354 16.3826 9.52271C17.1973 9.14497 18.0213 8.8584 18.8052 8.8584C20.0578 8.8584 21.3659 9.61349 22.4338 10.447C23.5236 11.2977 24.4677 12.3136 25.0101 12.9966L24.1863 13.6508C23.6859 13.0208 22.7995 12.067 21.7864 11.2763C20.7514 10.4684 19.6844 9.91042 18.8052 9.91042C18.2567 9.91042 17.6034 10.1163 16.8251 10.4771C16.214 10.7605 15.5697 11.1173 14.8769 11.5011C14.6908 11.6042 14.5012 11.7092 14.3078 11.8153Z" fill="black"/>
<circle cx="18.7625" cy="9.6648" r="1.84742" fill="black"/>
<circle cx="8.20289" cy="13.3235" r="1.84742" fill="black"/>
<path fill-rule="evenodd" clip-rule="evenodd" d="M19.9066 10.2826C19.9247 10.4725 19.9426 10.6752 19.9578 10.8873L18.9085 10.9625C18.8941 10.7614 18.8769 10.5674 18.8593 10.3821L19.9066 10.2826ZM19.998 12.1231C19.9924 12.5297 19.9651 12.9532 19.9022 13.3796L18.8614 13.2262C18.9162 12.8548 18.941 12.4789 18.9461 12.1085L19.998 12.1231ZM7.97922 14.7861C7.85982 14.5158 7.77136 14.252 7.71563 14.0062L8.74162 13.7736C8.78059 13.9455 8.84606 14.1448 8.94153 14.361L7.97922 14.7861ZM19.6011 14.6325C19.4596 15.0395 19.2713 15.4388 19.0229 15.8167L18.1437 15.239C18.339 14.9418 18.4909 14.6221 18.6074 14.287L19.6011 14.6325ZM9.97429 17.2086C9.51928 16.8848 9.13494 16.515 8.81835 16.1322L9.62906 15.4617C9.89153 15.7791 10.2094 16.0847 10.5843 16.3514L9.97429 17.2086ZM18.1462 16.819C17.8303 17.0931 17.4666 17.3384 17.0501 17.5484L16.5764 16.6091C16.918 16.4368 17.2088 16.2396 17.4567 16.0244L18.1462 16.819ZM12.9101 18.2942C12.354 18.2385 11.8422 18.1171 11.3745 17.9458L11.7363 16.958C12.1212 17.099 12.5467 17.2005 13.015 17.2474L12.9101 18.2942ZM15.8461 18.0109C15.6478 18.0669 15.4411 18.1167 15.2257 18.1602C14.9656 18.2127 14.7118 18.2524 14.4644 18.2799L14.3479 17.2344C14.5637 17.2103 14.7869 17.1756 15.0176 17.129C15.2079 17.0906 15.3887 17.0469 15.5602 16.9984L15.8461 18.0109Z" fill="black"/>
</svg>
