<svg width="25" height="25" viewBox="0 0 25 25" fill="none" xmlns="http://www.w3.org/2000/svg">
<g clip-path="url(#clip0)">
<path fill-rule="evenodd" clip-rule="evenodd" d="M23.6704 15.0675H0.550781V14.3149H23.6704V15.0675Z" fill="#616161"/>
<path d="M0.485352 9.04373V2.62553H2.0899C3.08133 2.62553 3.83469 2.90274 4.34997 3.45716C4.86525 4.00505 5.12289 4.78776 5.12289 5.80528C5.12289 6.82932 4.86525 7.62507 4.34997 8.19254C3.83469 8.76 3.09438 9.04373 2.12904 9.04373H0.485352ZM1.29741 8.37843H2.0312C2.78129 8.37843 3.34223 8.1534 3.71402 7.70334C4.09233 7.25329 4.28148 6.6206 4.28148 5.80528C4.28148 4.99648 4.09233 4.37684 3.71402 3.94635C3.34223 3.50934 2.78129 3.29083 2.0312 3.29083H1.29741V8.37843Z" fill="#616161"/>
<path d="M8.17579 9.16114C7.5431 9.16114 7.00499 8.94263 6.56145 8.50562C6.11792 8.06209 5.89615 7.45223 5.89615 6.67604C5.89615 6.15424 5.99725 5.70744 6.19945 5.33566C6.40817 4.96387 6.67234 4.67688 6.99194 4.47468C7.31807 4.27248 7.66377 4.17138 8.02903 4.17138C8.63563 4.17138 9.10199 4.37358 9.42812 4.77798C9.76077 5.18238 9.92709 5.72375 9.92709 6.40209C9.92709 6.59125 9.91731 6.74453 9.89774 6.86193H6.68864C6.72126 7.36417 6.8778 7.76531 7.15827 8.06535C7.44526 8.36538 7.81705 8.5154 8.27362 8.5154C8.50191 8.5154 8.71064 8.48279 8.89979 8.41757C9.09547 8.34582 9.28136 8.2545 9.45747 8.14362L9.7412 8.67194C9.539 8.8024 9.30745 8.91654 9.04655 9.01438C8.78565 9.11222 8.49539 9.16114 8.17579 9.16114ZM6.67886 6.28469H9.22266C9.22266 5.29978 8.8313 4.80733 8.0486 4.80733C7.71595 4.80733 7.41591 4.93778 7.14848 5.19868C6.88758 5.45306 6.73104 5.81506 6.67886 6.28469Z" fill="#616161"/>
<path d="M11.7752 9.16114C11.2077 9.16114 10.924 8.8024 10.924 8.08491V2.07764H11.7263V8.14362C11.7263 8.37843 11.8013 8.49584 11.9513 8.49584C12.01 8.49584 12.0687 8.48931 12.1274 8.47627L12.235 9.08287C12.1176 9.13505 11.9644 9.16114 11.7752 9.16114Z" fill="#616161"/>
<path d="M16.9633 14.7157C16.9633 15.6926 16.1713 16.4845 15.1944 16.4845C14.2175 16.4845 13.4255 15.6926 13.4255 14.7157C13.4255 13.7387 14.2175 12.9468 15.1944 12.9468C16.1713 12.9468 16.9633 13.7387 16.9633 14.7157Z" fill="#1672EC"/>
<path fill-rule="evenodd" clip-rule="evenodd" d="M22.5363 22.9222L17.6685 18.0541L18.2006 17.522L23.0685 22.39L22.5363 22.9222Z" fill="#1672EC"/>
<path fill-rule="evenodd" clip-rule="evenodd" d="M18.2005 22.9222L23.0684 18.0541L22.5362 17.522L17.6683 22.39L18.2005 22.9222Z" fill="#1672EC"/>
</g>
<defs>
<clipPath id="clip0">
<rect width="24" height="24" fill="white" transform="translate(0.0778809 0.5)"/>
</clipPath>
</defs>
</svg>
