<svg width="25" height="25" viewBox="0 0 25 25" fill="none" xmlns="http://www.w3.org/2000/svg">
<g clip-path="url(#clip0)">
<path fill-rule="evenodd" clip-rule="evenodd" d="M5.02891 13.2366H0.395996V12.4927H5.02891V13.2366Z" fill="#616161"/>
<path fill-rule="evenodd" clip-rule="evenodd" d="M11.6195 13.2366H8.70215V12.4927H11.6195V13.2366Z" fill="#616161"/>
<path d="M2.29524 8.2243C1.50217 8.2243 0.918646 7.88579 0.544678 7.20878L1.12497 6.80257C1.38933 7.27971 1.75363 7.51827 2.21786 7.51827C2.55315 7.51827 2.80461 7.41511 2.97225 7.20878C3.14634 6.99601 3.23338 6.64783 3.23338 6.16425V1.76367H4.0458V6.24162C4.0458 6.78968 3.90717 7.25714 3.62992 7.644C3.35911 8.03087 2.91422 8.2243 2.29524 8.2243Z" fill="#616161"/>
<path fill-rule="evenodd" clip-rule="evenodd" d="M11.6196 9.45996H13.4941V10.2039H12.3636V11.2418H11.6196V9.45996Z" fill="#616161"/>
<path fill-rule="evenodd" clip-rule="evenodd" d="M18.5479 9.41357L18.5479 11.2881L17.8039 11.2881L17.8039 10.1575L16.766 10.1575L16.766 9.41357L18.5479 9.41357Z" fill="#616161"/>
<path fill-rule="evenodd" clip-rule="evenodd" d="M18.5479 16.3169L16.6733 16.3169L16.6733 15.5729L17.8039 15.5729L17.8039 14.5351L18.5479 14.5351L18.5479 16.3169Z" fill="#616161"/>
<path fill-rule="evenodd" clip-rule="evenodd" d="M11.6196 16.3633L11.6196 14.4888L12.3636 14.4888L12.3636 15.6193L13.4014 15.6193L13.4014 16.3633L11.6196 16.3633Z" fill="#616161"/>
<path fill-rule="evenodd" clip-rule="evenodd" d="M14.7117 3.91699H24.3658V4.66096H15.4556V21.1161H24.3658V21.8601H14.7117V3.91699Z" fill="#616161"/>
<path d="M16.8324 4.28862C16.8324 5.25433 16.0495 6.0372 15.0838 6.0372C14.1181 6.0372 13.3352 5.25433 13.3352 4.28862C13.3352 3.32291 14.1181 2.54004 15.0838 2.54004C16.0495 2.54004 16.8324 3.32291 16.8324 4.28862Z" fill="#1672EC"/>
<path d="M7.94321 12.8887C7.94321 13.8544 7.16034 14.6373 6.19463 14.6373C5.22891 14.6373 4.44604 13.8544 4.44604 12.8887C4.44604 11.923 5.22891 11.1401 6.19463 11.1401C7.16034 11.1401 7.94321 11.923 7.94321 12.8887Z" fill="#1672EC"/>
<path d="M16.9217 21.4878C16.9217 22.4536 16.1389 23.2364 15.1731 23.2364C14.2074 23.2364 13.4246 22.4536 13.4246 21.4878C13.4246 20.5221 14.2074 19.7393 15.1731 19.7393C16.1389 19.7393 16.9217 20.5221 16.9217 21.4878Z" fill="#1672EC"/>
<path d="M16.8324 12.8887C16.8324 13.8544 16.0495 14.6373 15.0838 14.6373C14.1181 14.6373 13.3352 13.8544 13.3352 12.8887C13.3352 11.923 14.1181 11.1401 15.0838 11.1401C16.0495 11.1401 16.8324 11.923 16.8324 12.8887Z" fill="#1672EC"/>
</g>
<defs>
<clipPath id="clip0">
<rect width="24" height="24" fill="white" transform="translate(0.380859 0.5)"/>
</clipPath>
</defs>
</svg>
