<svg width="25" height="25" viewBox="0 0 25 25" fill="none" xmlns="http://www.w3.org/2000/svg">
<g clip-path="url(#clip0)">
<path d="M0.867432 10.1521V3.82031H1.66856V9.4668H4.43872V10.1521H0.867432Z" fill="#616161"/>
<path fill-rule="evenodd" clip-rule="evenodd" d="M6.30591 9.30713H22.5091V19.0361H21.7666V10.0496H7.04838V19.0361H6.30591V9.30713Z" fill="#616161"/>
<path d="M10.824 19.2002L13.899 17.4249L13.899 20.9756L10.824 19.2002Z" fill="#616161"/>
<path fill-rule="evenodd" clip-rule="evenodd" d="M10.824 19.2002L13.899 20.9756L13.899 17.4249L10.824 19.2002ZM12.3089 19.2002L13.1565 19.6896L13.1565 18.7109L12.3089 19.2002Z" fill="#616161"/>
<path fill-rule="evenodd" clip-rule="evenodd" d="M21.4355 19.5603H13.3337V18.8179H21.4355V19.5603Z" fill="#616161"/>
<path d="M8.38465 19.2001C8.38465 20.1639 7.60336 20.9452 6.63959 20.9452C5.67582 20.9452 4.89453 20.1639 4.89453 19.2001C4.89453 18.2364 5.67582 17.4551 6.63959 17.4551C7.60336 17.4551 8.38465 18.2364 8.38465 19.2001Z" fill="#1672EC"/>
<path d="M23.8829 19.435C23.8829 20.3988 23.1017 21.1801 22.1379 21.1801C21.1741 21.1801 20.3928 20.3988 20.3928 19.435C20.3928 18.4712 21.1741 17.6899 22.1379 17.6899C23.1017 17.6899 23.8829 18.4712 23.8829 19.435Z" fill="#1672EC"/>
</g>
<defs>
<clipPath id="clip0">
<rect width="24" height="24" fill="white" transform="translate(0.375244 0.5)"/>
</clipPath>
</defs>
</svg>
