<svg width="25" height="25" viewBox="0 0 24 25" fill="none" xmlns="http://www.w3.org/2000/svg">
<path d="M0.315674 8.67586V2.44922H1.1035V5.57203H1.13197L3.72324 2.44922H4.61547L2.66965 4.82218L4.91921 8.67586H4.03647L2.17607 5.43915L1.1035 6.70156V8.67586H0.315674Z" fill="#616161"/>
<path fill-rule="evenodd" clip-rule="evenodd" d="M11.1067 1.52295H12.9464V2.25309H11.8368V3.27165H11.1067V1.52295Z" fill="#616161"/>
<path fill-rule="evenodd" clip-rule="evenodd" d="M17.9062 1.47754L17.9062 3.31721L17.1761 3.31721L17.1761 2.20768L16.1575 2.20768L16.1575 1.47754L17.9062 1.47754Z" fill="#616161"/>
<path fill-rule="evenodd" clip-rule="evenodd" d="M17.9062 8.25244L16.0666 8.25244L16.0666 7.5223L17.1761 7.5223L17.1761 6.50374L17.9062 6.50374L17.9062 8.25244Z" fill="#616161"/>
<path fill-rule="evenodd" clip-rule="evenodd" d="M11.1067 8.29785L11.1067 6.45818L11.8368 6.45818L11.8368 7.56771L12.8554 7.56771L12.8554 8.29785L11.1067 8.29785Z" fill="#616161"/>
<path fill-rule="evenodd" clip-rule="evenodd" d="M10.3879 9.53857L5.79864 13.7061H0.349121V12.976H5.51659L9.89704 8.99805L10.3879 9.53857Z" fill="#616161"/>
<path fill-rule="evenodd" clip-rule="evenodd" d="M14.2095 4.5625H23.6842V5.29264H14.9396V21.442H23.6842V22.1721H14.2095V4.5625Z" fill="#616161"/>
<path d="M16.2908 4.92751C16.2908 5.87527 15.5225 6.64359 14.5747 6.64359C13.627 6.64359 12.8586 5.87527 12.8586 4.92751C12.8586 3.97974 13.627 3.21143 14.5747 3.21143C15.5225 3.21143 16.2908 3.97974 16.2908 4.92751Z" fill="#1672EC"/>
<path d="M16.3785 21.8069C16.3785 22.7547 15.6101 23.523 14.6624 23.523C13.7146 23.523 12.9463 22.7547 12.9463 21.8069C12.9463 20.8591 13.7146 20.0908 14.6624 20.0908C15.6101 20.0908 16.3785 20.8591 16.3785 21.8069Z" fill="#1672EC"/>
<path d="M6.9617 13.3674C6.9617 14.3152 6.19339 15.0835 5.24562 15.0835C4.29786 15.0835 3.52954 14.3152 3.52954 13.3674C3.52954 12.4197 4.29786 11.6514 5.24562 11.6514C6.19339 11.6514 6.9617 12.4197 6.9617 13.3674Z" fill="#1672EC"/>
</svg>
