<svg width="25" height="25" viewBox="0 0 25 25" fill="none" xmlns="http://www.w3.org/2000/svg">
<g clip-path="url(#clip0)">
<path d="M15.2718 12.9301C13.1047 12.9301 11.1421 13.7397 9.62925 15.0563L6.6853 12.1123V19.4722H14.0452L11.0849 16.5119C12.2216 15.5633 13.669 14.9745 15.2718 14.9745C18.1667 14.9745 20.6282 16.8635 21.4868 19.4722L23.4249 18.8343C22.2882 15.4079 19.0744 12.9301 15.2718 12.9301Z" fill="#1672EC"/>
<path d="M0.841553 7.48309L4.22838 5.52771L4.22838 9.43848L0.841553 7.48309Z" fill="#616161"/>
<path fill-rule="evenodd" clip-rule="evenodd" d="M0.841553 7.48309L4.22838 9.43848L4.22838 5.52771L0.841553 7.48309ZM2.47708 7.48309L3.41062 8.02207L3.41062 6.94411L2.47708 7.48309Z" fill="#616161"/>
<path fill-rule="evenodd" clip-rule="evenodd" d="M10.8026 7.88026H3.60596V7.0625H10.8026V7.88026Z" fill="#616161"/>
</g>
<defs>
<clipPath id="clip0">
<rect width="24" height="24" fill="white" transform="translate(0.133301 0.5)"/>
</clipPath>
</defs>
</svg>
