<svg width="24" height="24" viewBox="0 0 24 24" fill="none" xmlns="http://www.w3.org/2000/svg">
<path fill-rule="evenodd" clip-rule="evenodd" d="M5 3C3.89543 3 3 3.89543 3 5V19C3 20.1046 3.89543 21 5 21H19C20.1046 21 21 20.1046 21 19V5C21 3.89543 20.1046 3 19 3H5ZM6.30466 12.0771C6.30466 12.7748 6.37205 13.2743 6.50684 13.5756C6.64955 13.8689 6.87947 14.0156 7.19661 14.0156C7.51374 14.0156 7.9617 13.9403 8.54047 13.7896L8.84968 15.4665C8.22333 15.6964 7.59303 15.8114 6.95876 15.8114C6.00735 15.8114 5.31361 15.4982 4.87755 14.8719C4.44942 14.2376 4.23535 13.2981 4.23535 12.0533C4.23535 10.8006 4.46131 9.84527 4.91323 9.18721C5.36515 8.52122 6.10249 8.18823 7.12525 8.18823C7.72781 8.18823 8.30262 8.31509 8.84968 8.5688L8.52858 10.4121C7.91016 10.206 7.47806 10.1029 7.23228 10.1029C6.88344 10.1029 6.64162 10.2575 6.50684 10.5668C6.37205 10.868 6.30466 11.3715 6.30466 12.0771ZM9.01803 10.5311C9.01803 9.82545 9.22417 9.25857 9.63645 8.83043C10.0487 8.4023 10.6116 8.18823 11.3252 8.18823C12.0467 8.18823 12.784 8.25959 13.5372 8.4023L13.2994 10.3051C12.5145 10.1228 11.9753 10.0316 11.682 10.0316C11.3093 10.0316 11.123 10.1822 11.123 10.4835C11.123 10.6024 11.2102 10.7174 11.3847 10.8284C11.567 10.9394 11.785 11.0583 12.0387 11.1852C12.2925 11.3041 12.5462 11.4508 12.7999 11.6252C13.0536 11.7917 13.2677 12.0335 13.4421 12.3506C13.6244 12.6678 13.7156 13.0325 13.7156 13.4448C13.7156 14.198 13.5134 14.7807 13.1091 15.193C12.7047 15.6052 12.1299 15.8114 11.3847 15.8114C10.6473 15.8114 9.92583 15.6964 9.22021 15.4665L9.35102 13.6945C10.1994 13.9403 10.79 14.0632 11.123 14.0632C11.456 14.0632 11.6225 13.9165 11.6225 13.6231C11.6225 13.4725 11.5313 13.3338 11.349 13.2069C11.1746 13.0801 10.9605 12.9532 10.7068 12.8263C10.4531 12.6995 10.1954 12.5528 9.93376 12.3863C9.68005 12.2198 9.46202 11.978 9.27967 11.6609C9.10524 11.3437 9.01803 10.9671 9.01803 10.5311ZM18.5173 15.6925L19.7661 8.30716H17.6254L17.1378 13.1474H16.9356L16.2934 8.30716H14.0457L15.3777 15.6925H18.5173Z" fill="black"/>
</svg>
