<svg width="25" height="25" viewBox="0 0 25 25" fill="none" xmlns="http://www.w3.org/2000/svg">
<path d="M1.45166 6.00046H23.5482" stroke="#818181" stroke-width="2"/>
<circle cx="6.8092" cy="5.9884" r="2.25" fill="white" stroke="#818181" stroke-width="2"/>
<path d="M1.45166 19.2369H23.5482" stroke="#818181" stroke-width="2"/>
<path d="M6.8092 21.4989C8.06088 21.4989 9.0592 20.4771 9.0592 19.2369C9.0592 17.9966 8.06088 16.9748 6.8092 16.9748C5.55752 16.9748 4.5592 17.9966 4.5592 19.2369C4.5592 20.4771 5.55752 21.4989 6.8092 21.4989Z" fill="white" stroke="#818181" stroke-width="2"/>
<path d="M23.5481 12.6187H1.45157" stroke="#818181" stroke-width="2"/>
<path d="M18.4098 14.8807C17.1581 14.8807 16.1598 13.8589 16.1598 12.6187C16.1598 11.3784 17.1581 10.3566 18.4098 10.3566C19.6615 10.3566 20.6598 11.3784 20.6598 12.6187C20.6598 13.8589 19.6615 14.8807 18.4098 14.8807Z" fill="white" stroke="#818181" stroke-width="2"/>
</svg>
