<svg width="25" height="25" viewBox="0 0 25 25" fill="none" xmlns="http://www.w3.org/2000/svg">
<path fill-rule="evenodd" clip-rule="evenodd" d="M7.54301 7.00043C7.85581 6.77323 8.0592 6.40455 8.0592 5.98837C8.0592 5.5866 7.86966 5.22911 7.57511 5.00043H23.5482V7.00043H7.54301ZM6.0754 7.00043H1.45166V5.00043H6.0433C5.74875 5.22911 5.5592 5.5866 5.5592 5.98837C5.5592 6.40455 5.76259 6.77323 6.0754 7.00043Z" fill="#818181"/>
<path fill-rule="evenodd" clip-rule="evenodd" d="M10.0592 5.98837C10.0592 7.7833 8.60413 9.23837 6.8092 9.23837C5.01428 9.23837 3.5592 7.7833 3.5592 5.98837C3.5592 4.19345 5.01428 2.73837 6.8092 2.73837C8.60413 2.73837 10.0592 4.19345 10.0592 5.98837ZM6.8092 7.23837C7.49956 7.23837 8.0592 6.67873 8.0592 5.98837C8.0592 5.29802 7.49956 4.73837 6.8092 4.73837C6.11885 4.73837 5.5592 5.29802 5.5592 5.98837C5.5592 6.67873 6.11885 7.23837 6.8092 7.23837Z" fill="#818181"/>
<path fill-rule="evenodd" clip-rule="evenodd" d="M7.57188 20.2368C7.86827 20.0061 8.0592 19.644 8.0592 19.2368C8.0592 18.8297 7.86828 18.4676 7.57191 18.2368H23.5482V20.2368H7.57188ZM6.04653 20.2368H1.45166V18.2368H6.0465C5.75012 18.4676 5.5592 18.8297 5.5592 19.2368C5.5592 19.644 5.75014 20.0061 6.04653 20.2368Z" fill="#818181"/>
<path fill-rule="evenodd" clip-rule="evenodd" d="M10.0592 19.2368C10.0592 21.0203 8.62221 22.4989 6.8092 22.4989C4.9962 22.4989 3.5592 21.0203 3.5592 19.2368C3.5592 17.4534 4.9962 15.9748 6.8092 15.9748C8.62221 15.9748 10.0592 17.4534 10.0592 19.2368ZM6.8092 20.4989C7.49956 20.4989 8.0592 19.9339 8.0592 19.2368C8.0592 18.5398 7.49956 17.9748 6.8092 17.9748C6.11885 17.9748 5.5592 18.5398 5.5592 19.2368C5.5592 19.9339 6.11885 20.4989 6.8092 20.4989Z" fill="#818181"/>
<path fill-rule="evenodd" clip-rule="evenodd" d="M17.6472 13.6187C17.3508 13.3879 17.1599 13.0258 17.1599 12.6186C17.1599 12.2115 17.3508 11.8494 17.6472 11.6187H1.45169V13.6187H17.6472ZM19.1726 13.6187H23.5482V11.6187H19.1726C19.469 11.8494 19.6599 12.2115 19.6599 12.6186C19.6599 13.0258 19.469 13.3879 19.1726 13.6187Z" fill="#818181"/>
<path fill-rule="evenodd" clip-rule="evenodd" d="M15.1599 12.6186C15.1599 14.4021 16.5969 15.8807 18.4099 15.8807C20.2229 15.8807 21.6599 14.4021 21.6599 12.6186C21.6599 10.8352 20.2229 9.35657 18.4099 9.35657C16.5969 9.35657 15.1599 10.8352 15.1599 12.6186ZM18.4099 13.8807C17.7196 13.8807 17.1599 13.3157 17.1599 12.6186C17.1599 11.9216 17.7196 11.3566 18.4099 11.3566C19.1003 11.3566 19.6599 11.9216 19.6599 12.6186C19.6599 13.3157 19.1003 13.8807 18.4099 13.8807Z" fill="#818181"/>
</svg>
