<svg width="25" height="24" viewBox="0 0 25 24" fill="none" xmlns="http://www.w3.org/2000/svg">
<g clip-path="url(#clip0_1809_48001)">
<path fill-rule="evenodd" clip-rule="evenodd" d="M0.969727 5.20798L5.94821 0.229492L10.312 4.59327L5.33351 9.57176L0.969727 5.20798ZM5.33351 6.74333L7.48357 4.59327L5.94821 3.05792L3.79815 5.20798L5.33351 6.74333Z" fill="black"/>
<path fill-rule="evenodd" clip-rule="evenodd" d="M9.33656 11.8165C9.40801 12.8595 9.8058 14.1836 10.4172 15.5333C10.6769 16.1066 10.9497 16.6299 11.2096 17.0829L18.2577 10.0348C17.6618 9.74354 16.9848 9.45887 16.284 9.21024C15.4109 8.90049 14.5423 8.66132 13.7855 8.52994C13.3466 8.45376 12.9971 8.4232 12.7336 8.41948L9.33656 11.8165ZM11.8229 6.50176L7.34736 10.9773C7.13216 13.3645 8.52473 16.5436 9.75003 18.5425C10.2017 19.2793 10.6306 19.8557 10.9479 20.173L21.418 9.70292C21.056 9.34091 20.4655 8.94163 19.7427 8.54987C17.4015 7.28103 13.6724 6.09109 11.8229 6.50176Z" fill="black"/>
<path d="M19.1023 15.3682H20.7545V22.9164H19.1023V15.3682Z" fill="black"/>
<path d="M16.1543 19.9685V18.3164H23.7025V19.9685H16.1543Z" fill="black"/>
</g>
<defs>
<clipPath id="clip0_1809_48001">
<rect width="24" height="24" fill="white" transform="translate(0.510742)"/>
</clipPath>
</defs>
</svg>
