<svg width="24" height="25" viewBox="0 0 24 25" fill="none" xmlns="http://www.w3.org/2000/svg">
    <path d="M13.3301 8.51074C14.0496 8.51074 14.6328 7.92749 14.6328 7.20801C14.6328 6.48853 14.0496 5.90527 13.3301 5.90527C12.6106 5.90527 12.0273 6.48853 12.0273 7.20801C12.0273 7.92749 12.6106 8.51074 13.3301 8.51074Z" fill="black"/>
    <path fill-rule="evenodd" clip-rule="evenodd" d="M18.4297 7.20801C18.4297 11.8254 13.3311 15.4592 13.3311 15.4592C13.3311 15.4592 8.23242 11.2852 8.23242 7.20801C8.23242 4.39211 10.5152 2.10938 13.3311 2.10938C16.147 2.10938 18.4297 4.39211 18.4297 7.20801ZM16.325 7.20801C16.325 8.86149 14.9845 10.2019 13.3311 10.2019C11.6776 10.2019 10.3372 8.86149 10.3372 7.20801C10.3372 5.55452 11.6776 4.21411 13.3311 4.21411C14.9845 4.21411 16.325 5.55452 16.325 7.20801Z" fill="black"/>
    <path fill-rule="evenodd" clip-rule="evenodd" d="M7.12991 9.43245L3.22519 8.33045C2.99911 8.26664 2.75619 8.31245 2.56887 8.45422C2.38155 8.59599 2.27148 8.81734 2.27148 9.05225V20.1873C2.27148 20.54 2.51723 20.845 2.86185 20.9201L8.37457 22.121C8.48683 22.1454 8.60322 22.1438 8.71473 22.1161L15.3379 20.4735L20.763 22.1063C20.9901 22.1747 21.2362 22.1316 21.4266 21.9901C21.6169 21.8486 21.7291 21.6253 21.7291 21.3881V10.3624C21.7291 10.0137 21.4889 9.71106 21.1494 9.63193L19.6349 9.27901C19.5126 9.76935 19.3519 10.2468 19.1619 10.709L20.2291 10.9577V20.3792L16.1318 19.146V15.2732C15.5944 15.8559 15.0746 16.3528 14.6318 16.7485V19.1032L9.21582 20.4464V13.3905C8.35028 12.1934 7.56735 10.8374 7.12991 9.43245ZM7.71582 11.1564L3.77148 10.0432V19.5831L7.71582 20.4423V11.1564Z" fill="black"/>
</svg>