<svg width="16" height="16" viewBox="0 0 16 16" fill="none" xmlns="http://www.w3.org/2000/svg">
<path fill-rule="evenodd" clip-rule="evenodd" d="M14.8942 1.10568C14.6748 0.886242 14.3429 0.824613 14.0593 0.950649L1.33138 6.6075C1.05888 6.72862 0.884015 6.99966 0.886003 7.29786C0.887991 7.59606 1.06645 7.86475 1.34055 7.98222L6.01455 9.98537L8.01769 14.6594C8.13516 14.9335 8.40386 15.1119 8.70205 15.1139C9.00025 15.1159 9.2713 14.941 9.39241 14.6685L15.0493 1.94061C15.1753 1.65703 15.1137 1.32511 14.8942 1.10568ZM6.88117 8.72482L3.51077 7.28036L12.8866 3.11334L8.71955 12.4891L7.27509 9.11874C7.19923 8.94173 7.05818 8.80068 6.88117 8.72482Z" fill="#818181"/>
</svg>
