<svg width="25" height="25" viewBox="0 0 25 25" fill="none" xmlns="http://www.w3.org/2000/svg">
<g clip-path="url(#clip0_2851_59412)">
<path fill-rule="evenodd" clip-rule="evenodd" d="M12.5068 7.0835C10.0268 7.0835 8.00684 9.1035 8.00684 11.5835C8.00684 14.0635 10.0268 16.0835 12.5068 16.0835C14.9868 16.0835 17.0068 14.0635 17.0068 11.5835C17.0068 9.1035 14.9868 7.0835 12.5068 7.0835Z" fill="#1672EC"/>
<path fill-rule="evenodd" clip-rule="evenodd" d="M10.8759 4.20323C11.4245 4.12444 11.9953 4.08228 12.5881 4.08228C13.1752 4.08228 13.739 4.12365 14.2798 4.20116L13.996 6.18092C13.5499 6.11698 13.0809 6.08228 12.5881 6.08228C12.0905 6.08228 11.6147 6.11765 11.1602 6.18292L10.8759 4.20323ZM17.5364 5.19193C18.6237 5.71663 19.5538 6.38278 20.337 7.09263L18.9939 8.57454C18.3326 7.97515 17.5593 7.4237 16.6671 6.99316L17.5364 5.19193ZM4.73315 7.07262C5.53702 6.37036 6.48666 5.71244 7.58511 5.19314L8.43992 7.00126C7.52889 7.43196 6.73206 7.98207 6.04897 8.57882L4.73315 7.07262ZM1.60496 11.0977C1.8176 10.6531 2.10892 10.143 2.47786 9.60605L4.12621 10.7387C3.9237 11.0334 3.75278 11.3128 3.61275 11.5665C3.73363 11.8206 3.8861 12.1018 4.07185 12.3994L2.37513 13.4583C2.02677 12.9 1.75946 12.3647 1.57536 11.8924L1.41797 11.4886L1.60496 11.0977ZM22.5175 9.63169C22.8706 10.1601 23.151 10.6574 23.363 11.0851L23.563 11.4887L23.3934 11.9059C23.2018 12.3768 22.9262 12.9107 22.5694 13.4675L20.8856 12.3882C21.0745 12.0935 21.2305 11.8149 21.3553 11.5626C21.2145 11.3087 21.0479 11.0322 20.8546 10.7428L22.5175 9.63169ZM20.3366 16.0752C19.5335 16.7899 18.5775 17.456 17.4646 17.979L16.6139 16.1689C17.534 15.7365 18.3311 15.1826 19.0071 14.5811L20.3366 16.0752ZM7.4245 17.9837C6.31607 17.4602 5.36753 16.7926 4.57329 16.0759L5.91319 14.5911C6.57858 15.1915 7.36595 15.7442 8.27859 16.1752L7.4245 17.9837ZM14.15 18.9633C13.5997 19.0406 13.0266 19.0818 12.4309 19.0818C11.8383 19.0818 11.2686 19.041 10.7218 18.9644L10.9992 16.9838C11.4534 17.0474 11.9304 17.0818 12.4309 17.0818C12.934 17.0818 13.4141 17.047 13.8719 16.9827L14.15 18.9633Z" fill="#1672EC"/>
</g>
<defs>
<clipPath id="clip0_2851_59412">
<rect width="24" height="24" fill="white" transform="translate(0.506836 0.0834961)"/>
</clipPath>
</defs>
</svg>
