<svg width="24" height="24" viewBox="0 0 24 24" fill="none" xmlns="http://www.w3.org/2000/svg">
<path d="M7.01904 8.16372C7.0161 8.30012 7.12791 8.4107 7.26434 8.4107H9.19248C9.33056 8.4107 9.44145 8.29852 9.45123 8.1608C9.54423 6.85063 10.3791 5.87019 11.9364 5.87019C13.195 5.87019 14.3487 6.49949 14.3487 8.01447C14.3487 9.17984 13.6611 9.71591 12.5773 10.5317C11.342 11.429 10.3631 12.4778 10.4331 14.1793L10.4413 14.7834C10.4432 14.9202 10.5546 15.03 10.6913 15.03H12.5954C12.7334 15.03 12.8454 14.9181 12.8454 14.78V14.3774C12.8454 13.0605 13.3465 12.676 14.6983 11.6504C15.8171 10.7997 16.9824 9.85576 16.9824 7.87463C16.9824 5.10104 14.64 3.76086 12.0762 3.76086C9.69946 3.76086 7.08966 4.89278 7.01904 8.16372ZM9.88533 18.5378C9.88533 19.5167 10.6661 20.2392 11.7383 20.2392C12.857 20.2392 13.6262 19.5167 13.6262 18.5378C13.6262 17.5239 12.857 16.813 11.7383 16.813C10.6661 16.813 9.88533 17.5239 9.88533 18.5378Z" fill="#616161"/>
</svg>
