<svg width="24" height="24" viewBox="0 0 24 24" fill="none" xmlns="http://www.w3.org/2000/svg">
<g clip-path="url(#clip0_2907_59992)">
<path fill-rule="evenodd" clip-rule="evenodd" d="M18.0172 11L21.0293 11L21.0293 13L18.0172 13L18.0172 11ZM12.9971 11L16.0092 11L16.0092 13L12.9971 13L12.9971 11ZM7.97697 11L10.989 11L10.989 13L7.97697 13L7.97697 11Z" fill="black"/>
<path d="M2.97048 11L5.98256 11L5.98256 13L2.97048 13L2.97048 11Z" fill="black"/>
<path d="M11.9998 9.00098L8.33416 2.65198L15.6654 2.65198L11.9998 9.00098Z" fill="black"/>
<path d="M11.9998 14.999L8.33416 21.348H15.6654L11.9998 14.999Z" fill="black"/>
</g>
<defs>
<clipPath id="clip0_2907_59992">
<rect width="24" height="24" fill="white" transform="translate(24) rotate(90)"/>
</clipPath>
</defs>
</svg>
