<svg width="25" height="25" viewBox="0 0 25 25" fill="none" xmlns="http://www.w3.org/2000/svg">
<g clip-path="url(#clip0_2825_59323)">
<path fill-rule="evenodd" clip-rule="evenodd" d="M14.8543 18.42C16.6847 15.7595 18.3246 12.5123 18.3246 9.57855C18.3246 6.282 15.6522 3.60962 12.3557 3.60962C9.0591 3.60962 6.38672 6.282 6.38672 9.57855C6.38672 12.5454 8.02805 15.7933 9.85582 18.4423C10.7489 19.7366 11.6445 20.8286 12.3171 21.5967C12.3288 21.61 12.3403 21.6232 12.3518 21.6363C12.3648 21.6214 12.3779 21.6063 12.3911 21.5912C13.0643 20.8176 13.9606 19.7191 14.8543 18.42ZM13.3753 22.7442C15.4195 20.4242 19.8246 14.8171 19.8246 9.57855C19.8246 5.45358 16.4806 2.10962 12.3557 2.10962C8.23067 2.10962 4.88672 5.45358 4.88672 9.57855C4.88672 14.8628 9.28625 20.4399 11.3321 22.7477C11.9519 23.4468 12.3557 23.8459 12.3557 23.8459C12.3557 23.8459 12.3722 23.8295 12.4036 23.7974C12.5274 23.6712 12.8829 23.303 13.3753 22.7442Z" fill="black"/>
<path d="M14.6147 7.20996L13.7004 6.29566L9.12891 10.8672L13.7004 15.4387L14.6147 14.5244L10.9575 10.8672L14.6147 7.20996Z" fill="black"/>
</g>
<defs>
<clipPath id="clip0_2825_59323">
<rect width="24" height="24" fill="white" transform="translate(0.355469 0.977783)"/>
</clipPath>
</defs>
</svg>
