<svg width="24" height="24" viewBox="0 0 24 24" fill="none" xmlns="http://www.w3.org/2000/svg">
    <path fill-rule="evenodd" clip-rule="evenodd" d="M11.9857 17.1089L6.43692 12.8435L3.58804 14.7385L12 21.1175L20.412 14.7385L17.5611 12.8421L11.9857 17.1089ZM17.5 11L23 14.6584L12 23L1 14.6584L6.5 11L11.9878 15.2185L17.5 11Z" fill="black"/>
    <path d="M12 13.0526L18.5422 8.11962L20 7.02628L12 1L4 7.02628L5.44889 8.11962L12 13.0526ZM12 3.17807L17.1022 7.02628L12 10.8745L6.89778 7.02628L12 3.17807Z" fill="black"/>
    <path fill-rule="evenodd" clip-rule="evenodd" d="M4.5 17V13H5.5V17H4.5Z" fill="black"/>
    <path fill-rule="evenodd" clip-rule="evenodd" d="M6.5 18V12H7.5V18H6.5Z" fill="black"/>
    <path fill-rule="evenodd" clip-rule="evenodd" d="M8.5 20V14H9.5V20H8.5Z" fill="black"/>
    <path fill-rule="evenodd" clip-rule="evenodd" d="M10.5 21V15H11.5V21H10.5Z" fill="black"/>
    <path fill-rule="evenodd" clip-rule="evenodd" d="M12.5 21V15H13.5V21H12.5Z" fill="black"/>
    <path fill-rule="evenodd" clip-rule="evenodd" d="M14.5 20V14H15.5V20H14.5Z" fill="black"/>
    <path fill-rule="evenodd" clip-rule="evenodd" d="M16.5 18V12H17.5V18H16.5Z" fill="black"/>
    <path fill-rule="evenodd" clip-rule="evenodd" d="M18.4774 16.4962L18.5 12.9966L19.5 13.0031L19.4773 16.5026L18.4774 16.4962Z" fill="black"/>
</svg>
