<svg width="25" height="24" viewBox="0 0 25 24" fill="none" xmlns="http://www.w3.org/2000/svg">
<g clip-path="url(#clip0_380_54485)">
<path fill-rule="evenodd" clip-rule="evenodd" d="M0.114258 4.97849L5.09274 0L9.45653 4.36378L4.47804 9.34227L0.114258 4.97849ZM4.47804 6.51384L6.6281 4.36378L5.09274 2.82843L2.94268 4.97849L4.47804 6.51384Z" fill="black"/>
<path fill-rule="evenodd" clip-rule="evenodd" d="M8.48109 11.587C8.55254 12.63 8.95034 13.9541 9.56172 15.3038C9.82144 15.8771 10.0943 16.4004 10.3541 16.8534L17.4023 9.80529C16.8064 9.51404 16.1293 9.22938 15.4285 8.98075C14.5555 8.67099 13.6868 8.43183 12.93 8.30045C12.4911 8.22427 12.1416 8.19371 11.8781 8.18999L8.48109 11.587ZM10.9674 6.27227L6.4919 10.7478C6.27669 13.135 7.66926 16.3141 8.89456 18.313C9.34622 19.0498 9.77515 19.6262 10.0925 19.9435L20.5626 9.47343C20.2006 9.11142 19.61 8.71214 18.8872 8.32037C16.5461 7.05154 12.8169 5.8616 10.9674 6.27227Z" fill="black"/>
<path d="M14.0723 18.9438L18.2365 14.7795L20.9172 19.126L16.753 23.2902L14.0723 18.9438Z" fill="black"/>
<path d="M18.9268 22.2723L19.8647 23.2902L24.0289 19.126L21.3482 14.7795L19.9881 15.7454L22.0731 19.126L18.9268 22.2723Z" fill="black"/>
</g>
<defs>
<clipPath id="clip0_380_54485">
<rect width="24" height="24" fill="white" transform="translate(0.114258)"/>
</clipPath>
</defs>
</svg>
