<svg width="25" height="25" viewBox="0 0 25 25" fill="none" xmlns="http://www.w3.org/2000/svg">
<g clip-path="url(#clip0_2985_59389)">
<path fill-rule="evenodd" clip-rule="evenodd" d="M24.9756 19.1562L21.4756 24.2089L17.9756 19.1562L20.5116 19.1562L20.5116 14.0442L22.4349 14.0442L22.4349 19.1562L24.9756 19.1562Z" fill="black"/>
<path d="M9.18167 9.82169C8.78793 9.82169 8.48863 10.0235 8.28376 10.4272C8.08209 10.8309 7.98125 11.4225 7.98125 12.2019C7.98125 12.9813 8.08209 13.5744 8.28376 13.9812C8.48542 14.388 8.78153 14.5914 9.17206 14.5914C9.95953 14.5914 10.3533 13.7964 10.3533 12.2065C10.3533 10.6166 9.96274 9.82169 9.18167 9.82169Z" fill="black"/>
<path fill-rule="evenodd" clip-rule="evenodd" d="M18.7987 7.30176L0.975586 7.30176V17.116H18.7987V7.30176ZM7.29942 14.8103C6.86407 14.2079 6.64639 13.34 6.64639 12.2065C6.64639 11.0731 6.86407 10.2067 7.29942 9.60742C7.73797 9.005 8.36378 8.70379 9.17686 8.70379C9.98994 8.70379 10.6126 9.00655 11.0447 9.61208C11.4769 10.2145 11.6929 11.0809 11.6929 12.2112C11.6929 13.3384 11.4737 14.2048 11.0351 14.8103C10.5998 15.4127 9.97714 15.7139 9.16726 15.7139C8.36058 15.7139 7.73797 15.4127 7.29942 14.8103ZM4.24342 14.5122H6.05365V15.6208H2.93737V8.81092H4.24342V14.5122ZM16.9577 15.3367V11.8432H14.8113V12.9611H15.6804V14.5215C15.4564 14.5743 15.2419 14.6007 15.037 14.6007C14.6369 14.6007 14.3312 14.3989 14.1199 13.9952C13.9118 13.5884 13.8078 13.0077 13.8078 12.2531C13.8078 11.4985 13.9519 10.907 14.24 10.4785C14.5313 10.0468 14.925 9.831 15.4212 9.831C15.7637 9.831 16.135 9.94279 16.5351 10.1664L16.9481 9.13232C16.4391 8.85284 15.9045 8.7131 15.3443 8.7131C14.4352 8.7131 13.7294 9.02208 13.2268 9.64003C12.7242 10.258 12.4729 11.1244 12.4729 12.2391C12.4729 13.3508 12.6922 14.2079 13.1308 14.8103C13.5725 15.4127 14.2015 15.7139 15.0178 15.7139C15.7029 15.7139 16.3495 15.5882 16.9577 15.3367Z" fill="black"/>
</g>
<defs>
<clipPath id="clip0_2985_59389">
<rect width="24" height="24" fill="white" transform="translate(0.975586 0.208984)"/>
</clipPath>
</defs>
</svg>
