<svg width="24" height="24" viewBox="0 0 24 24" fill="none" xmlns="http://www.w3.org/2000/svg">
<rect x="5.77051" y="5.73926" width="12.4534" height="1.58975" rx="0.794877" fill="black"/>
<rect x="5.77051" y="8.83325" width="12.4534" height="1.58975" rx="0.794877" fill="black"/>
<rect x="5.77051" y="11.9272" width="8.29677" height="1.58975" rx="0.794877" fill="black"/>
<path fill-rule="evenodd" clip-rule="evenodd" d="M8.19924 15.602H4.81092C3.78663 15.602 2.95628 14.7716 2.95628 13.7473V5.10169C2.95628 4.0774 3.78663 3.24705 4.81092 3.24705H19.1463C20.1706 3.24705 21.001 4.0774 21.001 5.10169V13.7473C21.001 14.7716 20.1706 15.602 19.1463 15.602H15.8397L12.0195 19.7879L8.19924 15.602ZM16.5762 17.2711H19.1463C21.0925 17.2711 22.6701 15.6935 22.6701 13.7473V5.10169C22.6701 3.15555 21.0925 1.57788 19.1463 1.57788H4.81092C2.86477 1.57788 1.28711 3.15554 1.28711 5.10169V13.7473C1.28711 15.6935 2.86477 17.2711 4.81092 17.2711H7.46278L12.0195 22.2641L16.5762 17.2711Z" fill="black"/>
</svg>
