<svg width="24" height="25" viewBox="0 0 24 25" fill="none" xmlns="http://www.w3.org/2000/svg">
<path d="M1.45166 19.47L1.72252 21.8752L3.47773 20.2067L6.47891 11.9724C5.74216 11.7882 5.09208 11.4199 4.56119 10.9106L1.45166 19.47Z" fill="black"/>
<path d="M10.5635 10.9106C10.0326 11.4199 9.37167 11.7882 8.64575 11.9724L11.6469 20.2067L13.4021 21.8752L13.6838 19.47L10.5635 10.9106Z" fill="black"/>
<path d="M10.8125 7.79034C10.8125 6.38184 9.90242 5.19004 8.6456 4.73499V2.37305H6.47869V4.73499C5.22187 5.19004 4.31177 6.38184 4.31177 7.79034C4.31177 9.58888 5.7636 11.0407 7.56214 11.0407C9.36069 11.0407 10.8125 9.58888 10.8125 7.79034ZM7.56214 8.8738C6.96624 8.8738 6.47869 8.38624 6.47869 7.79034C6.47869 7.19444 6.96624 6.70688 7.56214 6.70688C8.15805 6.70688 8.6456 7.19444 8.6456 7.79034C8.6456 8.38624 8.15805 8.8738 7.56214 8.8738Z" fill="black"/>
<path fill-rule="evenodd" clip-rule="evenodd" d="M21.0484 4.19824H16.8367V20.051H21.0484V4.19824ZM15.3367 2.69824V21.551H22.5484V2.69824H15.3367Z" fill="black"/>
<path fill-rule="evenodd" clip-rule="evenodd" d="M18.5134 7.25488H16.2683V6.25488H18.5134V7.25488Z" fill="black"/>
<path fill-rule="evenodd" clip-rule="evenodd" d="M19.8368 9.93945H16.2683V8.93945H19.8368V9.93945Z" fill="black"/>
<path fill-rule="evenodd" clip-rule="evenodd" d="M18.5134 12.6245H16.2683V11.6245H18.5134V12.6245Z" fill="black"/>
<path fill-rule="evenodd" clip-rule="evenodd" d="M19.8369 15.3096H16.2683V14.3096H19.8369V15.3096Z" fill="black"/>
<path fill-rule="evenodd" clip-rule="evenodd" d="M18.5134 17.9937H16.2683V16.9937H18.5134V17.9937Z" fill="black"/>
</svg>
