<svg width="24" height="25" viewBox="0 0 24 25" fill="none" xmlns="http://www.w3.org/2000/svg">
    <path d="M15 19.3345L9 17.2245V5.33447L15 7.44447V19.3345ZM20.5 3.33447C20.44 3.33447 20.39 3.33447 20.34 3.33447L15 5.43447L9 3.33447L3.36 5.23447C3.15 5.30447 3 5.48447 3 5.71447V20.8345C3 20.9671 3.05268 21.0943 3.14645 21.188C3.24021 21.2818 3.36739 21.3345 3.5 21.3345C3.55 21.3345 3.61 21.3345 3.66 21.3045L9 19.2345L15 21.3345L20.64 19.4345C20.85 19.3345 21 19.1845 21 18.9545V3.83447C21 3.70186 20.9473 3.57469 20.8536 3.48092C20.7598 3.38715 20.6326 3.33447 20.5 3.33447Z" fill="#818181"/>
</svg>
