<svg width="25" height="24" viewBox="0 0 25 24" fill="none" xmlns="http://www.w3.org/2000/svg">
    <path d="M5.16777 4.74297H16.1631V6.0254C16.7519 6.0264 17.322 6.10709 17.8631 6.25725V3.04297H3.46777V22.2262H17.8631V18.5644C17.322 18.7145 16.7519 18.7952 16.1631 18.7962V20.5262H5.16777V4.74297Z" fill="black"/>
    <path fill-rule="evenodd" clip-rule="evenodd" d="M16.152 17.0962C18.7397 17.0962 20.8374 14.9985 20.8374 12.4108C20.8374 9.82313 18.7397 7.72539 16.152 7.72539C13.5643 7.72539 11.4666 9.82313 11.4666 12.4108C11.4666 14.9985 13.5643 17.0962 16.152 17.0962ZM16.152 18.7962C19.6786 18.7962 22.5374 15.9374 22.5374 12.4108C22.5374 8.88424 19.6786 6.02539 16.152 6.02539C12.6255 6.02539 9.7666 8.88424 9.7666 12.4108C9.7666 15.9374 12.6255 18.7962 16.152 18.7962Z" fill="black"/>
    <rect x="2.0332" y="5.37695" width="1.81567" height="1.81562" fill="black"/>
    <rect x="2.0332" y="17.6299" width="1.81567" height="1.81562" fill="black"/>
    <rect x="2.0332" y="14.5664" width="1.81567" height="1.81562" fill="black"/>
    <rect x="2.0332" y="11.5029" width="1.81567" height="1.81562" fill="black"/>
    <rect x="2.0332" y="8.43945" width="1.81567" height="1.81562" fill="black"/>
    <path d="M16.9384 16.0112H15.3656V11.1362H16.9384V16.0112ZM15.2734 9.61764C15.2734 9.38263 15.3512 9.1892 15.5066 9.03735C15.6657 8.8855 15.8808 8.80957 16.152 8.80957C16.4196 8.80957 16.6329 8.8855 16.792 9.03735C16.951 9.1892 17.0306 9.38263 17.0306 9.61764C17.0306 9.85627 16.9492 10.0515 16.7865 10.2034C16.6275 10.3552 16.4159 10.4311 16.152 10.4311C15.8881 10.4311 15.6748 10.3552 15.5121 10.2034C15.353 10.0515 15.2734 9.85627 15.2734 9.61764Z" fill="black"/>
</svg>
