<svg width="24" height="24" viewBox="0 0 24 24" fill="none" xmlns="http://www.w3.org/2000/svg">
    <path d="M12.7343 5.54443C12.2774 5.54443 11.907 5.88022 11.907 6.29443V10.7944H6.94304C6.48613 10.7944 6.11572 11.1302 6.11572 11.5444C6.11572 11.9586 6.48613 12.2944 6.94304 12.2944H11.907V16.7944C11.907 17.2086 12.2774 17.5444 12.7343 17.5444C13.1912 17.5444 13.5616 17.2086 13.5616 16.7944V12.2944H18.5255C18.9824 12.2944 19.3528 11.9586 19.3528 11.5444C19.3528 11.1302 18.9824 10.7944 18.5255 10.7944H13.5616V6.29443C13.5616 5.88022 13.1912 5.54443 12.7343 5.54443Z" fill="#616161"/>
</svg>
