<svg width="25" height="25" viewBox="0 0 25 25" fill="none" xmlns="http://www.w3.org/2000/svg">
    <path d="M1.81663 0.783509L3.85497 2.82209C4.6455 2.29768 5.59204 1.99055 6.60962 1.99055C9.36671 1.99055 11.6096 4.23372 11.6096 6.99057C11.6096 7.19467 11.594 7.39364 11.5706 7.59018L18.7146 9.97153L20.4026 8.28354C20.793 7.89316 21.4261 7.89316 21.8167 8.28354C22.2071 8.67417 22.2071 9.30722 21.8167 9.69761L20.8358 10.6786L23.4256 11.5421C23.9498 11.7171 24.2327 12.2831 24.0582 12.8072C23.9188 13.2262 23.5286 13.4906 23.1097 13.4906C23.0052 13.4906 22.8983 13.4742 22.793 13.4391L19.2547 12.2596L11.8787 19.6356L13.0581 23.1747C13.2332 23.6986 12.9497 24.2648 12.4256 24.4396C12.3211 24.4743 12.2141 24.4906 12.1096 24.4906C11.6907 24.4906 11.3006 24.2257 11.1612 23.8068L10.2976 21.2167L8.81666 22.6977C8.6211 22.8932 8.36549 22.9906 8.10963 22.9906C7.85352 22.9906 7.59815 22.8932 7.40259 22.6977C7.01221 22.3073 7.01221 21.6742 7.40259 21.2836L9.59059 19.0956L7.20899 11.9518C7.0127 11.9752 6.81299 11.9906 6.60962 11.9906C3.85253 11.9906 1.6096 9.74766 1.6096 6.99057C1.6096 5.97323 1.91649 5.02669 2.44115 4.23616L0.402565 2.19758C0.0121822 1.8072 0.0121822 1.17414 0.402565 0.783509C0.792948 0.393127 1.42601 0.393127 1.81663 0.783509ZM17.1336 11.5526L10.9346 9.48618C10.4951 10.2472 9.86256 10.8793 9.10621 11.3155L11.1721 17.5143L17.1336 11.5526ZM6.60962 9.99058C6.94312 9.99058 7.25708 9.94004 7.5586 9.83506C8.45069 9.54062 9.15968 8.83212 9.45949 7.92514C9.5591 7.63876 9.60963 7.32455 9.60963 6.99057C9.60963 5.33602 8.26417 3.99055 6.60962 3.99055C4.95507 3.99055 3.60961 5.33602 3.60961 6.99057C3.60961 8.64511 4.95507 9.99058 6.60962 9.99058Z" fill="black"/>
</svg>
