<svg width="21" height="21" viewBox="0 0 21 21" fill="none" xmlns="http://www.w3.org/2000/svg">
    <path d="M18.1101 0.491211H2.11011C1.01011 0.491211 0.110107 1.39121 0.110107 2.49121V18.4912C0.110107 19.5912 1.01011 20.4912 2.11011 20.4912H18.1101C19.2101 20.4912 20.1101 19.5912 20.1101 18.4912V2.49121C20.1101 1.39121 19.2101 0.491211 18.1101 0.491211ZM6.11011 18.4912H2.11011V14.4912H6.11011V18.4912ZM6.11011 12.4912H2.11011V8.49121H6.11011V12.4912ZM6.11011 6.49121H2.11011V2.49121H6.11011V6.49121ZM12.1101 18.4912H8.11011V14.4912H12.1101V18.4912ZM12.1101 12.4912H8.11011V8.49121H12.1101V12.4912ZM12.1101 6.49121H8.11011V2.49121H12.1101V6.49121ZM18.1101 18.4912H14.1101V14.4912H18.1101V18.4912ZM18.1101 12.4912H14.1101V8.49121H18.1101V12.4912ZM18.1101 6.49121H14.1101V2.49121H18.1101V6.49121Z" fill="black"/>
</svg>
