<svg width="25" height="25" viewBox="0 0 25 25" fill="none" xmlns="http://www.w3.org/2000/svg">
    <g clip-path="url(#clip0_2584_58207)">
        <path fill-rule="evenodd" clip-rule="evenodd" d="M9.82264 4.07826L13.1968 0.704102L17.1758 4.68314L20.0179 1.84107L24.7013 6.52442L21.8592 9.3665L21.8593 9.36659L18.4851 12.7407L9.82264 4.07826ZM4.63197 12.4241L1.25781 15.7982L9.9203 24.4607L13.2945 21.0865L13.2942 21.0863L16.1362 18.2444L11.4528 13.561L8.61089 16.403L4.63197 12.4241Z" fill="black"/>
        <path fill-rule="evenodd" clip-rule="evenodd" d="M22.3064 16.9845L23.3186 13.207L23.3185 13.2071L23.3185 13.2069L19.541 14.2191L19.5411 14.2192L20.643 15.3211L15.9941 19.97L16.5724 20.5482L21.2212 15.8994L22.3063 16.9844L22.3064 16.9845Z" fill="black"/>
        <path fill-rule="evenodd" clip-rule="evenodd" d="M10.5838 12.08L11.5959 8.30248L11.5958 8.30251L11.5958 8.30239L7.81833 9.31457L7.81842 9.31466L8.92033 10.4166L4.27146 15.0654L4.8497 15.6437L9.49858 10.9948L10.5837 12.0799L10.5838 12.08Z" fill="black"/>
    </g>
    <defs>
        <clipPath id="clip0_2584_58207">
            <rect width="24" height="24" fill="white" transform="translate(0.978516 0.460693)"/>
        </clipPath>
    </defs>
</svg>
