<?xml version="1.0" encoding="UTF-8"?>
<!DOCTYPE svg PUBLIC "-//W3C//DTD SVG 1.1//EN" "http://www.w3.org/Graphics/SVG/1.1/DTD/svg11.dtd">
<!-- Creator: CorelDRAW X8 -->
<svg xmlns="http://www.w3.org/2000/svg" xml:space="preserve" width="256px" height="256px" version="1.1" shape-rendering="geometricPrecision" text-rendering="geometricPrecision" image-rendering="optimizeQuality" fill-rule="evenodd" clip-rule="evenodd"
viewBox="0 0 256 256"
 xmlns:xlink="http://www.w3.org/1999/xlink">
 <g id="Слой_x0020_1">
  <metadata id="CorelCorpID_0Corel-Layer"/>
  <g id="_1793344097232">
   <path fill="black" fill-rule="nonzero" d="M163 157c9,2 17,4 24,7 16,7 26,17 26,28 0,12 -10,21 -26,28 -9,4 -20,6 -33,8l0 -12c11,-2 20,-4 28,-7 12,-5 19,-11 19,-17 0,-6 -7,-12 -19,-17 -6,-2 -12,-4 -19,-5l0 -13zm-64 12c-8,2 -16,4 -23,6 -11,5 -19,11 -19,17 0,6 8,12 19,17 8,3 17,5 28,7l0 12c-12,-2 -23,-4 -32,-8 -17,-7 -27,-16 -27,-28 0,-11 10,-21 27,-28 8,-3 17,-6 27,-7l0 12z"/>
   <polygon fill="black" points="106,207 95,240 134,225 "/>
   <path fill="#010002" d="M133 139c7,0 3,21 4,50 0,9 -2,21 7,21 11,1 10,-9 9,-17 0,-18 0,-36 0,-54 0,-18 -2,-36 -1,-53 8,14 12,34 14,39 2,6 11,4 14,0 3,-5 -1,-62 -45,-66 -41,-3 -52,44 -48,54 2,5 9,8 13,4 5,-4 6,-21 13,-29 1,19 -2,74 -2,95 -1,9 -1,15 10,15 11,0 6,-16 8,-47 0,-3 2,-12 4,-12z"/>
   <path fill="#010002" d="M128 18c-28,7 -18,48 10,42 10,-2 19,-13 16,-26 -3,-10 -13,-19 -26,-16z"/>
  </g>
 </g>
</svg>
