<svg width="24" height="25" viewBox="0 0 24 25" fill="none" xmlns="http://www.w3.org/2000/svg">
    <path fill-rule="evenodd" clip-rule="evenodd" d="M3.68286 5.13072V22.1725H1.68286V4.93084L1.70612 4.82505C1.70612 4.82505 1.70711 4.82026 1.70895 4.8087C1.71107 4.79541 1.71352 4.77827 1.71679 4.75373C1.71798 4.74482 1.71939 4.73399 1.72098 4.72173C1.72665 4.67806 1.73467 4.61627 1.74349 4.55878C1.76666 4.40784 1.81091 4.16843 1.92615 3.92249C2.04938 3.65948 2.25468 3.38694 2.58437 3.19181C2.90449 3.00234 3.26542 2.93115 3.62963 2.93115C4.26746 2.93115 4.83416 3.01703 5.32777 3.2295C5.83984 3.44992 6.21738 3.78261 6.50054 4.18379C6.7691 4.56429 6.94138 4.99115 7.07731 5.38457C7.14642 5.58461 7.21191 5.79393 7.27548 5.99785L7.28588 6.03122C7.34721 6.22801 7.40815 6.42358 7.47581 6.62644C7.79004 7.56858 7.95117 7.95661 8.0854 8.18962C8.18824 8.36812 8.27069 8.4561 8.5195 8.72158C8.56056 8.76539 8.60615 8.81403 8.65711 8.86872C9.11 9.3547 9.4905 9.8005 9.68983 10.4321C9.87127 11.007 9.87616 11.6684 9.87616 12.4853C9.87616 13.2472 10.0266 14.2651 10.3657 15.0542C10.72 15.8789 11.1128 16.1234 11.4637 16.1234C11.9104 16.1234 12.0335 16.0096 12.0854 15.9558C12.1925 15.8449 12.2919 15.6473 12.4456 15.1911C12.4671 15.1273 12.4892 15.0595 12.5123 14.9882C12.7849 14.1506 13.2111 12.8405 14.6747 12.0264C15.5226 11.5547 15.7338 10.9656 15.9684 10.2659C15.9756 10.2447 15.983 10.2224 15.9906 10.1992C16.0964 9.88075 16.2589 9.39121 16.5752 9.00858C16.995 8.50079 17.5843 8.26471 18.2973 8.26471C18.74 8.26471 19.1481 8.39659 19.4873 8.66357C19.808 8.91605 20.0053 9.24055 20.1339 9.52943C20.341 9.99486 20.4517 10.5785 20.5369 11.028C20.5497 11.0955 20.5619 11.16 20.5738 11.2206C20.683 11.7769 20.7808 12.1367 20.9209 12.3617C20.9788 12.4547 21.0258 12.4926 21.0587 12.5116C21.0889 12.5291 21.1597 12.5616 21.3166 12.5616H22.3166V22.1725H20.3166V14.3714C20.2274 14.3341 20.1406 14.2911 20.0563 14.2423C19.6835 14.0264 19.4159 13.7286 19.2231 13.4187C18.8616 12.8381 18.7129 12.1237 18.6112 11.6057C18.5963 11.5294 18.5821 11.4566 18.5687 11.3872C18.4745 10.9016 18.412 10.5793 18.3067 10.3428C18.2912 10.308 18.2779 10.2828 18.2674 10.2651C18.1761 10.2673 18.1309 10.2792 18.1155 10.2843C18.0634 10.3482 18.0076 10.4755 17.8647 10.9018C17.6012 11.6876 17.1891 12.9163 15.6469 13.7742C14.8878 14.1965 14.687 14.7962 14.392 15.6773C14.3753 15.7272 14.3583 15.778 14.3409 15.8297C14.1949 16.2631 13.981 16.872 13.5241 17.3452C13.012 17.8754 12.3201 18.1234 11.4637 18.1234C9.88649 18.1234 8.98551 16.9083 8.52811 15.8437C8.05539 14.7435 7.87616 13.4424 7.87616 12.4853C7.87616 11.583 7.85286 11.2568 7.78255 11.034C7.73013 10.8679 7.63532 10.7058 7.19395 10.2322C7.1552 10.1906 7.11622 10.1494 7.07714 10.1081C6.83025 9.84707 6.57917 9.58159 6.35242 9.188C6.1042 8.75714 5.88784 8.18654 5.57855 7.25922C5.5044 7.0369 5.43801 6.82383 5.37772 6.63034C5.37382 6.61782 5.36994 6.60538 5.36609 6.59302C5.30143 6.38558 5.24461 6.20456 5.18695 6.03769C5.06934 5.69728 4.97023 5.48398 4.86655 5.33708C4.77746 5.21086 4.68191 5.12891 4.53701 5.06654C4.38326 5.00035 4.13138 4.93883 3.71055 4.93182C3.70936 4.94079 3.70815 4.95015 3.70684 4.96019C3.70465 4.97708 3.7022 4.99587 3.69928 5.01786C3.69522 5.04828 3.68991 5.08729 3.68286 5.13072Z" fill="black"/>
    <path fill-rule="evenodd" clip-rule="evenodd" d="M5.65816 22.1968H4.7522V21.1968H5.65816V22.1968ZM9.282 22.1968H7.47008V21.1968H9.282V22.1968ZM12.9058 22.1968H11.0939V21.1968H12.9058V22.1968ZM16.5297 22.1968H14.7178V21.1968H16.5297V22.1968ZM19.2476 22.1968H18.3416V21.1968H19.2476V22.1968Z" fill="black"/>
</svg>
