<svg width="24" height="25" viewBox="0 0 24 25" fill="none" xmlns="http://www.w3.org/2000/svg">
<g clip-path="url(#clip0_2813_59358)">
<path d="M4.47656 23.5483C5.33028 23.5483 6.17564 23.3802 6.96438 23.0535C7.75311 22.7268 8.46978 22.2479 9.07345 21.6442C9.67712 21.0406 10.156 20.3239 10.4827 19.5352C10.8094 18.7464 10.9775 17.9011 10.9775 17.0474L4.47656 17.0474V23.5483Z" fill="black"/>
<path d="M12.9775 15.3071C13.8313 15.3071 14.6766 15.139 15.4654 14.8123C16.2541 14.4856 16.9708 14.0067 17.5744 13.403C18.1781 12.7994 18.657 12.0827 18.9837 11.294C19.3104 10.5052 19.4785 9.65987 19.4785 8.80615L12.9775 8.80615V15.3071Z" fill="black"/>
<path d="M10.9775 0.563965C10.1238 0.563965 9.27846 0.732118 8.48972 1.05882C7.70099 1.38553 6.98433 1.86439 6.38065 2.46806C5.77698 3.07173 5.29812 3.78839 4.97142 4.57713C4.64471 5.36586 4.47656 6.21122 4.47656 7.06494L10.9775 7.06494V0.563965Z" fill="black"/>
<path d="M12.9775 0.563965C13.8313 0.563965 14.6766 0.732118 15.4654 1.05882C16.2541 1.38553 16.9708 1.86439 17.5744 2.46806C18.1781 3.07173 18.657 3.78839 18.9837 4.57713C19.3104 5.36586 19.4785 6.21122 19.4785 7.06494L12.9775 7.06494V0.563965Z" fill="black"/>
<path d="M4.47754 8.80615H10.9775V15.3062H4.47754V8.80615Z" fill="black"/>
</g>
<defs>
<clipPath id="clip0_2813_59358">
<rect width="24" height="24" fill="white" transform="translate(0 0.0559082)"/>
</clipPath>
</defs>
</svg>
