<svg width="24" height="24" viewBox="0 0 24 24" fill="none" xmlns="http://www.w3.org/2000/svg">
<path d="M20.3333 9.53846C20.3333 9.07114 19.9602 8.69231 19.5 8.69231H17V7H19.5C20.8807 7 22 8.13651 22 9.53846V15.4615C22 16.8635 20.8807 18 19.5 18H4.5C3.11929 18 2 16.8635 2 15.4615V9.53846C2 8.13651 3.11929 7 4.5 7H7V8.69231H4.5C4.03976 8.69231 3.66667 9.07114 3.66667 9.53846V15.4615C3.66667 15.9289 4.03976 16.3077 4.5 16.3077H19.5C19.9602 16.3077 20.3333 15.9289 20.3333 15.4615V9.53846Z" fill="black"/>
<path d="M15.7545 8.74L14.9345 8.11C14.9345 8.02 14.9345 7.98 14.9345 7.89L15.7345 7.26C15.8945 7.14 15.9345 6.92 15.8345 6.75L14.9845 5.27C14.9145 5.14 14.7745 5.07 14.6345 5.07C14.5845 5.07 14.5345 5.08 14.4845 5.1L13.5345 5.48C13.4545 5.43 13.4245 5.41 13.3445 5.37L13.1945 4.36C13.1645 4.15 12.9945 4 12.7945 4H11.0845C10.8845 4 10.7145 4.15 10.6845 4.34L10.5445 5.35C10.5145 5.37 10.4745 5.38 10.4445 5.4C10.4145 5.42 10.3845 5.44 10.3545 5.46L9.40452 5.08C9.35452 5.06 9.30452 5.05 9.25452 5.05C9.11452 5.05 8.98452 5.12 8.90452 5.25L8.05452 6.73C7.95452 6.9 7.99452 7.12 8.15452 7.24L8.95452 7.87C8.95452 7.96 8.95452 8 8.95452 8.1L8.15452 8.73C7.99452 8.85 7.95452 9.07 8.05452 9.24L8.90452 10.72C8.97452 10.85 9.11452 10.92 9.25452 10.92C9.30452 10.92 9.35452 10.91 9.40452 10.89L10.3545 10.52C10.4345 10.57 10.4745 10.59 10.5545 10.63L10.7045 11.64C10.7345 11.84 10.9045 11.98 11.1045 11.98H12.8145C13.0145 11.98 13.1845 11.83 13.2145 11.64L13.3645 10.63C13.3945 10.61 13.4345 10.6 13.4645 10.58C13.4945 10.56 13.5245 10.54 13.5545 10.52L14.5045 10.9C14.5545 10.92 14.6045 10.93 14.6545 10.93C14.7945 10.93 14.9245 10.86 15.0045 10.73L15.8545 9.25C15.9545 9.08 15.9145 8.86 15.7545 8.74ZM11.9445 9.5C11.1145 9.5 10.4445 8.83 10.4445 8C10.4445 7.17 11.1145 6.5 11.9445 6.5C12.7745 6.5 13.4445 7.17 13.4445 8C13.4445 8.83 12.7745 9.5 11.9445 9.5Z" fill="black"/>
</svg>
