<svg width="24" height="24" viewBox="0 0 24 24" fill="none" xmlns="http://www.w3.org/2000/svg">
<path fill-rule="evenodd" clip-rule="evenodd" d="M19.5 7C20.8807 7 22 8.13651 22 9.53846V15.4615C22 16.8635 20.8807 18 19.5 18H4.5C3.11929 18 2 16.8635 2 15.4615V9.53846C2 8.13651 3.11929 7 4.5 7H19.5ZM14.5 8.69231H16.1667V12.9231C16.1667 13.3904 16.5398 13.7692 17 13.7692C17.4602 13.7692 17.8333 13.3904 17.8333 12.9231V8.69231H19.5C19.9602 8.69231 20.3333 9.07114 20.3333 9.53846V15.4615C20.3333 15.9289 19.9602 16.3077 19.5 16.3077H4.5C4.03976 16.3077 3.66667 15.9289 3.66667 15.4615V9.53846C3.66667 9.07114 4.03976 8.69231 4.5 8.69231H6.16667V11.2308C6.16667 11.6981 6.53976 12.0769 7 12.0769C7.46024 12.0769 7.83333 11.6981 7.83333 11.2308V8.69231H9.5V12.9231C9.5 13.3904 9.8731 13.7692 10.3333 13.7692C10.7936 13.7692 11.1667 13.3904 11.1667 12.9231V8.69231H12.8333V11.2308C12.8333 11.6981 13.2064 12.0769 13.6667 12.0769C14.1269 12.0769 14.5 11.6981 14.5 11.2308V8.69231Z" fill="black"/>
</svg>
