<svg width="25" height="25" viewBox="0 0 25 25" fill="none" xmlns="http://www.w3.org/2000/svg">
    <g clip-path="url(#clip0_2612_58157)">
        <path fill-rule="evenodd" clip-rule="evenodd" d="M6.96107 8.38965L3.58691 11.7638L12.2494 20.4263L15.5524 17.1233L15.5525 17.1234L18.4661 14.2099L13.7827 9.52649L10.9403 12.3689L6.96107 8.38965Z" fill="black"/>
        <path fill-rule="evenodd" clip-rule="evenodd" d="M18.0896 7.0455L19.5867 5.56613L14.7305 4.26587L15.901 9.20819L17.3772 7.74949C17.7928 8.123 18.2099 8.56526 18.5922 9.0668C19.445 10.1854 20.1032 11.5698 20.2107 13.1099C20.3455 15.0417 19.6628 16.6177 18.7222 17.7368C17.7666 18.8737 16.5855 19.4942 15.7842 19.5743L15.8837 20.5693C17.0147 20.4562 18.4162 19.655 19.4877 18.3802C20.5742 17.0876 21.3632 15.2618 21.2082 13.0403C21.0839 11.2576 20.3258 9.69133 19.3875 8.46053C18.9817 7.92823 18.5381 7.45321 18.0896 7.0455Z" fill="black"/>
        <path fill-rule="evenodd" clip-rule="evenodd" d="M1.55859 1.55127H2.55859V2.46794H2.47526V2.55127H1.55859V1.55127ZM1.55859 22.5513V23.5513H2.55859V22.6346H2.47526V22.5513H1.55859ZM22.5586 23.5513H23.5586V22.5513H22.6419V22.6346H22.5586V23.5513ZM23.5586 2.55127V1.55127H22.5586V2.46794H22.6419V2.55127H23.5586ZM4.30859 1.55127V2.55127H6.14193V1.55127H4.30859ZM7.97526 1.55127V2.55127H9.80859V1.55127H7.97526ZM11.6419 1.55127V2.55127H13.4753V1.55127H11.6419ZM15.3086 1.55127V2.55127H17.1419V1.55127H15.3086ZM18.9753 1.55127V2.55127H20.8086V1.55127H18.9753ZM23.5586 4.30127H22.5586V6.1346H23.5586V4.30127ZM23.5586 7.96794H22.5586V9.80127H23.5586V7.96794ZM23.5586 11.6346H22.5586V13.4679H23.5586V11.6346ZM23.5586 15.3013H22.5586V17.1346H23.5586V15.3013ZM23.5586 18.9679H22.5586V20.8013H23.5586V18.9679ZM20.8086 23.5513V22.5513H18.9753V23.5513H20.8086ZM17.1419 23.5513V22.5513H15.3086V23.5513H17.1419ZM13.4753 23.5513V22.5513H11.6419V23.5513H13.4753ZM9.80859 23.5513V22.5513H7.97526V23.5513H9.80859ZM6.14193 23.5513V22.5513H4.30859V23.5513H6.14193ZM1.55859 20.8013H2.55859V18.9679H1.55859V20.8013ZM1.55859 17.1346H2.55859V15.3013H1.55859V17.1346ZM1.55859 13.4679H2.55859V11.6346H1.55859V13.4679ZM1.55859 9.80127H2.55859V7.96794H1.55859V9.80127ZM1.55859 6.1346H2.55859V4.30127H1.55859V6.1346Z" fill="black"/>
    </g>
    <defs>
        <clipPath id="clip0_2612_58157">
            <rect width="24" height="24" fill="white" transform="translate(0.558594 0.55127)"/>
        </clipPath>
    </defs>
</svg>
