<svg width="25" height="25" viewBox="0 0 25 25" fill="none" xmlns="http://www.w3.org/2000/svg">
<path fill-rule="evenodd" clip-rule="evenodd" d="M18.3224 10.0544C18.3224 12.8583 16.0494 15.1313 13.2456 15.1313C10.4417 15.1313 8.1687 12.8583 8.1687 10.0544C8.1687 7.25053 10.4417 4.97754 13.2456 4.97754C16.0494 4.97754 18.3224 7.25053 18.3224 10.0544ZM17.878 15.4046C16.6366 16.4803 15.0171 17.1313 13.2456 17.1313C9.33712 17.1313 6.1687 13.9629 6.1687 10.0544C6.1687 6.14596 9.33712 2.97754 13.2456 2.97754C17.154 2.97754 20.3224 6.14596 20.3224 10.0544C20.3224 11.8097 19.6834 13.4157 18.6253 14.6525L18.8327 14.8524H19.6751L22.5734 17.7613L20.9845 19.3502L18.0755 16.4519V15.6095L17.878 15.4046Z" fill="black"/>
<path d="M5.10986 20.3831V21.8231H2.42651V19.1743H3.86648V20.3831H5.10986Z" fill="black"/>
<path d="M13.2244 20.3831V21.8231H15.9077V19.1743H14.4678V20.3831H13.2244Z" fill="black"/>
<path d="M5.10986 6.54852V5.10855H2.42651L2.42651 7.75732H3.86648V6.54852H5.10986Z" fill="black"/>
<rect x="2.42651" y="9.43115" width="1.43466" height="3.28552" fill="black"/>
<rect x="2.42651" y="14.2158" width="1.43466" height="3.28552" fill="black"/>
<rect x="10.8096" y="20.3882" width="1.43466" height="3.28552" transform="rotate(90 10.8096 20.3882)" fill="black"/>
<path d="M13.9311 9.50333L12.5276 9.50293H9.96338V10.8984H12.5276H13.9311H16.4952V9.50293L13.9311 9.50333Z" fill="black"/>
</svg>
