<svg width="25" height="25" viewBox="0 0 25 25" fill="none" xmlns="http://www.w3.org/2000/svg">
<path fill-rule="evenodd" clip-rule="evenodd" d="M18.5724 10.0544C18.5724 12.8583 16.2994 15.1313 13.4956 15.1313C10.6917 15.1313 8.4187 12.8583 8.4187 10.0544C8.4187 7.25053 10.6917 4.97754 13.4956 4.97754C16.2994 4.97754 18.5724 7.25053 18.5724 10.0544ZM18.128 15.4046C16.8866 16.4803 15.2671 17.1313 13.4956 17.1313C9.58712 17.1313 6.4187 13.9629 6.4187 10.0544C6.4187 6.14596 9.58712 2.97754 13.4956 2.97754C17.404 2.97754 20.5724 6.14596 20.5724 10.0544C20.5724 11.8097 19.9334 13.4157 18.8753 14.6525L19.0827 14.8524H19.9251L22.8234 17.7613L21.2345 19.3502L18.3255 16.4519V15.6095L18.128 15.4046Z" fill="black"/>
<path d="M5.35986 20.3831V21.8231H2.67651V19.1743H4.11648V20.3831H5.35986Z" fill="black"/>
<path d="M13.4744 20.3831V21.8231H16.1577V19.1743H14.7178V20.3831H13.4744Z" fill="black"/>
<path d="M5.35986 6.54852V5.10855H2.67651L2.67651 7.75732H4.11648V6.54852H5.35986Z" fill="black"/>
<rect x="2.67651" y="9.43115" width="1.43466" height="3.28552" fill="black"/>
<rect x="2.67651" y="14.2158" width="1.43466" height="3.28552" fill="black"/>
<rect x="11.0596" y="20.3882" width="1.43466" height="3.28552" transform="rotate(90 11.0596 20.3882)" fill="black"/>
<path d="M14.1811 9.50284L12.7776 9.50244H10.2134V10.8979H12.7776H14.1811H16.7452V9.50244L14.1811 9.50284Z" fill="black"/>
<path d="M14.1766 10.9018L14.177 9.49828L14.177 6.93408L12.7815 6.93408L12.7815 9.49828L12.7815 10.9018L12.7815 13.4659L14.177 13.4659L14.1766 10.9018Z" fill="black"/>
</svg>
