<svg width="25" height="25" viewBox="0 0 25 25" fill="none" xmlns="http://www.w3.org/2000/svg">
<g clip-path="url(#clip0_3947_16498)">
<path d="M17.2832 12.4712H16.4932L16.2132 12.2012C17.1932 11.0612 17.7832 9.58119 17.7832 7.97119C17.7832 4.38119 14.8732 1.47119 11.2832 1.47119C7.6932 1.47119 4.7832 4.38119 4.7832 7.97119C4.7832 11.5612 7.6932 14.4712 11.2832 14.4712C12.8932 14.4712 14.3732 13.8812 15.5132 12.9012L15.7832 13.1812V13.9712L20.7832 18.9612L22.2732 17.4712L17.2832 12.4712V12.4712ZM11.2832 12.4712C8.7932 12.4712 6.7832 10.4612 6.7832 7.97119C6.7832 5.48119 8.7932 3.47119 11.2832 3.47119C13.7732 3.47119 15.7832 5.48119 15.7832 7.97119C15.7832 10.4612 13.7732 12.4712 11.2832 12.4712Z" fill="black"/>
<path d="M1.76172 23.4612V15.5412H3.27972L6.72272 20.8212V15.5412H8.24072V23.4612H6.72272L3.27972 18.1812V23.4612H1.76172ZM11.0017 19.3362C10.6387 19.3362 10.3069 19.2482 10.0062 19.0722C9.70555 18.8926 9.46539 18.6542 9.28572 18.3572C9.10972 18.0566 9.02172 17.7229 9.02172 17.3562C9.02172 16.9969 9.11339 16.6669 9.29672 16.3662C9.48005 16.0656 9.72205 15.8254 10.0227 15.6457C10.3234 15.4661 10.6497 15.3762 11.0017 15.3762C11.3647 15.3762 11.6947 15.4661 11.9917 15.6457C12.2924 15.8217 12.5326 16.0601 12.7122 16.3607C12.8919 16.6577 12.9817 16.9896 12.9817 17.3562C12.9817 17.7229 12.8919 18.0566 12.7122 18.3572C12.5326 18.6542 12.2924 18.8926 11.9917 19.0722C11.6947 19.2482 11.3647 19.3362 11.0017 19.3362ZM11.0017 18.0712C11.1301 18.0712 11.2474 18.0382 11.3537 17.9722C11.4637 17.9062 11.5517 17.8201 11.6177 17.7137C11.6837 17.6037 11.7167 17.4846 11.7167 17.3562C11.7167 17.2279 11.6837 17.1106 11.6177 17.0042C11.5517 16.8942 11.4637 16.8062 11.3537 16.7402C11.2474 16.6742 11.1301 16.6412 11.0017 16.6412C10.8734 16.6412 10.7542 16.6742 10.6442 16.7402C10.5379 16.8062 10.4517 16.8942 10.3857 17.0042C10.3197 17.1106 10.2867 17.2279 10.2867 17.3562C10.2867 17.4846 10.3197 17.6037 10.3857 17.7137C10.4517 17.8201 10.5379 17.9062 10.6442 17.9722C10.7542 18.0382 10.8734 18.0712 11.0017 18.0712ZM9.35172 20.9862V19.8312H12.6517V20.9862H9.35172Z" fill="black"/>
</g>
<defs>
<clipPath id="clip0_3947_16498">
<rect width="24" height="24" fill="white" transform="translate(0.946289 0.109375)"/>
</clipPath>
</defs>
</svg> 