<svg width="24" height="25" viewBox="0 0 24 25" fill="none" xmlns="http://www.w3.org/2000/svg">
<g clip-path="url(#clip0_3699_61928)">
<path d="M1.82129 18.209L4.00488 11.5767H7.30702L5.64207 15.4795H8.99925L3.67689 23.0946L4.90513 18.209H1.82129Z" fill="black"/>
<path d="M17.1202 12.4712H17.9102L22.9002 17.4712L21.4102 18.9612L16.4102 13.9712V13.1812L16.1402 12.9012C15.0002 13.8812 13.5202 14.4712 11.9102 14.4712C10.2025 14.4712 8.64868 13.8128 7.48875 12.7359L8.34705 10.7239C9.16922 11.7876 10.4581 12.4712 11.9102 12.4712C14.4002 12.4712 16.4102 10.4612 16.4102 7.97119C16.4102 5.48119 14.4002 3.47119 11.9102 3.47119C9.42016 3.47119 7.41016 5.48119 7.41016 7.97119C7.41016 8.94315 7.71642 9.84197 8.23795 10.5767H5.95336C5.604 9.77903 5.41016 8.89776 5.41016 7.97119C5.41016 4.38119 8.32016 1.47119 11.9102 1.47119C15.5002 1.47119 18.4102 4.38119 18.4102 7.97119C18.4102 9.58119 17.8202 11.0612 16.8402 12.2012L17.1202 12.4712Z" fill="black"/>
<path d="M6.74854 11.9225C6.66233 11.8101 6.57972 11.6947 6.50086 11.5767H6.89609L6.74854 11.9225Z" fill="black"/>
</g>
<defs>
<clipPath id="clip0_3699_61928">
<rect width="24" height="24" fill="white" transform="translate(0 0.109375)"/>
</clipPath>
</defs>
</svg>
