<svg width="24" height="25" viewBox="0 0 24 25" fill="none" xmlns="http://www.w3.org/2000/svg">
<g clip-path="url(#clip0_3702_61906)">
<path d="M8.37402 14.0176L7.62402 12.7185L11.3046 10.5935L11.356 6.52245L12.7639 6.54099L12.7042 11.5176L8.37402 14.0176Z" fill="black"/>
<path d="M19.6025 12.0739C19.6077 11.9561 19.6104 11.8376 19.6104 11.7185C19.6104 7.33448 16.0564 3.78052 11.6724 3.78052C7.28833 3.78052 3.73438 7.33448 3.73438 11.7185C3.73438 16.0194 7.15477 19.5213 11.4238 19.6527C12.0902 20.4498 12.975 21.0581 13.9861 21.3857C13.2437 21.5628 12.469 21.6565 11.6724 21.6565C6.18376 21.6565 1.73438 17.2071 1.73438 11.7185C1.73438 6.22991 6.18376 1.78052 11.6724 1.78052C17.161 1.78052 21.6104 6.22991 21.6104 11.7185C21.6104 12.7799 21.444 13.8024 21.1358 14.7614C20.8853 13.7219 20.3439 12.7957 19.6025 12.0739Z" fill="black"/>
<path d="M19.2426 18.7339H18.7642L18.5946 18.5704C19.1881 17.88 19.5454 16.9837 19.5454 16.0088C19.5454 13.8347 17.7831 12.0725 15.6091 12.0725C13.4351 12.0725 11.6729 13.8347 11.6729 16.0088C11.6729 18.1828 13.4351 19.945 15.6091 19.945C16.5841 19.945 17.4803 19.5877 18.1707 18.9943L18.3342 19.1638V19.6422L21.3621 22.6641L22.2644 21.7618L19.2426 18.7339V18.7339ZM15.6091 18.7339C14.1012 18.7339 12.884 17.5167 12.884 16.0088C12.884 14.5009 14.1012 13.2837 15.6091 13.2837C17.117 13.2837 18.3342 14.5009 18.3342 16.0088C18.3342 17.5167 17.117 18.7339 15.6091 18.7339Z" fill="black"/>
</g>
<defs>
<clipPath id="clip0_3702_61906">
<rect width="24" height="24" fill="white" transform="translate(0 0.166748)"/>
</clipPath>
</defs>
</svg>
