<svg width="24" height="25" viewBox="0 0 24 25" fill="none" xmlns="http://www.w3.org/2000/svg">
<path d="M16.3365 12.4712H15.5465L15.2665 12.2012C16.2465 11.0612 16.8365 9.58119 16.8365 7.97119C16.8365 4.38119 13.9265 1.47119 10.3365 1.47119C6.74655 1.47119 3.83655 4.38119 3.83655 7.97119C3.83655 11.5612 6.74655 14.4712 10.3365 14.4712C11.9465 14.4712 13.4265 13.8812 14.5665 12.9012L14.8365 13.1812V13.9712L19.8365 18.9612L21.3265 17.4712L16.3365 12.4712ZM10.3365 12.4712C7.84655 12.4712 5.83655 10.4612 5.83655 7.97119C5.83655 5.48119 7.84655 3.47119 10.3365 3.47119C12.8265 3.47119 14.8365 5.48119 14.8365 7.97119C14.8365 10.4612 12.8265 12.4712 10.3365 12.4712Z" fill="black"/>
<path d="M5.0871 22.7472C5.6605 22.7472 6.14723 22.6542 6.54728 22.4682C6.95177 22.2778 7.30737 21.9834 7.61408 21.5848V22.5479H9.02092V18.1443C9.02092 17.8343 9.00758 17.5487 8.98091 17.2875C8.95424 17.0218 8.87645 16.7627 8.74755 16.5103C8.51196 16.0365 8.1497 15.6956 7.66075 15.4875C7.17624 15.2794 6.61395 15.1753 5.97387 15.1753C5.12932 15.1753 4.45591 15.3591 3.95362 15.7266C3.45134 16.0941 3.11129 16.5812 2.93349 17.1878L4.40034 17.6461C4.52036 17.2786 4.7315 17.0196 5.03376 16.869C5.33601 16.7185 5.64939 16.6432 5.97387 16.6432C6.46282 16.6432 6.82287 16.7428 7.05401 16.9421C7.28515 17.1369 7.41627 17.4402 7.44739 17.852C6.8162 17.945 6.22946 18.0358 5.68717 18.1243C5.14932 18.2085 4.69149 18.3125 4.31367 18.4365C3.74471 18.6314 3.3291 18.9081 3.06684 19.2668C2.80459 19.621 2.67346 20.0594 2.67346 20.5819C2.67346 20.976 2.76458 21.3369 2.94683 21.6645C3.13352 21.9922 3.40689 22.2557 3.76693 22.4549C4.12698 22.6498 4.56703 22.7472 5.0871 22.7472ZM5.40713 21.4719C5.02931 21.4719 4.74039 21.3856 4.54036 21.2129C4.34478 21.0402 4.24699 20.8232 4.24699 20.562C4.24699 20.3273 4.32256 20.1369 4.47369 19.9907C4.62926 19.8446 4.84484 19.7206 5.12043 19.6188C5.3738 19.5347 5.67828 19.4616 6.03388 19.3996C6.38948 19.3332 6.85398 19.2557 7.42739 19.1671C7.42294 19.3354 7.41183 19.5236 7.39405 19.7317C7.37627 19.9354 7.33404 20.1192 7.26737 20.283C7.21403 20.4468 7.10957 20.6217 6.95399 20.8077C6.80286 20.9937 6.59839 21.1509 6.34058 21.2793C6.08277 21.4077 5.77162 21.4719 5.40713 21.4719Z" fill="black"/>
</svg>
