<svg width="24" height="24" viewBox="0 0 24 24" fill="none" xmlns="http://www.w3.org/2000/svg">
<path d="M3 5H5V3C3.9 3 3 3.9 3 5ZM3 13H5V11H3V13ZM7 21H9V19H7V21ZM3 9H5V7H3V9ZM13 3H11V5H13V3ZM19 3V5H21C21 3.9 20.1 3 19 3ZM5 21V19H3C3 20.1 3.9 21 5 21ZM3 17H5V15H3V17ZM9 3H7V5H9V3ZM11 21H13V19H11V21ZM19 13H21V11H19V13ZM19 21C20.1 21 21 20.1 21 19H19V21ZM19 9H21V7H19V9ZM19 17H21V15H19V17ZM15 21H17V19H15V21ZM15 5H17V3H15V5Z" fill="black"/>
<path d="M15.7545 12.74L14.9345 12.11C14.9345 12.02 14.9345 11.98 14.9345 11.89L15.7345 11.26C15.8945 11.14 15.9345 10.92 15.8345 10.75L14.9845 9.27C14.9145 9.14 14.7745 9.07 14.6345 9.07C14.5845 9.07 14.5345 9.08 14.4845 9.1L13.5345 9.48C13.4545 9.43 13.4245 9.41 13.3445 9.37L13.1945 8.36C13.1645 8.15 12.9945 8 12.7945 8H11.0845C10.8845 8 10.7145 8.15 10.6845 8.34L10.5445 9.35C10.5145 9.37 10.4745 9.38 10.4445 9.4C10.4145 9.42 10.3845 9.44 10.3545 9.46L9.40452 9.08C9.35452 9.06 9.30452 9.05 9.25452 9.05C9.11452 9.05 8.98452 9.12 8.90452 9.25L8.05452 10.73C7.95452 10.9 7.99452 11.12 8.15452 11.24L8.95452 11.87C8.95452 11.96 8.95452 12 8.95452 12.1L8.15452 12.73C7.99452 12.85 7.95452 13.07 8.05452 13.24L8.90452 14.72C8.97452 14.85 9.11452 14.92 9.25452 14.92C9.30452 14.92 9.35452 14.91 9.40452 14.89L10.3545 14.52C10.4345 14.57 10.4745 14.59 10.5545 14.63L10.7045 15.64C10.7345 15.84 10.9045 15.98 11.1045 15.98H12.8145C13.0145 15.98 13.1845 15.83 13.2145 15.64L13.3645 14.63C13.3945 14.61 13.4345 14.6 13.4645 14.58C13.4945 14.56 13.5245 14.54 13.5545 14.52L14.5045 14.9C14.5545 14.92 14.6045 14.93 14.6545 14.93C14.7945 14.93 14.9245 14.86 15.0045 14.73L15.8545 13.25C15.9545 13.08 15.9145 12.86 15.7545 12.74ZM11.9445 13.5C11.1145 13.5 10.4445 12.83 10.4445 12C10.4445 11.17 11.1145 10.5 11.9445 10.5C12.7745 10.5 13.4445 11.17 13.4445 12C13.4445 12.83 12.7745 13.5 11.9445 13.5Z" fill="black"/>
</svg>
