<svg width="24" height="25" viewBox="0 0 24 25" fill="none" xmlns="http://www.w3.org/2000/svg">
<path fill-rule="evenodd" clip-rule="evenodd" d="M21.7848 5.60059H2.21484V18.6465H21.7848V5.60059ZM0.714844 4.10059V20.1465H23.2848V4.10059H0.714844Z" fill="black"/>
<path d="M20.8597 17.6069V6.63916H16.1887C16.1887 6.63916 17.6457 7.58759 18.498 8.00918C19.5633 8.53618 18.2699 9.74163 17.4999 9.46664C17.0703 9.31323 16.9536 11.0857 16.9536 11.0857C16.9536 11.0857 17.9243 11.805 18.498 12.2991C19.0716 12.7931 17.4999 14.0171 17.4999 14.0171C17.4999 14.0171 16.5139 12.904 15.5058 13.5889C14.5916 14.2099 14.9822 14.78 15.497 15.5313L15.5057 15.544C15.9209 16.15 14.7862 17.1569 15.3508 17.6069H20.8597Z" fill="black"/>
<path fill-rule="evenodd" clip-rule="evenodd" d="M11.46 5.27132L11.46 4.74418L12.5398 4.74414L12.5398 5.27129L11.46 5.27132ZM11.4601 7.37991L11.4601 6.32562L12.5398 6.32558L12.5399 7.37988L11.4601 7.37991ZM11.4602 9.4885L11.4601 8.43421L12.5399 8.43417L12.54 9.48846L11.4602 9.4885ZM11.4602 11.5971L11.4602 10.5428L12.54 10.5428L12.54 11.5971L11.4602 11.5971ZM11.4603 13.7057L11.4603 12.6514L12.5401 12.6513L12.5401 13.7056L11.4603 13.7057ZM11.4604 15.8143L11.4603 14.76L12.5401 14.7599L12.5402 15.8142L11.4604 15.8143ZM11.4604 17.9229L11.4604 16.8686L12.5402 16.8685L12.5402 17.9228L11.4604 17.9229ZM11.4605 19.5043L11.4605 18.9771L12.5403 18.9771L12.5403 19.5043L11.4605 19.5043Z" fill="black"/>
<path fill-rule="evenodd" clip-rule="evenodd" d="M6.81033 9.73047L10.1132 12.1232L6.81033 14.5159V12.7822H3.57642V11.4674H6.81033V9.73047Z" fill="black"/>
</svg>
