<svg width="25" height="25" viewBox="0 0 25 25" fill="none" xmlns="http://www.w3.org/2000/svg">
    <path d="M7.13646 21.6326C7.09069 19.426 7.54638 15.8534 9.06824 12.4082C9.25727 11.9803 9.4623 11.5552 9.68437 11.1357L8.65514 9.58258C8.23971 10.2906 7.8741 11.0136 7.55358 11.7392C5.92226 15.4322 5.43081 19.249 5.48097 21.667L7.13646 21.6326Z" fill="black"/>
    <path d="M9.39614 8.41625L10.2216 10.1882C10.7496 9.318 11.3581 8.48159 12.0568 7.70418L11.2971 6.09322C10.5851 6.82326 9.95403 7.60444 9.39614 8.41625Z" fill="black"/>
    <path d="M12.1127 5.31247L12.804 6.93C14.0293 5.74861 15.497 4.74222 17.2484 4.01585L16.614 2.48633C14.8661 3.21125 13.3771 4.18329 12.1127 5.31247Z" fill="black"/>
    <path fill-rule="evenodd" clip-rule="evenodd" d="M15.5254 17.2435C16.0163 17.2723 16.5082 17.4129 16.9631 17.6755C18.5231 18.5762 19.0576 20.571 18.1569 22.131C17.2562 23.691 15.2614 24.2255 13.7014 23.3248C12.1414 22.4242 11.6069 20.4294 12.5076 18.8693C12.8046 18.3548 13.2208 17.9518 13.701 17.6751L12.5326 15.1613L9.03506 15.4486C9.23062 14.5304 9.61978 13.4023 9.99191 12.6259L11.3001 12.5098L7.34608 4.00302C8.13066 3.57253 9.9521 3.24432 10.9612 5.37548L14.2121 12.2514L17.0095 12.0032C16.9988 11.4304 17.1391 10.8473 17.4464 10.3149C18.3471 8.75492 20.3419 8.22042 21.9019 9.1211C23.462 10.0218 23.9965 12.0166 23.0958 13.5766C22.1951 15.1366 20.2003 15.6711 18.6403 14.7704C18.2054 14.5194 17.8502 14.1833 17.5836 13.7953L14.0854 14.1177L15.5254 17.2435ZM16.2108 18.9784C15.3704 18.4931 14.2957 18.7811 13.8104 19.6216C13.3252 20.462 13.6132 21.5367 14.4536 22.022C15.2941 22.5072 16.3688 22.2192 16.854 21.3788C17.3393 20.5383 17.0513 19.4636 16.2108 18.9784ZM21.1497 10.424C20.3093 9.93874 19.2346 10.2267 18.7493 11.0672C18.2641 11.9076 18.552 12.9823 19.3925 13.4676C20.233 13.9528 21.3077 13.6648 21.7929 12.8244C22.2781 11.9839 21.9902 10.9092 21.1497 10.424Z" fill="black"/>
    <path d="M8.92632 12.7204L7.08431 12.8839C6.78404 13.6797 6.37536 14.9346 6.20667 15.6809L7.9566 15.5372C8.15539 14.6981 8.5744 13.3267 8.92632 12.7204Z" fill="black"/>
    <path d="M5.13247 15.7691C5.31753 14.9718 5.66247 13.6654 5.98154 12.9817L1.87598 13.346C1.89545 14.2407 2.52193 15.9822 4.8721 15.7905L5.13247 15.7691Z" fill="black"/>
</svg>
