<svg width="33" height="33" viewBox="0 0 33 33" fill="none" xmlns="http://www.w3.org/2000/svg">
<g clip-path="url(#clip0_3492_62530)">
<path d="M27.7353 21.2837V18.0837H15.332L15.3322 14.8836H27.7353V11.6836L32.5354 16.4836L27.7353 21.2837Z" fill="black"/>
<path fill-rule="evenodd" clip-rule="evenodd" d="M11.5589 8.07916H2.10998V24.8881H11.5589V8.07916ZM0.535156 6.50433V26.463H13.1338V6.50433H0.535156Z" fill="black"/>
<rect width="1.14956" height="10.3624" transform="matrix(0.525338 0.850894 -0.525338 0.850894 6.28613 7.0993)" fill="black"/>
<rect width="1.14956" height="17.6556" transform="matrix(0.525338 0.850894 -0.525338 0.850894 10.1865 7.16418)" fill="black"/>
<rect width="1.14956" height="17.6556" transform="matrix(0.525338 0.850894 -0.525338 0.850894 12.1543 10.3517)" fill="black"/>
<rect width="1.14956" height="10.3624" transform="matrix(0.525338 0.850894 -0.525338 0.850894 12.1943 16.6675)" fill="black"/>
</g>
<defs>
<clipPath id="clip0_3492_62530">
<rect width="32" height="32" fill="white" transform="translate(0.535156 0.483643)"/>
</clipPath>
</defs>
</svg>
