<svg width="24" height="24" viewBox="0 0 24 24" fill="none" xmlns="http://www.w3.org/2000/svg">
<path d="M20 5H4C2.9 5 2 5.9 2 7V18C2 19.1 2.9 20 4 20H20C21.1 20 22 19.1 22 18V7C22 5.9 21.1 5 20 5ZM20 18H4V7H20V18Z" fill="black"/>
<rect x="6" y="12" width="1.5" height="1.5" fill="black"/>
<rect width="1.5" height="1.5" transform="matrix(-1 0 0 1 18 15)" fill="black"/>
<rect x="9" y="12" width="9" height="1.5" fill="black"/>
<rect width="9" height="1.5" transform="matrix(-1 0 0 1 15 15)" fill="black"/>
</svg>
