<svg width="24" height="25" viewBox="0 0 24 25" fill="none" xmlns="http://www.w3.org/2000/svg">
<path d="M13.5657 22.4658C18.3287 22.4658 22.21 18.5845 22.21 13.8215C22.21 9.05853 18.3287 5.17725 13.5657 5.17725C8.80269 5.17725 4.92141 8.66953 4.92141 12.9571C4.92141 15.8184 7.24672 18.1437 10.108 18.1437H11.638C11.8801 18.1437 12.0702 18.3338 12.0702 18.5759C12.0702 18.6796 12.027 18.7747 11.9578 18.8611C11.6034 19.2674 11.4046 19.7774 11.4046 20.3047C11.4046 21.4976 12.3728 22.4658 13.5657 22.4658ZM13.5657 6.9061C17.3778 6.9061 20.4811 10.0094 20.4811 13.8215C20.4811 17.6336 17.3778 20.7369 13.5657 20.7369C13.3236 20.7369 13.1335 20.5468 13.1335 20.3047C13.1335 20.1664 13.2026 20.0627 13.2545 20.0022C13.6089 19.6045 13.7991 19.0945 13.7991 18.5759C13.7991 17.383 12.8309 16.4148 11.638 16.4148H10.108C8.19759 16.4148 6.65026 14.8675 6.65026 12.9571C6.65026 9.6204 9.75356 6.9061 13.5657 6.9061Z" fill="black"/>
<path d="M18.3201 14.6861C17.6039 14.6861 17.0234 14.1055 17.0234 13.3894C17.0234 12.6733 17.6039 12.0928 18.3201 12.0928C19.0362 12.0928 19.6167 12.6733 19.6167 13.3894C19.6167 14.1055 19.0362 14.6861 18.3201 14.6861Z" fill="black"/>
<path d="M15.7268 11.228C15.0107 11.228 14.4302 10.6475 14.4302 9.93141C14.4302 9.21529 15.0107 8.63477 15.7268 8.63477C16.4429 8.63477 17.0234 9.21529 17.0234 9.93141C17.0234 10.6475 16.4429 11.228 15.7268 11.228Z" fill="black"/>
<path d="M11.4045 11.228C10.6884 11.228 10.1079 10.6475 10.1079 9.93141C10.1079 9.21529 10.6884 8.63477 11.4045 8.63477C12.1206 8.63477 12.7012 9.21529 12.7012 9.93141C12.7012 10.6475 12.1206 11.228 11.4045 11.228Z" fill="black"/>
<path d="M8.81127 14.6861C8.09515 14.6861 7.51463 14.1055 7.51463 13.3894C7.51463 12.6733 8.09515 12.0928 8.81127 12.0928C9.52738 12.0928 10.1079 12.6733 10.1079 13.3894C10.1079 14.1055 9.52738 14.6861 8.81127 14.6861Z" fill="black"/>
<path d="M3.79004 1.54248V3.54248H1.79004V1.54248H3.79004Z" fill="black"/>
<path d="M3.79004 4.82275V6.82275H1.79004V4.82275H3.79004Z" fill="black"/>
<path d="M7.04858 1.54248V3.54248H5.04858V1.54248H7.04858Z" fill="black"/>
<path d="M10.3071 1.54248V3.54248H8.30713V1.54248H10.3071Z" fill="black"/>
<path d="M13.5657 1.54248V3.54248H11.5657V1.54248H13.5657Z" fill="black"/>
</svg>
