<svg width="25" height="24" viewBox="0 0 25 24" fill="none" xmlns="http://www.w3.org/2000/svg">
    <g clip-path="url(#clip0_2961_59430)">
        <path d="M8.93452 2H16.9345L22.9345 8V20C22.9345 21.1 22.0345 22 20.9345 22H8.92452C7.82943 22 6.94247 21.108 6.93457 20.0147H14.0633V20H20.9345V9H15.9345V4H8.93452V8.40584H6.94176L6.94452 4C6.94452 2.9 7.83452 2 8.93452 2Z" fill="black"/>
        <path d="M11.3099 10.4019C9.19611 10.4019 7.28175 11.1916 5.8061 12.4758L2.93457 9.60425V16.7831H10.1134L7.22592 13.8956C8.33465 12.9703 9.74648 12.396 11.3099 12.396C14.1335 12.396 16.5345 14.2386 17.372 16.7831L19.2624 16.1609C18.1537 12.8188 15.0189 10.4019 11.3099 10.4019Z" fill="black"/>
    </g>
    <defs>
        <clipPath id="clip0_2961_59430">
            <rect width="24" height="24" fill="white" transform="translate(0.93457)"/>
        </clipPath>
    </defs>
</svg>
