<?xml version="1.0" encoding="UTF-8"?>
<!DOCTYPE svg PUBLIC "-//W3C//DTD SVG 1.1//EN" "http://www.w3.org/Graphics/SVG/1.1/DTD/svg11.dtd">
<!-- Creator: CorelDRAW X8 -->
<svg xmlns="http://www.w3.org/2000/svg" xml:space="preserve" width="1684px" height="250px" version="1.1" style="shape-rendering:geometricPrecision; text-rendering:geometricPrecision; image-rendering:optimizeQuality; fill-rule:evenodd; clip-rule:evenodd"
viewBox="0 0 1684 250"
 xmlns:xlink="http://www.w3.org/1999/xlink">
 <defs>
  <style type="text/css">
   <![CDATA[
    .fil0 {fill:#2B2A29}
    .fil4 {fill:#FFD30A}
    .fil3 {fill:#EA5251}
    .fil2 {fill:#64BDEB}
    .fil1 {fill:#009846}
    .fil7 {fill:#888A96}
    .fil5 {fill:#4B4B4B;fill-rule:nonzero}
    .fil6 {fill:#4B4B4B;fill-rule:nonzero}
   ]]>
  </style>
 </defs>
 <g id="Слой_x0020_1">
  <metadata id="CorelCorpID_0Corel-Layer"/>
  <g id="_2590444152272">
   <path class="fil0" d="M444 13l1 0c1,0 2,0 2,0 0,0 0,-1 1,-1 0,0 0,0 0,0 0,-1 0,-1 0,-1 -1,0 -1,0 -1,-1 0,0 -1,0 -2,0l-1 0 0 3zm-2 5l0 -9 2 0c2,0 3,0 3,0 1,0 1,0 2,0 0,0 0,1 0,1 1,1 1,1 1,1 0,1 -1,2 -1,2 0,1 -1,1 -2,1 1,0 1,0 1,0 0,0 0,1 1,1 0,0 0,0 0,1l1 2 -2 0 -1 -2c0,-1 -1,-1 -1,-1 0,-1 -1,-1 -1,-1l-1 0 0 4 -2 0zm4 -11c-1,0 -2,0 -3,0 -1,1 -2,2 -3,3 0,1 0,2 0,3 0,2 0,3 0,4 1,1 2,2 3,2 1,1 2,1 3,1 1,0 3,0 4,-1 1,0 2,-1 2,-2 1,-1 1,-2 1,-4 0,-1 0,-2 -1,-3 0,-1 -1,-2 -2,-3 -1,0 -3,0 -4,0zm0 -2c2,0 3,0 4,1 2,1 3,2 4,3 0,1 1,3 1,4 0,2 -1,3 -1,5 -1,1 -2,2 -4,3 -1,0 -2,1 -4,1 -1,0 -3,-1 -4,-1 -1,-1 -2,-2 -3,-3 -1,-2 -1,-3 -1,-5 0,-1 0,-3 1,-4 1,-1 2,-2 3,-3 1,-1 3,-1 4,-1z"/>
   <path class="fil1" d="M399 55c0,5 1,9 2,14l0 1 -1 0c-17,2 -32,6 -47,13l-2 0 0 -1c0,-5 0,-10 1,-14 0,-5 2,-9 3,-14l0 -1 1 1c7,0 14,1 21,1 7,0 14,0 20,-1l1 0 1 1z"/>
   <path class="fil2" d="M456 71c-16,-1 -33,-2 -49,-1l-1 0 0 -1c0,-5 -1,-10 -1,-14l0 -2 1 0c13,-1 25,-4 37,-10l0 0 1 0c6,5 12,19 13,27l0 2 -1 -1z"/>
   <path class="fil3" d="M363 111c-4,-5 -7,-10 -9,-17l0 -1 1 0c14,-10 28,-17 45,-19l1 0 0 1c1,8 1,17 2,25l0 1 -1 0c-7,1 -13,2 -19,4 -6,2 -13,4 -19,6l0 0 -1 0z"/>
   <path class="fil4" d="M405 99c1,-8 1,-17 1,-25l0 -1 1 0c8,-1 17,-1 25,-1 8,0 16,0 24,0l1 0 0 1c1,14 1,19 -8,30l-1 0 0 0c-7,-1 -14,-2 -21,-3 -7,0 -14,0 -21,1l-1 0 0 -2z"/>
   <path class="fil0" d="M406 99c0,-8 0,-17 0,-25 15,-2 36,-1 51,-1 2,12 -2,21 -9,29 -17,-3 -25,-4 -42,-3zm-42 11c-4,-5 -7,-9 -9,-16 15,-10 28,-17 45,-19 1,8 2,17 2,25 -14,2 -25,5 -38,10zm93 -40c-17,-1 -34,-2 -51,-1 0,-5 0,-10 -1,-15 14,-1 26,-4 38,-10 7,6 13,18 14,26zm-105 12c0,-11 1,-17 4,-27 14,1 27,1 42,0 0,5 1,10 2,14 -17,2 -32,5 -48,13zm51 51c-16,-3 -33,-8 -45,-18l-6 3c-1,0 -1,-1 -1,-2l6 -3c-3,-5 -6,-8 -9,-14 -7,6 -13,5 -13,0 0,-3 4,-7 9,-12 -3,-13 -4,-20 -1,-34 -2,0 -3,0 -5,0 0,0 0,-1 0,-1 2,0 4,0 6,-1 6,-12 17,-21 29,-23 5,-1 12,0 12,7 1,9 -18,6 -27,16 13,0 25,-1 38,-2 -1,-9 -4,-15 -7,-21 -4,-8 -20,-17 -12,-24 8,-5 19,11 22,18 3,9 4,17 6,25 8,0 24,-3 31,-9 -9,-8 -22,-12 -33,-18 -1,0 -1,-1 0,-1 13,4 27,9 39,16 8,-6 13,-11 17,-7 2,4 -3,8 -9,12 10,12 13,18 16,31 2,1 5,1 7,2 1,0 1,1 0,1 -2,0 -5,0 -7,0 1,13 0,21 -4,32 7,3 9,7 7,11 -1,4 -4,5 -13,1 -7,8 -15,13 -26,14 -8,0 -12,-6 -9,-11 3,-5 15,-5 20,-10 -15,-4 -21,-5 -35,-4 -1,7 -1,15 -1,23 1,1 5,2 7,3 2,0 1,2 0,2 -3,-1 -5,-1 -8,-2 0,3 0,7 0,10 0,1 -1,1 -1,0 0,-4 0,-7 0,-10zm0 -4c-1,-7 -1,-14 -1,-22 -6,-1 -32,3 -36,5 10,10 23,13 37,17z"/>
  </g>
  <path class="fil5" d="M641 60l-6 6c-5,-4 -10,-8 -15,-10 -6,-3 -12,-4 -17,-4 -6,0 -13,2 -19,5 -6,3 -10,8 -14,13 -3,6 -5,12 -5,18 0,6 2,12 5,18 4,6 9,10 15,13 6,4 12,5 19,5 9,0 16,-2 22,-7 6,-5 10,-11 11,-19l-27 0 0 -8 36 0c0,13 -4,23 -11,31 -8,7 -18,11 -31,11 -15,0 -28,-5 -37,-16 -7,-8 -10,-17 -10,-28 0,-8 2,-15 6,-22 4,-7 9,-12 16,-16 7,-4 15,-6 24,-6 7,0 14,1 20,4 6,2 12,6 18,12zm20 -14l9 0 0 84 -9 0 0 -84zm19 68l7 -4c5,9 11,14 18,14 3,0 5,-1 8,-2 2,-1 4,-3 5,-5 2,-2 2,-5 2,-7 0,-3 -1,-6 -3,-9 -2,-3 -7,-8 -14,-13 -7,-5 -11,-9 -13,-12 -3,-3 -5,-8 -5,-12 0,-4 1,-7 3,-10 2,-3 4,-6 7,-7 4,-2 7,-3 11,-3 4,0 8,1 11,3 3,2 7,5 11,11l-7 5c-3,-4 -6,-7 -8,-8 -2,-2 -5,-2 -7,-2 -4,0 -7,1 -9,3 -2,2 -3,4 -3,7 0,2 0,4 1,6 1,1 2,3 4,5 2,1 5,4 11,9 8,5 13,10 15,14 3,4 4,8 4,13 0,6 -2,11 -7,15 -4,5 -10,7 -16,7 -6,0 -10,-1 -14,-4 -5,-3 -8,-7 -12,-14zm95 -68l8 0 18 61 24 -61 2 0 23 61 18 -61 8 0 -24 84 -1 0 -25 -63 -26 63 -1 0 -24 -84zm168 64l7 3c-2,4 -5,8 -8,11 -3,2 -6,4 -10,6 -3,1 -7,2 -12,2 -10,0 -18,-4 -24,-10 -6,-7 -8,-14 -8,-23 0,-8 2,-15 7,-21 6,-8 14,-12 25,-12 10,0 19,4 25,12 5,6 7,13 7,22l-56 0c0,7 2,13 7,17 4,5 10,7 16,7 4,0 7,0 10,-1 3,-1 5,-3 7,-5 2,-2 5,-4 7,-8zm0 -17c-1,-5 -2,-8 -4,-10 -3,-3 -5,-5 -9,-7 -3,-1 -7,-2 -10,-2 -6,0 -12,2 -16,6 -3,3 -6,7 -7,13l46 0zm24 37l0 -86 8 0 0 35c4,-4 7,-7 12,-10 4,-2 8,-3 13,-3 9,0 17,4 23,10 6,6 9,14 9,23 0,9 -3,17 -9,23 -7,6 -14,10 -23,10 -5,0 -10,-1 -14,-4 -4,-2 -8,-5 -11,-9l0 11 -8 0zm32 -6c5,0 9,-1 13,-3 3,-3 6,-6 9,-10 2,-3 3,-8 3,-12 0,-4 -1,-9 -3,-13 -3,-4 -6,-7 -9,-9 -4,-2 -8,-3 -13,-3 -4,0 -8,1 -12,3 -4,2 -7,5 -9,9 -2,4 -3,8 -3,13 0,7 2,13 7,18 5,5 10,7 17,7zm40 -10l7 -4c5,9 11,14 18,14 3,0 5,-1 8,-2 2,-1 4,-3 5,-5 2,-2 2,-5 2,-7 0,-3 -1,-6 -2,-9 -3,-3 -8,-8 -15,-13 -7,-5 -11,-9 -13,-12 -3,-3 -4,-8 -4,-12 0,-4 0,-7 2,-10 2,-3 4,-6 8,-7 3,-2 6,-3 10,-3 4,0 8,1 11,3 4,2 7,5 11,11l-7 5c-3,-4 -6,-7 -8,-8 -2,-2 -5,-2 -7,-2 -4,0 -6,1 -9,3 -2,2 -3,4 -3,7 0,2 1,4 1,6 1,1 3,3 5,5 1,1 4,4 10,9 8,5 13,10 15,14 3,4 5,8 5,13 0,6 -3,11 -7,15 -5,5 -11,7 -17,7 -5,0 -10,-1 -14,-4 -4,-3 -8,-7 -12,-14zm118 -4l7 3c-2,4 -5,8 -7,11 -3,2 -7,4 -10,6 -4,1 -8,2 -13,2 -10,0 -18,-4 -23,-10 -6,-7 -9,-14 -9,-23 0,-8 2,-15 7,-21 6,-8 15,-12 25,-12 11,0 19,4 25,12 5,6 7,13 7,22l-56 0c0,7 3,13 7,17 5,5 10,7 17,7 3,0 6,0 9,-1 3,-1 6,-3 8,-5 2,-2 4,-4 6,-8zm1 -17c-2,-5 -3,-8 -5,-10 -2,-3 -5,-5 -8,-7 -4,-1 -7,-2 -11,-2 -6,0 -11,2 -16,6 -3,3 -5,7 -7,13l47 0zm20 -25l8 0 0 9c3,-4 5,-6 8,-8 3,-2 5,-3 8,-3 3,0 5,1 7,3l-4 6c-1,0 -3,-1 -4,-1 -3,0 -5,1 -8,3 -2,3 -4,6 -5,11 -1,3 -2,10 -2,21l0 21 -8 0 0 -62zm32 0l9 0 21 45 21 -45 8 0 -28 62 -2 0 -29 -62zm124 42l6 3c-2,4 -4,8 -7,11 -3,2 -6,4 -10,6 -4,1 -8,2 -12,2 -11,0 -19,-4 -24,-10 -6,-7 -9,-14 -9,-23 0,-8 3,-15 7,-21 7,-8 15,-12 25,-12 11,0 19,4 26,12 4,6 6,13 7,22l-57 0c0,7 3,13 7,17 5,5 10,7 17,7 3,0 6,0 9,-1 3,-1 6,-3 8,-5 2,-2 4,-4 7,-8zm0 -17c-1,-5 -3,-8 -5,-10 -2,-3 -5,-5 -8,-7 -3,-1 -7,-2 -11,-2 -6,0 -11,2 -16,6 -3,3 -5,7 -7,13l47 0zm20 -25l8 0 0 9c3,-4 5,-6 8,-8 3,-2 6,-3 9,-3 2,0 4,1 7,3l-4 6c-2,0 -4,-1 -5,-1 -2,0 -5,1 -7,3 -3,3 -5,6 -6,11 -1,3 -2,10 -2,21l0 21 -8 0 0 -62z"/>
  <path class="fil6" d="M244 195l-6 6c-2,-3 -5,-5 -7,-5 -1,0 -2,1 -3,1 -1,1 -1,1 -1,2 0,1 0,2 1,2 1,1 3,3 6,6 3,3 6,5 6,5 2,2 3,4 4,6 1,1 1,3 1,5 0,4 -1,7 -4,9 -2,3 -6,4 -10,4 -3,0 -6,-1 -8,-3 -3,-1 -5,-4 -7,-7l8 -5c2,5 4,7 7,7 2,0 3,-1 4,-2 1,-1 2,-2 2,-3 0,-1 -1,-2 -2,-3 0,-1 -2,-2 -5,-5 -5,-4 -8,-7 -9,-9 -2,-2 -2,-4 -2,-7 0,-3 1,-5 3,-8 3,-2 6,-3 9,-3 2,0 4,0 7,2 2,1 4,2 6,5zm701 -6l25 0 0 9 -16 0 0 8 16 0 0 8 -16 0 0 12 16 0 0 9 -25 0 0 -46zm-632 12l4 0 0 6c2,-2 4,-4 6,-5 2,-1 5,-2 8,-2 4,0 8,2 12,5 3,4 5,8 5,13 0,5 -2,9 -5,12 -3,4 -8,5 -12,5 -3,0 -5,0 -8,-1 -2,-1 -4,-3 -6,-5l0 18 -4 0 0 -46zm17 3c-3,0 -7,2 -9,4 -3,3 -4,6 -4,10 0,2 1,5 2,7 1,2 2,3 5,5 2,1 4,1 6,1 3,0 5,0 7,-1 2,-2 4,-3 5,-5 1,-3 2,-5 2,-7 0,-3 -1,-5 -2,-7 -1,-2 -3,-4 -5,-5 -2,-1 -4,-2 -7,-2zm114 19l4 2c-2,3 -3,5 -5,6 -1,1 -3,3 -5,3 -2,1 -4,1 -7,1 -5,0 -9,-1 -13,-5 -3,-4 -4,-8 -4,-12 0,-4 1,-8 4,-12 3,-4 8,-6 13,-6 6,0 11,2 14,7 2,3 4,7 4,11l-31 0c0,4 2,7 4,10 2,2 5,3 9,3 2,0 3,0 5,0 2,-1 3,-2 4,-3 1,-1 3,-2 4,-5zm0 -9c-1,-2 -2,-4 -3,-5 -1,-2 -2,-3 -4,-3 -2,-1 -4,-2 -6,-2 -3,0 -6,1 -8,3 -2,2 -3,4 -4,7l25 0zm105 -6l-4 2c-3,-4 -7,-6 -12,-6 -4,0 -7,2 -10,4 -3,3 -4,6 -4,10 0,2 0,4 2,7 1,2 3,3 5,5 2,1 4,1 7,1 5,0 9,-2 12,-5l4 2c-2,2 -4,4 -7,5 -3,2 -6,2 -9,2 -5,0 -10,-1 -13,-5 -4,-3 -6,-7 -6,-12 0,-3 1,-6 3,-9 1,-3 4,-5 7,-7 2,-1 6,-2 9,-2 2,0 5,0 7,1 2,1 4,2 5,3 1,1 3,2 4,4zm69 -21c1,0 2,0 2,1 1,1 1,2 1,3 0,1 0,2 -1,2 0,1 -1,1 -2,1 -1,0 -2,0 -3,-1 0,0 -1,-1 -1,-2 0,-1 1,-2 1,-3 1,-1 2,-1 3,-1zm-2 14l4 0 0 34 -4 0 0 -34zm106 0l0 34 -4 0 0 -6c-2,2 -4,4 -7,5 -2,1 -4,1 -7,1 -5,0 -9,-1 -12,-5 -4,-3 -5,-7 -5,-12 0,-5 2,-9 5,-13 3,-3 7,-5 12,-5 3,0 5,1 8,2 2,1 4,3 6,5l0 -6 4 0zm-17 3c-3,0 -5,1 -7,2 -2,1 -4,3 -5,5 -1,2 -2,4 -2,7 0,2 1,4 2,7 1,2 3,3 5,5 2,1 4,1 6,1 3,0 5,0 7,-1 2,-2 4,-3 5,-5 1,-2 2,-5 2,-7 0,-4 -1,-7 -4,-10 -3,-2 -6,-4 -9,-4zm85 -16l5 0 0 47 -5 0 0 -47zm282 0l0 47 -5 0 0 -6c-2,2 -4,4 -6,5 -2,1 -5,1 -7,1 -5,0 -9,-1 -12,-5 -4,-3 -6,-7 -6,-12 0,-5 2,-9 6,-13 3,-3 7,-5 12,-5 3,0 5,1 7,2 3,1 5,3 6,5l0 -19 5 0zm-18 16c-2,0 -4,1 -6,2 -3,1 -4,3 -5,5 -2,2 -2,4 -2,7 0,2 0,4 2,7 1,2 3,3 5,5 2,1 4,1 6,1 3,0 5,0 7,-1 2,-2 4,-3 5,-5 1,-2 1,-5 1,-7 0,-4 -1,-7 -3,-10 -3,-2 -6,-4 -10,-4zm88 -17c1,0 2,0 3,1 0,1 1,2 1,3 0,1 -1,2 -1,2 -1,1 -2,1 -3,1 -1,0 -2,0 -2,-1 -1,0 -1,-1 -1,-2 0,-1 0,-2 1,-3 0,-1 1,-1 2,-1zm-2 14l4 0 0 34 -4 0 0 -34zm76 -13l5 0 0 13 7 0 0 4 -7 0 0 30 -5 0 0 -30 -5 0 0 -4 5 0 0 -13zm79 -1c1,0 2,0 3,1 0,1 1,2 1,3 0,1 -1,2 -1,2 -1,1 -2,1 -3,1 -1,0 -2,0 -2,-1 -1,0 -2,-1 -2,-2 0,-1 1,-2 2,-3 0,-1 1,-1 2,-1zm-2 14l4 0 0 34 -4 0 0 -34zm88 -1c6,0 10,2 13,6 4,3 5,7 5,12 0,5 -2,9 -5,12 -3,4 -7,5 -13,5 -5,0 -9,-1 -12,-5 -3,-3 -5,-7 -5,-12 0,-5 1,-9 5,-12 3,-4 7,-6 12,-6zm0 4c-3,0 -6,2 -9,4 -2,3 -4,6 -4,10 0,2 1,5 2,7 1,2 3,3 5,5 2,1 4,1 6,1 3,0 5,0 7,-1 2,-2 4,-3 5,-5 1,-2 2,-5 2,-7 0,-4 -2,-7 -4,-10 -3,-2 -6,-4 -10,-4zm85 -3l5 0 0 6c1,-2 3,-4 5,-5 3,-1 5,-2 7,-2 3,0 5,1 7,2 2,1 3,3 4,5 1,2 2,6 2,10l0 18 -5 0 0 -16c0,-4 0,-7 0,-8 -1,-2 -2,-4 -3,-5 -1,-1 -3,-2 -6,-2 -2,0 -5,1 -7,3 -2,1 -3,4 -4,6 0,2 0,5 0,9l0 13 -5 0 0 -34z"/>
  <path class="fil7" d="M138 161c0,0 704,12 1436,0l-1436 0z"/>
 </g>
</svg>
