<svg width="25" height="25" viewBox="0 0 25 25" fill="none" xmlns="http://www.w3.org/2000/svg">
    <g clip-path="url(#clip0)">
        <path fill-rule="evenodd" clip-rule="evenodd" d="M5.08928 7.6727C5.98994 7.6727 6.72006 6.94257 6.72006 6.04192C6.72006 5.14126 5.98994 4.41113 5.08928 4.41113C4.18862 4.41113 3.4585 5.14126 3.4585 6.04192C3.4585 6.94257 4.18862 7.6727 5.08928 7.6727ZM5.08928 9.6727C7.09451 9.6727 8.72006 8.04714 8.72006 6.04192C8.72006 4.03669 7.09451 2.41113 5.08928 2.41113C3.08405 2.41113 1.4585 4.03669 1.4585 6.04192C1.4585 8.04714 3.08405 9.6727 5.08928 9.6727Z" fill="black"/>
        <path fill-rule="evenodd" clip-rule="evenodd" d="M14.3297 8.31864C13.9493 8.93022 13.86 9.68325 13.86 10.1168L13.86 20.6423C13.86 21.1013 13.6803 21.5444 13.455 21.9079C13.2194 22.2881 12.8867 22.659 12.4735 22.9839C11.6406 23.6387 10.4498 24.131 8.9647 24.131C7.47573 24.131 6.31562 23.6358 5.50989 22.9674C4.749 22.3361 4.22807 21.4766 4.18693 20.6948C4.18601 20.6773 4.18555 20.6598 4.18555 20.6423L4.18555 11.0628H6.18555L6.18555 20.5979C6.18763 20.6093 6.19259 20.6317 6.20398 20.6652C6.22242 20.7194 6.25379 20.7908 6.30309 20.8747C6.40202 21.0432 6.56036 21.2402 6.7869 21.4281C7.2311 21.7967 7.93873 22.131 8.9647 22.131C9.9945 22.131 10.7514 21.7937 11.2374 21.4116C11.4836 21.218 11.6532 21.0186 11.755 20.8543C11.8463 20.7071 11.8585 20.6297 11.8599 20.6299C11.8599 20.6299 11.8599 20.6299 11.8599 20.6299L11.86 10.1168C11.86 9.50234 11.9722 8.32198 12.6316 7.26216C13.3368 6.12852 14.5995 5.25 16.6162 5.25C18.6817 5.25 19.9171 6.2503 20.5793 7.40879C21.1988 8.49268 21.291 9.65496 21.291 10.1168V15.7281H19.291V10.1168C19.291 9.83635 19.2224 9.06525 18.8429 8.4013C18.506 7.81197 17.9041 7.25 16.6162 7.25C15.2797 7.25 14.6643 7.78089 14.3297 8.31864Z" fill="black"/>
        <path fill-rule="evenodd" clip-rule="evenodd" d="M20.3598 22.1859C21.2604 22.1859 21.9906 21.4558 21.9906 20.5551C21.9906 19.6544 21.2604 18.9243 20.3598 18.9243C19.4591 18.9243 18.729 19.6544 18.729 20.5551C18.729 21.4558 19.4591 22.1859 20.3598 22.1859ZM20.3598 24.1859C22.365 24.1859 23.9906 22.5603 23.9906 20.5551C23.9906 18.5499 22.365 16.9243 20.3598 16.9243C18.3546 16.9243 16.729 18.5499 16.729 20.5551C16.729 22.5603 18.3546 24.1859 20.3598 24.1859Z" fill="black"/>
    </g>
    <defs>
        <clipPath id="clip0">
            <rect width="24" height="24" fill="white" transform="translate(0.724609 0.89502)"/>
        </clipPath>
    </defs>
</svg>

