<svg width="48" height="48" viewBox="0 0 48 48" fill="none" xmlns="http://www.w3.org/2000/svg">
<path fill-rule="evenodd" clip-rule="evenodd" d="M7.32599 15.8109C7.32599 14.8444 8.10949 14.0609 9.07599 14.0609H38.9334C39.8999 14.0609 40.6834 14.8444 40.6834 15.8109V43.279C40.6834 44.2455 39.8999 45.029 38.9334 45.029H33.6812C32.7147 45.029 31.9312 44.2455 31.9312 43.279V39.0028H17.9921L17.9976 43.3167C17.9982 43.7812 17.8141 44.2269 17.4858 44.5556C17.1576 44.8842 16.7121 45.0689 16.2476 45.0689H9.07599C8.10949 45.0689 7.32599 44.2854 7.32599 43.3189V15.8109ZM10.826 17.5609V41.5689H14.4954L14.4899 37.2551C14.4893 36.7906 14.6734 36.3449 15.0016 36.0162C15.3299 35.6875 15.7753 35.5028 16.2399 35.5028H33.6812C34.6477 35.5028 35.4312 36.2863 35.4312 37.2528V41.529H37.1834V17.5609H10.826Z" fill="white"/>
<path fill-rule="evenodd" clip-rule="evenodd" d="M22.8962 3.26022C23.5031 2.82379 24.3203 2.82108 24.9301 3.25349L45.6043 17.913L43.5799 20.7681L23.925 6.83137L4.43903 20.8433L2.39569 18.0017L22.8962 3.26022Z" fill="white"/>
<path fill-rule="evenodd" clip-rule="evenodd" d="M38.7286 26.1292H9.28085V22.6292H38.7286V26.1292Z" fill="white"/>
<path fill-rule="evenodd" clip-rule="evenodd" d="M20.3789 30.2069C20.3789 29.2404 21.1624 28.4569 22.1289 28.4569L25.8804 28.4569C26.8469 28.4569 27.6304 29.2404 27.6304 30.2069C27.6304 31.1734 26.8469 31.9569 25.8804 31.9569L22.1289 31.9569C21.1624 31.9569 20.3789 31.1734 20.3789 30.2069Z" fill="white"/>
</svg>
