<svg width="43" height="28" viewBox="0 0 43 28" fill="none" xmlns="http://www.w3.org/2000/svg">
<path d="M31.2124 0H4.48517C2.38517 0 0.666992 1.78 0.666992 4V22H4.48517C4.48517 25.32 7.04336 28 10.2124 28C13.3815 28 15.9397 25.32 15.9397 22H27.3943C27.3943 25.32 29.9524 28 33.1215 28C36.2906 28 38.8488 25.32 38.8488 22H42.667V12L31.2124 0ZM27.3943 4H29.3034L35.0306 10H27.3943V4ZM15.9397 4H23.5761V10H15.9397V4ZM4.48517 4H12.1215V10H4.48517V4ZM10.2124 24.5C8.89517 24.5 7.82608 23.38 7.82608 22C7.82608 20.62 8.89517 19.5 10.2124 19.5C11.5297 19.5 12.5988 20.62 12.5988 22C12.5988 23.38 11.5297 24.5 10.2124 24.5ZM33.1215 24.5C31.8043 24.5 30.7352 23.38 30.7352 22C30.7352 20.62 31.8043 19.5 33.1215 19.5C34.4388 19.5 35.5079 20.62 35.5079 22C35.5079 23.38 34.4388 24.5 33.1215 24.5ZM38.8488 18H37.3597C36.3097 16.78 34.8015 16 33.1215 16C31.4415 16 29.9334 16.78 28.8834 18H14.4506C13.4006 16.78 11.9115 16 10.2124 16C8.51336 16 7.02426 16.78 5.97426 18H4.48517V14H38.8488V18Z" fill="white"/>
</svg>
