<svg width="24" height="24" viewBox="0 0 24 24" fill="none" xmlns="http://www.w3.org/2000/svg">
<g clip-path="url(#clip0_1854_53977)">
<path d="M15.614 6.30392L11.2653 16.7055L9.89346 13.1699L9.57527 12.3426L8.74795 12.0244L5.21242 10.6526L15.614 6.30392ZM19.3404 2.57747L1.10413 10.2072L1.10413 11.2112L8.0267 13.8912L10.7066 20.8138H11.7107L19.3404 2.57747Z" fill="black"/>
<path fill-rule="evenodd" clip-rule="evenodd" d="M19 17V15H18V17H16V18H18V20H19V18H21V17H19V17ZM18.5 13L20 15H17L18.5 13V13ZM14 17.5L16 16V19L14 17.5V17.5ZM23 17.5L21 19V16L23 17.5V17.5ZM18.5 22L20 20H17L18.5 22V22Z" fill="black"/>
</g>
<defs>
<clipPath id="clip0_1854_53977">
<rect width="24" height="24" fill="white"/>
</clipPath>
</defs>
</svg>
