<svg width="41" height="30" viewBox="0 0 41 30" fill="none" xmlns="http://www.w3.org/2000/svg">
<path d="M33.3943 18.75V3.75C33.3943 1.6875 31.7579 0 29.7579 0H4.30336C2.30336 0 0.666992 1.6875 0.666992 3.75V18.75C0.666992 20.8125 2.30336 22.5 4.30336 22.5H29.7579C31.7579 22.5 33.3943 20.8125 33.3943 18.75ZM29.7579 18.75H4.30336V3.75H29.7579V18.75ZM17.0306 5.625C14.0124 5.625 11.5761 8.1375 11.5761 11.25C11.5761 14.3625 14.0124 16.875 17.0306 16.875C20.0488 16.875 22.4852 14.3625 22.4852 11.25C22.4852 8.1375 20.0488 5.625 17.0306 5.625ZM40.667 5.625V26.25C40.667 28.3125 39.0306 30 37.0306 30H6.12154C6.12154 28.125 6.12154 28.3125 6.12154 26.25H37.0306V5.625C39.0306 5.625 38.8488 5.625 40.667 5.625Z" fill="white"/>
</svg>
