<svg width="39" height="28" viewBox="0 0 39 28" fill="none" xmlns="http://www.w3.org/2000/svg">
<path fill-rule="evenodd" clip-rule="evenodd" d="M3.70796 3.5C3.70796 1.567 5.25462 0 7.16251 0H31.3443C33.2522 0 34.7989 1.567 34.7989 3.5V17.5C34.7989 19.433 33.2522 21 31.3443 21H7.16251C5.25462 21 3.70796 19.433 3.70796 17.5V3.5ZM7.16251 3.5H31.3443V17.5H7.16251V3.5Z" fill="white"/>
<path d="M1.98069 24.5C1.02674 24.5 0.253418 25.2835 0.253418 26.25C0.253418 27.2165 1.02674 28 1.98069 28H36.5261C37.4801 28 38.2534 27.2165 38.2534 26.25C38.2534 25.2835 37.4801 24.5 36.5261 24.5H1.98069Z" fill="white"/>
</svg>
