<svg width="48" height="48" viewBox="0 0 48 48" fill="none" xmlns="http://www.w3.org/2000/svg">
<path fill-rule="evenodd" clip-rule="evenodd" d="M41.7411 6.77551C42.1421 6.77056 42.5284 6.92639 42.8137 7.20821C43.099 7.49003 43.2596 7.87436 43.2596 8.2754C43.2596 14.3045 41.9088 18.7983 39.7776 22.1205C37.6449 25.445 34.7982 27.4909 31.9826 28.733C30.2265 29.5078 28.4795 29.9718 26.913 30.2451V37.8353H34.7067C35.3745 37.8353 35.9159 38.594 35.9159 39.53C35.9159 40.4659 35.3745 41.2247 34.7067 41.2247H10.5212C9.85335 41.2247 9.31194 40.4659 9.31194 39.53C9.31194 38.594 9.85335 37.8353 10.5212 37.8353H17.8413V30.1876C16.3411 29.8683 14.6954 29.3361 13.088 28.4621C10.9055 27.2754 8.79605 25.4589 7.24212 22.7178C5.69134 19.9823 4.74042 16.4086 4.7404 11.7733C4.7404 11.3722 4.90099 10.9879 5.1863 10.7061C5.47162 10.4242 5.85791 10.2684 6.25891 10.2734C14.1499 10.3707 18.9273 12.8512 21.7163 16.1442C22.9275 14.0317 24.7046 12.0059 27.2794 10.3803C30.6741 8.23707 35.3524 6.85435 41.7411 6.77551ZM23.913 37.8353V30.5815C23.6881 30.5931 23.4727 30.6011 23.2676 30.6063C22.7964 30.6365 21.939 30.6677 20.8413 30.5976V37.8353H23.913ZM23.3196 19.7783C23.3337 19.7404 23.3479 19.7025 23.3623 19.6646L23.3645 19.6589C23.4052 19.552 23.4473 19.4451 23.4908 19.3382C24.4392 17.0105 26.0745 14.6888 28.8809 12.917C31.4477 11.2965 35.0798 10.0824 40.2263 9.82333C40.0177 14.5833 38.8468 18.0154 37.2525 20.5007C35.4918 23.2453 33.1473 24.9402 30.7717 25.9883C28.3826 27.0423 25.9703 27.4369 24.1366 27.5628C23.4271 27.6115 22.8114 27.6195 22.3267 27.6113C22.2894 27.1679 22.2597 26.6138 22.2604 25.978C22.2604 25.9356 22.2606 25.8929 22.2609 25.8498C22.2735 24.162 22.5031 21.9784 23.3196 19.7783ZM20.3114 19.2888C18.5186 16.4559 14.9758 13.7516 7.78135 13.3278C7.96639 16.7557 8.76298 19.3175 9.85192 21.2383C11.0964 23.4335 12.769 24.8738 14.5211 25.8265C16.1439 26.7089 17.8363 27.1732 19.3041 27.41L19.3027 27.3863C19.2769 26.9676 19.2597 26.4917 19.2604 25.9698C19.2605 25.9227 19.2607 25.8753 19.261 25.8275C19.2691 24.7374 19.3561 23.4417 19.6087 22.0443C19.7689 21.1579 19.9958 20.2305 20.3114 19.2888Z" fill="white"/>
<path fill-rule="evenodd" clip-rule="evenodd" d="M41.7349 6.27554C42.2696 6.26894 42.7846 6.47672 43.1651 6.85248C43.5455 7.22824 43.7596 7.74069 43.7596 8.2754C43.7596 14.3802 42.3912 18.9724 40.1984 22.3905C38.0037 25.8116 35.0733 27.916 32.1844 29.1905C30.5382 29.9167 28.9029 30.3754 27.413 30.6618V37.3353H34.7067C35.2442 37.3353 35.6835 37.6414 35.9688 38.0412C36.2547 38.442 36.4159 38.9699 36.4159 39.53C36.4159 40.09 36.2547 40.618 35.9688 41.0187C35.6835 41.4185 35.2442 41.7247 34.7067 41.7247H10.5212C9.98366 41.7247 9.54437 41.4185 9.25912 41.0187C8.97316 40.618 8.81194 40.09 8.81194 39.53C8.81194 38.9699 8.97316 38.442 9.25912 38.0412C9.54437 37.6414 9.98366 37.3353 10.5212 37.3353H17.3413V30.5882C15.9121 30.2539 14.3659 29.7261 12.8492 28.9014C10.595 27.6756 8.41267 25.7965 6.80715 22.9644C5.20583 20.1398 4.24042 16.4775 4.2404 11.7733C4.2404 11.2385 4.45451 10.7261 4.83494 10.3503C5.21536 9.97458 5.73041 9.7668 6.26508 9.7734C13.8556 9.86708 18.6828 12.1411 21.6378 15.304C22.8713 13.3412 24.6046 11.4777 27.0125 9.95751C30.5035 7.75352 35.2779 6.35523 41.7349 6.27554ZM42.4623 7.56394C42.2721 7.37606 42.0146 7.27217 41.7472 7.27547C35.4269 7.35347 30.8448 8.72061 27.5463 10.8031C25.0453 12.3821 23.3237 14.346 22.1501 16.3929C22.069 16.5343 21.9241 16.6273 21.7618 16.6422C21.5995 16.657 21.4401 16.5918 21.3348 16.4674C18.6612 13.3107 14.0366 10.8694 6.25274 10.7733C5.98541 10.77 5.72788 10.8739 5.53767 11.0618C5.34746 11.2497 5.2404 11.5059 5.2404 11.7733C5.24042 16.3398 6.17684 19.8249 7.67709 22.4712C9.17942 25.1213 11.2161 26.8751 13.3269 28.0228C14.8837 28.8694 16.4822 29.3871 17.9453 29.6985C18.1762 29.7476 18.3413 29.9515 18.3413 30.1876V37.8353C18.3413 38.1114 18.1174 38.3353 17.8413 38.3353H10.5212C10.3909 38.3353 10.2255 38.4084 10.0731 38.6221C9.92142 38.8347 9.81194 39.1541 9.81194 39.53C9.81194 39.9059 9.92142 40.2253 10.0731 40.4379C10.2255 40.6515 10.3909 40.7247 10.5212 40.7247H34.7067C34.837 40.7247 35.0023 40.6515 35.1547 40.4379C35.3065 40.2253 35.4159 39.9059 35.4159 39.53C35.4159 39.1541 35.3065 38.8347 35.1547 38.6221C35.0023 38.4084 34.837 38.3353 34.7067 38.3353H26.913C26.6369 38.3353 26.413 38.1114 26.413 37.8353V30.2451C26.413 30.0021 26.5877 29.7943 26.8271 29.7525C28.362 29.4848 30.0687 29.0309 31.7808 28.2756C34.5231 27.0657 37.2861 25.0783 39.3567 21.8506C41.4264 18.6243 42.7596 14.2288 42.7596 8.2754C42.7596 8.00804 42.6525 7.75182 42.4623 7.56394ZM40.5787 9.46863C40.6786 9.56785 40.732 9.70458 40.7258 9.84522C40.514 14.678 39.323 18.1991 37.6733 20.7706C35.8506 23.6119 33.4225 25.3653 30.9735 26.4457C28.5156 27.5301 26.0422 27.9332 24.1708 28.0616C23.4455 28.1114 22.8155 28.1196 22.3183 28.1112C22.0617 28.1069 21.85 27.909 21.8285 27.6532C21.7902 27.1974 21.7597 26.629 21.7604 25.9775C21.7604 25.9341 21.7606 25.8902 21.7609 25.8461C21.7738 24.1195 22.0084 21.8745 22.8508 19.6043C22.8654 19.5652 22.88 19.5262 22.8948 19.4872C22.8949 19.4871 22.8948 19.4874 22.8948 19.4872L22.8968 19.4821L22.8972 19.481C22.9393 19.3705 22.9828 19.26 23.0278 19.1496C24.0099 16.7388 25.7077 14.3291 28.614 12.4943C31.2682 10.8186 34.9881 9.58635 40.2012 9.32396C40.3418 9.31689 40.4789 9.36941 40.5787 9.46863ZM39.6978 10.3547C34.9126 10.6668 31.5362 11.832 29.1478 13.3398C26.4413 15.0486 24.8684 17.2821 23.9539 19.5269C23.9119 19.6298 23.8714 19.7328 23.8321 19.8359C23.832 19.8362 23.8322 19.8356 23.8321 19.8359L23.8297 19.8423C23.8157 19.8791 23.8019 19.9157 23.7884 19.9523C22.9979 22.0823 22.7732 24.2045 22.7609 25.8535C22.7606 25.8955 22.7604 25.9372 22.7604 25.9785C22.76 26.3962 22.773 26.7775 22.7926 27.1136C23.1754 27.1111 23.6162 27.0973 24.1023 27.064C25.8984 26.9407 28.2496 26.5545 30.5699 25.5308C32.8721 24.5151 35.1329 22.8788 36.8317 20.2307C38.3094 17.9271 39.4292 14.7531 39.6978 10.3547ZM7.42867 12.9734C7.52961 12.8729 7.66859 12.8203 7.81075 12.8287C15.1362 13.2602 18.8402 16.0292 20.7339 19.0215C20.8143 19.1486 20.8333 19.3051 20.7855 19.4477C20.4783 20.3642 20.2572 21.2679 20.1007 22.1332C19.8541 23.4976 19.7689 24.7643 19.761 25.8312C19.7607 25.878 19.7605 25.9244 19.7604 25.9704C19.7597 26.481 19.7765 26.9463 19.8017 27.3554C19.8017 27.3554 19.8017 27.3553 19.8017 27.3554L19.8032 27.3791C19.8126 27.5308 19.7525 27.6784 19.6399 27.7805C19.5273 27.8825 19.3745 27.9278 19.2245 27.9036C17.7171 27.6604 15.9673 27.182 14.2823 26.2658C12.4584 25.2741 10.713 23.7711 9.41695 21.4849C8.28417 19.4867 7.47061 16.8474 7.28208 13.3548C7.2744 13.2126 7.32772 13.0738 7.42867 12.9734ZM18.7743 26.8065C18.7652 26.5429 18.76 26.2632 18.7604 25.9692C18.7605 25.9211 18.7607 25.8726 18.761 25.8237C18.7693 24.7105 18.8582 23.3857 19.1167 21.9554C19.2677 21.12 19.4767 20.2478 19.7617 19.3602C18.0774 16.8272 14.8293 14.3728 8.31729 13.8656C8.55161 16.9442 9.30116 19.253 10.2869 20.9917C11.4798 23.096 13.0796 24.4736 14.76 25.3873C16.1027 26.1174 17.5005 26.5525 18.7743 26.8065ZM24.2574 30.219C24.3567 30.3134 24.413 30.4444 24.413 30.5815V37.8353C24.413 38.1114 24.1892 38.3353 23.913 38.3353H20.8413C20.5651 38.3353 20.3413 38.1114 20.3413 37.8353V30.5976C20.3413 30.4595 20.3984 30.3275 20.4992 30.233C20.5999 30.1384 20.7352 30.0898 20.8731 30.0986C21.9454 30.167 22.781 30.1365 23.2356 30.1073C23.2421 30.1069 23.2485 30.1066 23.255 30.1065C23.4558 30.1014 23.6669 30.0935 23.8873 30.0822C24.0242 30.0751 24.158 30.1246 24.2574 30.219ZM23.413 31.1024C23.3716 31.1037 23.3306 31.1049 23.2899 31.1059C22.881 31.1319 22.2034 31.1576 21.3413 31.1239V37.3353H23.413V31.1024Z" fill="white"/>
</svg>
