<svg width="39" height="39" viewBox="0 0 39 39" fill="none" xmlns="http://www.w3.org/2000/svg">
<path d="M17.3534 10H21.1534V13.8H17.3534V10ZM17.3534 17.6H21.1534V29H17.3534V17.6ZM19.2534 0.5C8.76542 0.5 0.253418 9.012 0.253418 19.5C0.253418 29.988 8.76542 38.5 19.2534 38.5C29.7414 38.5 38.2534 29.988 38.2534 19.5C38.2534 9.012 29.7414 0.5 19.2534 0.5ZM19.2534 34.7C10.8744 34.7 4.05342 27.879 4.05342 19.5C4.05342 11.121 10.8744 4.3 19.2534 4.3C27.6324 4.3 34.4534 11.121 34.4534 19.5C34.4534 27.879 27.6324 34.7 19.2534 34.7Z" fill="white"/>
</svg>
