<svg width="37" height="34" viewBox="0 0 37 34" fill="none" xmlns="http://www.w3.org/2000/svg">
<path fill-rule="evenodd" clip-rule="evenodd" d="M27.2534 5.36842H32.6534C34.6416 5.36842 36.2534 6.97077 36.2534 8.94737V30.4211C36.2534 32.3976 34.6416 34 32.6534 34H3.85342C1.86519 34 0.253418 32.3976 0.253418 30.4211V8.94737C0.253418 6.97077 1.86519 5.36842 3.85342 5.36842H9.25342C9.25342 2.40352 11.6711 0 14.6534 0H21.8534C24.8358 0 27.2534 2.40352 27.2534 5.36842ZM21.8534 3.57895H14.6534C13.6593 3.57895 12.8534 4.38012 12.8534 5.36842H23.6534C23.6534 4.38012 22.8475 3.57895 21.8534 3.57895ZM32.6534 8.94737H3.85342V12.5263H32.6534V8.94737ZM3.85342 30.4211V16.1053H9.25342V19.6842H16.4534V16.1053H20.0534V19.6842H27.2534V16.1053H32.6534V30.4211H3.85342Z" fill="white"/>
</svg>
