<svg width="29" height="36" viewBox="0 0 29 36" fill="none" xmlns="http://www.w3.org/2000/svg">
<path fill-rule="evenodd" clip-rule="evenodd" d="M22.667 8C22.667 12.4183 19.0853 16 14.667 16C10.2487 16 6.66699 12.4183 6.66699 8C6.66699 3.58172 10.2487 0 14.667 0C19.0853 0 22.667 3.58172 22.667 8ZM18.667 8C18.667 10.2091 16.8761 12 14.667 12C12.4579 12 10.667 10.2091 10.667 8C10.667 5.79086 12.4579 4 14.667 4C16.8761 4 18.667 5.79086 18.667 8Z" fill="white"/>
<path d="M24.667 24C24.667 22.8954 23.7716 22 22.667 22H6.66699C5.56242 22 4.66699 22.8954 4.66699 24V36H0.666992V24C0.666992 20.6863 3.35328 18 6.66699 18H22.667C25.9807 18 28.667 20.6863 28.667 24V36H24.667V24Z" fill="white"/>
</svg>
