<?xml version="1.0" encoding="UTF-8"?>
<!DOCTYPE svg PUBLIC "-//W3C//DTD SVG 1.1//EN" "http://www.w3.org/Graphics/SVG/1.1/DTD/svg11.dtd">
<!-- Creator: CorelDRAW X5 -->
<svg xmlns="http://www.w3.org/2000/svg" xml:space="preserve" width="413px" height="413px" style="shape-rendering:geometricPrecision; text-rendering:geometricPrecision; image-rendering:optimizeQuality; fill-rule:evenodd; clip-rule:evenodd"
viewBox="0 0 100.353 100.469"
 xmlns:xlink="http://www.w3.org/1999/xlink">
 <defs>
  <style type="text/css">
   <![CDATA[
    .fil2 {fill:#434242}
    .fil1 {fill:#D12124}
    .fil0 {fill:white}
   ]]>
  </style>
 </defs>
 <g id="Layer_x0020_1">
  <metadata id="CorelCorpID_0Corel-Layer"/>
  <g id="_259377408">
   <g>
    <path id="_259377528" class="fil0" d="M46.3398 0.153551c-26.5831,2.04697 -48.2539,24.9092 -46.2055,53.9738 1.86013,26.3925 25.1276,48.3825 53.9238,46.1903 26.4766,-2.0154 48.191,-24.8971 46.163,-53.97 -1.83458,-26.2998 -25.0903,-48.4112 -53.8813,-46.194z"/>
    <path id="_259377840" class="fil1" d="M46.9609 1.47524c-7.48786,0.54561 -13.4445,2.35178 -19.2462,5.34359 -3.59884,1.85611 -6.07978,3.65912 -9.04662,6.0261 -1.17273,0.935372 -2.20741,1.92269 -3.21913,3.03027 -0.988756,1.08204 -1.61703,1.57541 -2.90686,3.16 -7.89398,9.69814 -12.0195,21.5276 -11.1323,34.5244 1.76254,25.8256 24.0958,47.384 52.1136,45.4452 25.8606,-1.78981 47.3079,-24.068 45.4237,-52.0743 -0.654387,-9.72913 -4.39444,-19.4126 -10.0684,-26.5635 -5.63118,-7.09637 -12.4193,-12.4334 -21.0437,-15.7446 -6.08982,-2.33829 -13.561,-3.67978 -20.8741,-3.14709z"/>
    <path id="_259374696" class="fil0" d="M47.8498 7.03065c-13.4921,0.88371 -23.3987,7.17186 -29.4931,13.9224l-2.41635 2.85032c-9.99347,12.6417 -12.0226,31.5082 -4.37808,45.9234 1.3811,2.60463 2.53518,4.45873 4.11231,6.62854 1.68103,2.31246 3.42118,3.90222 5.22965,5.69374 6.53182,6.46954 18.5975,12.1822 31.7168,11.3947 15.3632,-0.922457 27.5796,-9.66111 34.056,-19.9766 11.5557,-18.4058 7.70599,-41.7614 -7.21692,-55.0475l-2.84257 -2.42296c-7.74358,-6.12254 -18.5579,-9.63471 -28.7678,-8.96597z"/>
   </g>
   <g>
    <path id="_259376424" class="fil2" d="M77.8793 34.973l-3.47112 -0.657258c0.954602,1.42559 1.53379,2.40172 1.13054,2.80612l-2.44534 2.45223c4.65591,0 4.11202,0.400095 3.28657,3.94355l2.77885 -2.44419 2.19363 2.70796c0.0588375,0.0766322 0.179383,0.271226 0.285577,0.393494l0.10275 -3.9025 3.84108 0.616215 -2.14886 -2.95766 2.80612 -1.64343 -3.28629 -0.657258 0.657258 -3.94383 -3.06041 2.48552 -1.49533 -1.87333c-0.756851,-0.761443 -0.359913,-0.536713 -1.35986,-1.26917l0.184836 3.94355zm-1.24936 -2.95594c-1.04013,-1.78866 -3.34426,-4.87232 -8.27284,-6.20147 -6.47356,-1.74618 -11.4084,2.58426 -12.5134,2.72862 -1.68476,0.220138 -4.77875,-2.29724 -6.05079,0.100741 -1.36733,2.57852 6.70546,7.63624 9.43322,6.83175 3.05467,-0.900931 0.391771,-3.63443 -0.59268,-5.10451 2.73121,-1.82913 5.75574,-3.39994 9.79687,-1.94078 3.51676,1.26974 5.81659,3.62123 6.84552,4.81147 1.13685,1.31509 1.93331,-0.229036 1.35412,-1.22583z"/>
    <path id="_259375152" class="fil2" d="M42.8564 31.3578c0.848408,0 1.68304,0.0668738 2.50648,0.156709 1.51054,0.164745 -1.71174,2.22147 -1.12738,3.93666 0.857592,2.51566 9.32674,9.37898 12.0447,6.7333 0.251136,-0.244534 3.19875,-3.41602 3.34168,-3.24525 3.18182,3.79803 5.09532,8.77138 5.0893,14.2734 -0.0134896,12.07 -9.78481,21.8545 -21.8548,21.8545 -12.07,0 -21.8545,-9.78453 -21.8545,-21.8545 0,-12.07 9.78453,-21.8548 21.8545,-21.8548zm-6.5941 7.72149l-1.27347 -2.30069c1.44539,-1.36819 3.32016,-1.87735 5.42252,-1.93073l0.246543 2.83453c-2.15776,-0.101315 -3.44328,0.511168 -4.39559,1.39689zm-10.4343 17.6234c-1.39631,-7.66121 0.369672,-13.9474 6.53182,-18.3217l1.80731 2.05386c-5.46442,4.33618 -6.70977,9.9596 -5.7101,16.2678l-2.62903 0z"/>
    <path id="_260774424" class="fil2" d="M46.5789 33.0919c0.389762,-1.00655 0.716956,-1.33949 1.4695,-2.18617 2.56158,3.05955 5.75,5.45868 10.3936,6.32661 -0.650369,1.21234 -1.36991,2.28691 -2.17813,3.18325 -0.700309,0.777229 -2.48438,0.479884 -3.3988,0.13834 -2.37215,-0.888876 -4.48801,-2.4551 -6.40439,-4.54512 -0.813966,-0.887728 -0.346137,-1.71691 0.118249,-2.9169z"/>
   </g>
  </g>
 </g>
</svg>
