<?xml version="1.0" encoding="UTF-8"?>
<!DOCTYPE svg PUBLIC "-//W3C//DTD SVG 1.1//EN" "http://www.w3.org/Graphics/SVG/1.1/DTD/svg11.dtd">
<!-- Creator: CorelDRAW X5 -->
<svg xmlns="http://www.w3.org/2000/svg" xml:space="preserve" width="413px" height="413px" style="shape-rendering:geometricPrecision; text-rendering:geometricPrecision; image-rendering:optimizeQuality; fill-rule:evenodd; clip-rule:evenodd"
viewBox="0 0 13.879 13.8951"
 xmlns:xlink="http://www.w3.org/1999/xlink">
 <defs>
  <style type="text/css">
   <![CDATA[
    .fil2 {fill:#434242}
    .fil1 {fill:#D12124}
    .fil3 {fill:#FEFEFE}
    .fil0 {fill:white}
   ]]>
  </style>
 </defs>
 <g id="Layer_x0020_1">
  <metadata id="CorelCorpID_0Corel-Layer"/>
  <g id="_255978424">
   <g>
    <path id="_260774040" class="fil0" d="M6.40892 0.0212366c-3.67651,0.283101 -6.67364,3.44501 -6.39034,7.46471 0.25726,3.65015 3.47522,6.69142 7.45781,6.38824 3.66178,-0.278735 6.66495,-3.44334 6.38447,-7.4642 -0.253727,-3.63733 -3.47006,-6.69539 -7.45193,-6.38875z"/>
    <path id="_261860200" class="fil1" d="M6.49482 0.20403c-1.03559,0.0754593 -1.85941,0.325257 -2.6618,0.739033 -0.49773,0.256704 -0.840849,0.506065 -1.25117,0.833426 -0.162192,0.129364 -0.305291,0.265914 -0.445214,0.419095 -0.136748,0.149648 -0.223639,0.217883 -0.402026,0.437037 -1.09176,1.34128 -1.66233,2.97733 -1.53963,4.77481 0.243764,3.57175 3.33251,6.55333 7.20745,6.28519 3.5766,-0.247535 6.54281,-3.32866 6.28221,-7.20202 -0.0905035,-1.34556 -0.607763,-2.68482 -1.39248,-3.67381 -0.778807,-0.981447 -1.71762,-1.71957 -2.9104,-2.17752 -0.842238,-0.323391 -1.87553,-0.508923 -2.88694,-0.43525z"/>
    <path id="_260249552" class="fil0" d="M6.61775 0.972357c-1.866,0.122219 -3.2361,0.991887 -4.07897,1.9255l-0.334188 0.394206c-1.38212,1.74838 -1.66276,4.35766 -0.6055,6.35132 0.19101,0.360228 0.350622,0.616654 0.568743,0.916745 0.232491,0.319819 0.473159,0.539687 0.723274,0.78746 0.903368,0.894754 2.57209,1.68483 4.38652,1.57591 2.12477,-0.127578 3.81433,-1.33616 4.71003,-2.76282 1.59818,-2.54557 1.06576,-5.77571 -0.998119,-7.61321l-0.393135 -0.335101c-1.07096,-0.846764 -2.56661,-1.33251 -3.97866,-1.24002z"/>
   </g>
   <path id="_256743720" class="fil2" d="M7.19308 7.40998c-0.329187,0.290445 -0.70041,0.403535 -1.27368,0.416634 0.0668059,0.21697 0.0806593,0.365467 0.307513,0.424255 0.199703,0.051722 0.54441,-0.0464029 0.668456,-0.0021435 0.00924882,0.162271 -0.0382258,0.478041 -0.0577952,0.649879 -0.0237373,0.208396 -0.0541433,0.41318 -0.0869707,0.618639 -0.0160366,0.100268 -0.19367,1.06552 -0.257538,1.15912 0.0227847,-0.288579 0.0962989,-0.736691 0.129801,-1.07429 0.0383449,-0.386347 0.0604945,-0.741136 0.0492212,-1.1328 -0.0453311,-0.0104397 -0.236937,0.00583509 -0.311165,0.00170686 -0.0721249,-0.00400915 -0.225981,-0.03509 -0.266191,-0.0315175l-0.3717 2.29621 2.98284 -0.0209587c0.0969737,-0.943658 0.128848,-1.50446 0.330616,-2.41632 0.0207999,-0.094076 0.0603357,-0.212564 0.0723631,-0.302988 -0.500469,0.0340579 -0.532065,0.0333434 -0.997801,-0.130119 0.264366,0.0131786 0.577436,0.117178 0.87582,-0.065099 0.268137,-0.163859 0.303504,-0.486575 0.379122,-0.645433 0.0121068,-0.0453708 0.0140122,-0.0846684 0.0261587,-0.1325 0.013258,-0.052238 0.0295724,-0.0801432 0.0424334,-0.135636 0.0248488,-0.107294 0.024293,-0.174418 0.05978,-0.280124 0.108485,-0.529644 0.144488,-1.04083 0.164931,-1.59735 -0.205618,0.00567632 -0.295129,0.280521 -0.37555,0.421992 -0.130317,0.229276 -0.293104,0.240549 -0.562987,0.235865 -0.184897,-0.00325495 -0.312833,0.0265953 -0.490386,0.040409 0.00643051,0.0426716 0.0625586,0.165248 0.0809371,0.223202 0.0991172,0.31315 0.06887,0.526826 0.03509,0.846367 -0.0117099,0.0552548 -0.00424731,0.0293739 -0.0104794,0.0176244 -0.0167908,-0.271153 -0.01429,-0.499 -0.105389,-0.741891 -0.0398136,-0.106103 -0.0961004,-0.194106 -0.154174,-0.264524 -0.0748639,-0.0907417 -0.192479,-0.0872089 -0.344826,-0.0832394 0.0454899,0.165645 0.0780791,0.287031 0.0636303,0.477962 -0.010003,0.131508 -0.060812,0.333077 -0.120592,0.43013l-0.0157984 0.0514044 -0.0547784 0.0974104 0.0319144 -0.124045 0.00710532 -0.0529525c0.05978,-0.317516 0.0686715,-0.826162 -0.250195,-1.01237 -0.54187,-0.316365 -0.498444,-0.158461 -0.961798,-0.376542 -0.280362,-0.132024 -0.477922,-0.090305 -0.791509,-0.0793097 -0.039893,0.125554 -0.0369159,0.191963 -0.106699,0.301797 -0.0491021,0.0773249 -0.128015,0.181801 -0.199147,0.216018 0.0542227,-0.0748242 0.119679,-0.161398 0.164732,-0.271193 0.0420365,-0.102491 0.0908211,-0.253132 0.0346533,-0.351297 -0.0983233,-0.171957 -0.0705769,-0.0504517 -0.300011,-0.139963 -0.106937,-0.0417189 -0.207563,-0.12091 -0.243407,-0.210222 0.0319541,0.0156396 0.0521983,0.0368762 0.0818501,0.0558502 0.270995,0.173148 0.469586,0.113765 0.780196,0.0181007 0.230427,-0.0710135 0.57045,-0.202561 0.720337,-0.412823 0.0840333,-0.117853 0.124442,-0.260793 0.110351,-0.442356 -0.0193709,-0.249043 -0.156317,-0.188311 -0.372176,-0.175807 -0.348955,0.0201251 -0.697909,0.0585097 -1.0419,0.0893921 -0.401589,0.0360823 -0.614987,0.0463632 -0.720575,0.41453 -0.0856608,0.298741 -0.160128,0.591369 -0.23519,0.899835 -0.0846287,0.348121 -0.178387,0.625983 0.0509678,0.888562 0.0217129,0.0248885 0.0486655,0.0502136 0.0702196,0.072641 0.396231,0.406075 0.945484,1.13129 1.35612,1.44353 0.126903,0.0964577 0.26254,0.154332 0.46653,0.131389 0.212763,-0.0239358 0.871493,-0.209071 1.09275,-0.397342 -0.00992363,0.0161557 -0.0199663,0.0323907 -0.0323907,0.0469586 -0.0130992,0.0153618 -0.040806,0.0446563 -0.0554532,0.0565647 -0.0396548,0.032351 -0.0425922,0.0106381 -0.0681952,0.0591845zm-1.96678 -3.77789l1.09855 -0.0962592c0.00952669,-0.357211 -0.226259,-0.491537 -0.583589,-0.432591 -0.290524,0.0479113 -0.518649,0.217526 -0.514957,0.52885zm3.70048 0.190137c-0.189343,0.0391388 -0.257578,0.197004 -0.302075,0.397938 -0.0428701,0.19367 -0.0794287,0.386863 -0.113566,0.582517 -0.0275877,0.158103 -0.106381,0.47173 -0.0147664,0.595537 0.0897096,0.121306 0.31831,0.203276 0.506145,0.0986409 0.141551,-0.0787539 0.19359,-0.243169 0.262143,-0.433028 0.062757,-0.173902 0.119004,-0.343318 0.167233,-0.52631 0.0709738,-0.268891 0.175489,-0.506105 -0.219908,-0.671949 -0.0771265,-0.032351 -0.193828,-0.062241 -0.285205,-0.0433464zm-2.4326 -0.292787c0.35221,-0.0138931 0.388014,0.325813 0.342206,0.577595 -0.0287785,0.158183 -0.0716486,0.220424 -0.147068,0.322558 -0.0449342,0.0609311 -0.181602,0.187954 -0.256427,0.222885 -0.00392976,0.24297 -0.0266747,0.356298 0.19097,0.45355 0.151792,0.0678379 0.397938,0.0868913 0.519125,-0.0183786 0.106183,-0.0922501 0.142821,-0.331648 0.180729,-0.462679 0.0505708,-0.174775 0.0884791,-0.347168 0.12738,-0.525595 0.0361617,-0.166122 0.083557,-0.378448 0.0997523,-0.548896 0.0399724,-0.421834 -0.575174,-0.518688 -0.821399,-0.438863 -0.180848,0.0585891 -0.237691,0.192042 -0.235269,0.417825zm1.41051 -0.0551357c-0.220821,0.0312396 -0.192479,0.118925 -0.20395,0.189303 -0.018458,0.11305 -0.0376701,0.226378 -0.0604945,0.337721 -0.0457281,0.222845 -0.0946714,0.432234 -0.151355,0.645234 -0.0585891,0.220186 -0.165685,0.434615 -0.016632,0.631699 0.095902,0.126864 0.358918,0.245233 0.583232,0.150164 0.178109,-0.075499 0.235547,-0.284332 0.271987,-0.515949 0.0332243,-0.211492 0.125038,-0.780394 0.218558,-0.965331 0.0320335,-0.0633128 0.0404884,-0.0682349 0.0148061,-0.144806 -0.0913371,-0.272225 -0.411751,-0.362609 -0.65615,-0.328036z"/>
   <path id="_256743624" class="fil3" d="M6.62386 5.10603c-0.217645,-0.0972516 -0.1949,-0.210579 -0.19097,-0.45355 0.0748242,-0.0349312 0.211492,-0.161954 0.256427,-0.222885 0.0754196,-0.102094 0.11829,-0.164375 0.147068,-0.322558 0.0450136,-0.247654 0.0111939,-0.580294 -0.325058,-0.577992l-0.000198473 0 -0.186286 0.00678776 -1.09855 0.0962989 -0.102015 0.175291c0.045093,-0.00456487 0.093044,-0.0087328 0.144012,-0.0132977 0.343993,-0.030922 0.692947,-0.0692669 1.04186,-0.0894318 0.215899,-0.0124641 0.352845,-0.0731967 0.372176,0.175847 0.0141313,0.181563 -0.0262778,0.324463 -0.110311,0.442356 -0.149887,0.210262 -0.48991,0.34181 -0.720337,0.412823 -0.31057,0.0956638 -0.509201,0.155087 -0.780236,-0.0181007 -0.0296121,-0.018974 -0.0498563,-0.0402106 -0.0818104,-0.0558502 0.0358838,0.0893524 0.13647,0.168503 0.243447,0.210222 0.229395,0.0895508 0.201648,-0.0319541 0.299972,0.139963 0.0561678,0.0981646 0.00738318,0.248845 -0.0346533,0.351297 -0.0450533,0.109795 -0.11047,0.196369 -0.164732,0.271193 0.0711326,-0.0342167 0.150006,-0.138653 0.199187,-0.216018 0.0697036,-0.109835 0.171798,-0.071212 0.211691,-0.196805 0.313587,-0.010916 0.414887,-0.00889157 0.695289,0.123093 0.463314,0.218082 0.428621,0.0776822 0.970452,0.394048 0.318866,0.186207 0.292509,0.528572 0.232729,0.846089l-0.00710532 0.0529525 -0.0319144 0.124045 0.0547784 -0.0974501 0.0157984 -0.0513647c0.05978,-0.0970531 0.110629,-0.298582 0.120552,-0.43013 0.0144885,-0.19097 0.0265159,-0.135358 -0.018974,-0.301004 0.152308,-0.00396945 0.313468,-0.0585891 0.388292,0.0321526 0.0580731,0.0704181 0.0262778,0.0325495 0.0660914,0.138653 0.0910989,0.242891 0.0885982,0.470737 0.105349,0.741891 0.00627173,0.0117893 -0.00119084,0.0376304 0.010519,-0.0175847 0.0338197,-0.31962 0.0640273,-0.533256 -0.03509,-0.846406 -0.0183786,-0.057954 -0.014687,-0.0147267 -0.0210778,-0.0573983 0.177514,-0.013774 0.394405,-0.0256824 0.579262,-0.0224274 0.269883,0.00472365 0.362689,-0.111621 0.493006,-0.340897 0.0804211,-0.141432 0.091218,-0.49503 0.296796,-0.500786l-0.268375 -0.325336c-0.0382655,0.128928 -0.0805402,0.253291 -0.126268,0.380075 -0.0685127,0.189819 -0.120632,0.354274 -0.262103,0.433028 -0.187874,0.104595 -0.416435,0.0226656 -0.506185,-0.0986409 -0.091615,-0.123807 -0.0128213,-0.437434 0.0147664,-0.595537 0.0341373,-0.195654 0.0706959,-0.388848 0.113566,-0.582517 0.0248091,-0.112097 0.057041,-0.210778 0.113526,-0.282943l-0.163383 -0.0561281c-0.00317556,0.0181801 -0.0131786,0.0351693 -0.0288182,0.0660517 -0.0935203,0.184937 -0.185294,0.753799 -0.218558,0.965331 -0.0364396,0.231578 -0.0938775,0.440411 -0.271987,0.515949 -0.224314,0.0950684 -0.48733,-0.023261 -0.583232,-0.150125 -0.149053,-0.197123 -0.0419968,-0.411553 0.016632,-0.631738 0.0566838,-0.213001 0.105627,-0.422389 0.151355,-0.645234 0.0228244,-0.111383 0.0420365,-0.224671 0.0604945,-0.337681 0.00607326,-0.0372732 0.000992363,-0.079389 0.0276274,-0.115432l-0.176641 -0.0637494c0.00154809,0.0210778 0.00130992,0.0430686 -0.00087328,0.066012 -0.0161954,0.170448 -0.0635906,0.382774 -0.099792,0.548896 -0.0388609,0.178427 -0.0767692,0.35082 -0.12734,0.525595 -0.0379083,0.131032 -0.0745463,0.37039 -0.180729,0.46264 -0.121187,0.10527 -0.367333,0.0862562 -0.519125,0.0184183z"/>
   <path id="_256743528" class="fil0" d="M5.91937 7.82661c0.573308,-0.0130595 0.944531,-0.126189 1.27372,-0.416673 0.025603,-0.0485067 0.0285404,-0.0268335 0.0681952,-0.0591448 0.0146473,-0.0119084 0.0423541,-0.0412029 0.0554532,-0.0565647 0.0124641,-0.0145282 0.0224671,-0.030803 0.0324304,-0.0469586 -0.221297,0.188311 -0.880067,0.373406 -1.09283,0.397342 -0.135835,0.0152824 -0.241343,-0.00527937 -0.334188,-0.0492212l-0.00277862 0.231221z"/>
   <path id="_256743432" class="fil0" d="M6.83758 8.8986c0.0195694,-0.171838 0.0670044,-0.487568 0.0577952,-0.649879 -0.124006,-0.0442594 -0.468753,0.0538655 -0.668456,0.00210381 -0.0469586,-0.0121465 -0.0847875,-0.0281434 -0.115829,-0.0478319l-0.0351693 0.352567 0.0188152 -0.116106c0.0402106,-0.00357251 0.194067,0.0275083 0.266191,0.0315175 0.0742288,0.00412823 0.265795,-0.0121465 0.311165,-0.00166717 0.0112732,0.391626 -0.0108763,0.746416 -0.0492212,1.13276 -0.0335022,0.337562 -0.107016,0.785713 -0.129801,1.07429 0.0638288,-0.0935997 0.241501,-1.05885 0.257538,-1.15912 0.0328274,-0.205459 0.0632334,-0.410283 0.0869707,-0.618639z"/>
   <path id="_256743384" class="fil0" d="M9.10886 7.99543l0.066925 -0.381544c-0.0463235,0.0708547 -0.106699,0.136033 -0.188906,0.186286 -0.298344,0.182277 -0.611415,0.0782776 -0.87582,0.065099 0.465736,0.163462 0.497333,0.164177 0.997801,0.130158z"/>
  </g>
 </g>
</svg>
