<svg width="24px" height="24px" viewBox="0 0 24 24" fill="none" xmlns="http://www.w3.org/2000/svg">
 <g id="layer_x0020_1">
  <rect fill="transparent" style="fill: transparent;" width="24.0024" height="24.0024"/>
  <g id="_2292103486336">
   <circle fill="#147BC1" cx="12" cy="12" r="9" style="fill: #147BC1;"/>
   <path fill="#5DB741" d="M15 7l0 1c0,0 0,0 0,1 1,0 1,0 1,0 1,0 2,0 3,0 0,0 1,0 1,0 0,0 -1,-1 -1,-1 0,-1 -1,-2 -1,-2 -1,-1 -1,-1 -1,-1 0,0 -1,0 -1,0 0,0 0,1 -1,1 0,0 0,1 0,1z" style="fill: #5DB741;"/>
   <path fill="#5DB741" d="M12 10c0,0 0,0 0,0 0,0 0,1 0,1 0,0 0,0 0,1 0,0 0,0 0,0 1,0 1,0 1,0 1,1 1,1 1,1 1,0 1,0 1,0l1 0c0,0 0,-1 0,-2 -1,0 -1,0 -1,-1 0,0 0,0 0,0 0,0 0,0 0,-1 -1,0 -1,1 -2,1 0,0 -1,0 -1,0z" style="fill: #5DB741;"/>
   <path fill="#33AA45" d="M17 12c0,0 0,1 0,1l0 0c0,0 0,0 0,0 0,0 1,0 1,0 0,0 0,0 1,1 0,0 1,0 1,0 0,0 0,0 0,-1 0,0 0,0 1,0 -1,-1 -1,-2 -1,-3 0,0 0,0 0,0 0,0 -1,0 -1,0 0,0 0,0 0,0l-1 0c0,1 0,1 -1,1 0,1 0,1 0,1l0 0c0,0 0,0 0,0z" style="fill: #33AA45;"/>
   <path fill="#5DB741" d="M4 11c0,0 0,-1 1,-1 0,0 0,0 0,0 1,0 1,0 1,0 0,0 0,0 0,-1l1 -1c0,0 0,0 0,0 0,0 1,0 1,0l-1 -1c0,0 -1,0 -1,0 -1,1 -2,1 -2,2 0,0 0,0 0,0 0,1 0,2 0,2z" style="fill: #5DB741;"/>
   <path fill="#33AA45" d="M7 18c0,0 0,0 0,0 1,0 2,1 3,1 0,-1 0,-1 1,-1 0,0 0,-1 0,-1 0,0 0,0 0,0 0,0 0,0 0,-1l-1 0c0,0 0,0 0,-1 0,1 -1,1 -2,1 0,1 0,1 0,1 -1,0 -1,0 -1,0l0 1c0,0 0,0 0,0z" style="fill: #33AA45;"/>
   <path fill="#16A148" d="M19 18c0,0 0,0 0,0 0,-1 0,-2 0,-3l1 0c0,-1 -1,-1 -2,-1 0,0 -1,0 -1,0l0 1c0,0 0,1 0,1 1,0 1,1 1,2l0 0c0,0 0,0 0,0l0 0c0,0 0,0 0,0 1,0 1,0 1,0z" style="fill: #16A148;"/>
   <path fill="#33AA45" d="M5 14c0,1 1,2 1,2 0,1 0,1 0,1l1 -1c0,0 1,0 1,0 0,0 1,-1 1,-1 0,0 1,0 1,0 0,0 -1,0 -1,0 0,-1 -1,-1 -1,-1 0,0 -1,0 -2,0 0,0 0,0 -1,0z" style="fill: #33AA45;"/>
   <path fill="#33AA45" d="M6 5c0,0 -1,1 -1,1 0,0 0,0 0,0l0 0c-1,1 -1,2 -2,2 0,0 1,0 0,0l0 0c0,0 0,0 0,0l0 0c1,0 2,-1 2,-1 1,0 2,-1 2,-1l0 -1 -1 0z" style="fill: #33AA45;"/>
   <path fill="#5DB741" d="M17 12c0,0 0,0 0,0l0 0c0,0 0,0 0,-1 1,0 1,0 1,-1l1 0c0,0 0,0 0,0 -1,0 -1,0 -1,0 0,0 -1,0 -1,0 0,-1 -1,-1 -1,-1l0 1c0,1 0,1 1,2z" style="fill: #5DB741;"/>
   <path fill="#16A148" d="M10 20c0,0 0,0 0,-1 0,0 0,0 0,0 -1,0 -2,-1 -3,-1 0,0 0,0 0,0l1 1c0,0 0,0 0,0l0 0c1,1 1,1 1,1l0 0c0,0 1,0 1,0 0,0 0,1 0,1 0,0 0,-1 0,-1 0,0 0,0 0,0z" style="fill: #16A148;"/>
   <path fill="#7CC13D" d="M13 8c0,0 -1,0 -1,0 0,0 0,0 0,1 0,0 0,0 0,0l0 0c0,0 0,0 1,0 0,0 1,0 2,0 -1,-1 -1,-1 -1,-2l0 0c0,0 0,0 -1,1 0,0 0,0 0,0z" style="fill: #7CC13D;"/>
   <path fill="#33AA45" d="M21 10c0,-1 -1,-3 -2,-4 0,0 0,0 0,0 0,0 0,0 0,0 0,0 -1,0 -1,0 0,0 0,0 0,0 1,1 2,2 2,4 0,0 0,0 1,0 0,0 0,0 0,0z" style="fill: #33AA45;"/>
   <path fill="#16A148" d="M16 16c0,0 0,0 0,0 0,0 0,0 0,1 0,0 0,0 0,1 0,0 1,0 1,0 0,0 0,-1 0,-1 0,-1 0,-1 0,-2l-1 1 0 0z" style="fill: #16A148;"/>
   <path fill="#33AA45" d="M8 5c0,0 0,1 0,1 0,0 0,0 0,0 1,-1 1,-1 2,-1 0,0 1,0 1,0 0,0 0,0 0,0 -1,-1 -2,0 -3,0z" style="fill: #33AA45;"/>
   <path fill="#33AA45" d="M3 12c0,0 0,1 0,1l1 0c0,0 0,0 0,0 0,0 0,0 -1,-1 0,0 0,-1 0,-1 0,0 0,-1 0,-1 0,0 0,0 0,0 0,0 0,1 0,1 0,0 0,1 0,1z" style="fill: #33AA45;"/>
   <path fill="#16A148" d="M6 17l-1 0c0,-1 0,-1 0,-2 -1,0 -1,0 -1,0 0,0 0,0 0,1 0,0 0,0 0,0 1,1 1,1 2,1z" style="fill: #16A148;"/>
   <path fill="#16A148" d="M16 19c0,0 0,0 0,0 0,1 1,1 1,1 0,0 0,0 0,0 0,0 0,-1 0,-1 0,0 -1,0 -1,0z" style="fill: #16A148;"/>
   <path fill="#33AA45" d="M15 14c1,0 1,0 1,1 0,0 0,0 0,0 0,0 0,0 0,1l0 0 1 -1 -1 -1 -1 0z" style="fill: #33AA45;"/>
   <path fill="#5DB741" style="fill: #5DB741;" d="M8 7c0,0 0,0 0,0 1,0 1,-1 1,-1 1,0 1,0 1,0 0,0 0,0 0,0 0,0 1,0 1,0 -1,0 -2,0 -2,0 -1,0 -1,0 -1,1l0 0z"/>
   <path fill="#16A148" style="fill: #16A148;" d="M8 21c0,0 0,0 1,0 0,0 0,0 0,0 0,0 0,0 0,0 0,0 0,0 0,0 -1,-1 -1,-1 -1,-1l0 -1c0,1 0,1 0,1 0,0 0,0 0,0 0,0 0,1 0,1z"/>
   <path fill="#33AA45" style="fill: #33AA45;" d="M21 12l0 0c0,0 0,0 0,0 0,-1 0,-1 0,-1l0 -1c0,1 0,1 0,2 0,0 0,0 0,0z"/>
   <path fill="#16A148" style="fill: #16A148;" d="M18 20c0,-1 0,-1 0,-1 1,0 1,0 1,0 0,0 -1,0 -1,0l0 1z"/>
   <path fill="black" style="fill: black;" d="M9 22c0,0 0,0 0,0 0,0 1,0 1,0 0,0 1,0 1,0 0,0 0,0 0,0 -1,0 -1,0 -1,0 0,0 0,0 0,-1 0,0 -1,1 -1,1z"/>
   <path fill="#1F191A" style="fill: #1F191A;" d="M9 22c0,0 1,-1 1,-1 0,1 1,1 1,1 0,0 -2,0 -2,0zm5 0c0,0 -1,0 -2,0 0,0 -1,-1 -2,-1 0,0 2,-1 3,-1 0,0 1,2 1,2zm3 -3c0,0 0,1 0,2 0,0 -1,1 -2,1 0,-1 -1,-2 -2,-3 1,0 3,0 4,0zm1 0c0,0 1,0 2,0 0,0 -2,1 -2,2l0 -2zm-6 0c-1,0 -1,1 -2,2 -1,-1 -3,-3 -3,-3 1,-1 2,-2 3,-3 1,1 2,3 2,4zm4 -5c1,1 1,3 1,4 -1,0 -3,0 -4,1 -1,-1 -2,-3 -2,-4 0,0 0,0 0,0 2,-1 4,-1 5,-1zm5 1c0,0 0,2 0,3 0,0 -1,0 -1,0 0,0 -2,0 -2,0 0,-1 0,-2 -1,-4 0,0 3,1 4,1zm-13 -4c1,1 1,3 2,4 -1,0 -3,1 -4,2 0,-1 -1,-3 -1,-4 0,0 3,-2 3,-2zm-5 -1c0,1 0,2 1,3 0,0 -1,1 -1,1 0,0 -1,0 0,0 0,0 0,1 0,1 0,0 0,0 0,0 0,0 0,0 0,0 0,-1 1,-1 1,-1 0,1 1,2 2,3 0,0 0,0 0,0l-1 1c0,0 0,0 0,1 0,0 0,0 0,0 1,-1 1,-1 1,-1 1,1 3,3 3,3 0,0 0,0 0,0 0,0 0,1 0,1 -1,-1 -2,-1 -3,-1 0,-1 -1,-1 -1,-1 0,-1 0,-1 -1,-1 0,-1 -1,-2 -1,-3 -1,-1 -1,-2 -1,-4 0,0 0,-1 0,-2 0,0 0,0 0,0l1 0c0,0 0,0 0,0zm12 -1c0,1 1,3 1,4 -2,0 -3,0 -5,1l-1 0c0,-1 0,-2 -1,-3 2,-1 4,-2 6,-2zm5 1c0,0 0,0 0,0 0,2 1,3 1,4 -1,0 -3,-1 -4,-1 0,0 -1,-3 -1,-4 1,0 3,1 4,1zm-12 0c-1,1 -2,2 -4,3 0,-1 0,-3 0,-4 0,0 0,0 0,0 0,0 1,-1 3,-2l1 3zm-6 0c0,-1 0,-2 1,-3 0,0 0,1 0,2 0,0 -1,1 -1,1zm9 -4c0,0 1,-1 2,-1 0,1 1,3 2,4 -3,0 -4,0 -6,1 0,-1 -1,-2 -1,-3 0,-1 0,-1 1,-1 0,0 1,0 2,0zm-8 1c0,-1 0,-1 1,-1 1,-1 1,-2 3,-3 0,1 0,2 0,3 -1,0 -3,2 -4,2 0,0 0,-1 0,-1zm16 -1c0,0 1,0 1,1l1 0c2,3 1,7 0,10 0,0 0,-1 0,-2 0,0 0,0 0,0 0,0 1,0 0,0 0,0 0,-1 0,-1 0,-1 0,-2 0,-4l0 1c0,0 0,0 1,0 0,-1 -2,-1 -2,-1 0,-2 -1,-3 -2,-4 0,0 1,0 1,0zm-2 0c1,0 2,2 3,3 0,0 -1,0 -1,0 -1,0 -2,0 -3,0 0,0 0,0 -1,0 0,-2 -1,-3 -2,-4 1,0 4,0 4,1zm1 -1c0,0 0,0 0,0 0,0 -1,-1 -1,-1 0,0 -1,0 -1,0 0,1 1,1 1,1 -2,0 -3,0 -4,0 0,0 0,0 0,0l-1 -1c0,-1 -1,-1 -1,-2 0,0 2,0 3,1 1,0 3,1 4,2 1,0 1,0 2,1 -1,-1 -2,-1 -2,-1zm-8 -2c1,1 1,1 2,2 -1,0 -3,1 -4,1 0,0 0,0 0,0 0,0 -1,-3 -1,-3 1,0 1,-1 1,-1 2,0 3,-1 5,-1 0,0 0,0 0,0 0,0 0,0 0,0 -2,0 -3,0 -5,1 -3,1 -5,3 -6,6 -2,4 -1,10 3,13 0,0 0,0 0,0 0,0 0,0 0,0 4,2 8,3 12,1 2,-1 4,-4 5,-6 2,-4 1,-8 -2,-11 0,0 -1,-1 -1,-1 -2,-1 -4,-2 -6,-2 -1,0 -2,0 -3,0 0,0 0,0 0,0 0,1 0,1 0,1z"/>
  </g>
 </g>
</svg>
