<svg width="25" height="24" viewBox="0 0 25 24" fill="none" xmlns="http://www.w3.org/2000/svg">
<g clip-path="url(#clip0_2448_55012)">
<rect x="0.132812" width="24" height="24" rx="3" fill="#C1C9B9" style="fill: #C1C9B9;"/>
<path d="M7.37872 14.8831C10.4572 13.4294 14.5045 14.8474 16.1434 15.7381L14.4334 17.3414C10.9275 14.2631 5.41921 17.1989 3.1033 19.0516H5.13417C6.30994 19.0516 7.91326 19.0516 10.051 18.3034C11.7612 17.7048 13.1864 18.5528 13.6852 19.0516C13.8277 19.4792 13.899 20.3343 13.0439 20.3343C11.975 20.3343 10.6923 20.3343 7.91326 21.1894C5.13417 22.0445 4.38596 20.3343 3.1033 20.3343C1.82065 20.3343 1.07224 22.4721 0.00355005 22.4721C-1.06514 22.4721 -0.637608 20.655 -1.27913 20.3343C-1.79234 20.0778 -1.49297 18.2322 -1.27913 17.3414C-0.816001 17.6265 0.302651 18.2179 1.07224 18.3034C2.03424 18.4103 3.53067 16.7001 7.37872 14.8831Z" fill="#A2A79B" style="fill: #A2A79B;"/>
<path d="M10.5923 20.4495C9.36339 21.576 9.14147 23.5649 9.18412 24.4185L23.0108 26.8509L25.8273 19.2973L24.9312 -2.85107H14.9451L16.4814 1.37361V3.93423V6.75073C16.4814 7.67252 15.4572 9.86605 14.9451 10.8476C14.8171 11.8291 14.4074 14.3043 13.7929 16.3527C13.0247 18.9133 12.1285 19.0413 10.5923 20.4495Z" fill="#71756C" style="fill: #71756C;"/>
<path d="M6.84399 7.40085L3.85113 12.7452L1.17932 14.9899H-1.2793V13.6003C-0.495532 12.9947 1.26439 11.5961 2.03399 10.8476C2.99598 9.91193 3.10287 9.75238 3.85113 7.40085C4.44974 5.51962 4.10055 4.30592 3.85113 3.93423L6.84399 -1.68463H9.18412L11.4401 -0.829528L9.18412 5.04931L6.84399 7.40085Z" fill="#71756C" style="fill: #71756C;"/>
<path d="M22.7117 4.71744C24.6211 3.84951 25.6049 6.38103 25.8581 7.75528C26.2922 8.87645 27.2038 11.249 27.3774 11.7698C27.5944 12.4208 26.4009 24.8979 25.8581 25.3319C25.4239 25.6791 21.1204 26.4892 19.0229 26.8509L16.961 25.8744C16.9248 25.1872 16.8742 23.5959 16.961 22.728C17.0478 21.86 17.8652 20.775 18.263 20.341C18.5163 19.907 19.3049 18.7353 20.4329 17.5201C21.561 16.3049 20.903 15.2055 20.4329 14.8077C20.0353 13.1441 19.1965 9.68663 19.0229 9.16585C18.8059 8.51486 20.3248 5.80235 22.7117 4.71744Z" fill="#555850" style="fill: #555850;"/>
<path fill-rule="evenodd" clip-rule="evenodd" d="M13.6479 2.37546C14.555 1.94764 15.6925 1.67552 17.2623 1.7359C17.8705 1.75929 18.4204 1.96381 18.8718 2.33665C19.3063 2.69551 19.5878 3.15844 19.7734 3.61476C20.1335 4.50059 20.2214 5.58619 20.2143 6.58785C20.2028 8.21598 19.9247 10.0493 19.7398 11.268C19.6956 11.5594 19.6568 11.8156 19.6281 12.0255C19.5854 12.3389 19.6421 12.8202 19.8662 13.4661C20.0844 14.095 20.4302 14.7912 20.8594 15.494C21.7258 16.9129 22.8435 18.2164 23.6794 18.9128C25.0104 20.0217 24.9661 21.7393 24.7207 22.931C24.46 24.1971 23.8726 25.4271 23.4134 26.1856L21.2748 24.8907C21.6354 24.2953 22.0853 23.334 22.2721 22.4268C22.4742 21.4451 22.2876 21.0071 22.0791 20.8335C20.9906 19.9266 19.7032 18.3976 18.7257 16.7969C18.233 15.99 17.7971 15.1296 17.5043 14.2855C17.2173 13.4583 17.0335 12.5501 17.1511 11.6877C17.1873 11.4223 17.2325 11.1222 17.2816 10.7969C17.4662 9.57369 17.7043 7.99519 17.7144 6.57024C17.7208 5.6613 17.6283 4.97658 17.4575 4.55639C17.3775 4.3597 17.3058 4.28569 17.2798 4.26418C17.2793 4.26377 17.2788 4.26333 17.2782 4.26286C17.2685 4.25461 17.2481 4.2372 17.1662 4.23405C15.9569 4.18754 15.2236 4.3964 14.7143 4.63661C14.3212 4.82199 14.0772 5.00161 13.7734 5.2252C13.6112 5.34453 13.4321 5.47638 13.2042 5.62832C12.5189 6.08515 11.9801 6.20425 11.4597 6.3083C11.4349 6.31325 11.41 6.3182 11.3848 6.32319C10.9527 6.40905 10.4604 6.50685 9.65001 6.82202C8.76807 7.165 8.46129 7.4169 8.31135 7.59576C8.14411 7.79524 8.04809 8.03451 7.8181 8.7245C7.59636 9.3897 6.82561 11.5762 5.48873 13.3978C4.81924 14.31 3.94477 15.219 2.84089 15.7634C1.6892 16.3313 0.348545 16.4687 -1.09082 15.907L-0.181964 13.578C0.569874 13.8714 1.17996 13.795 1.73518 13.5212C2.33821 13.2238 2.92684 12.6631 3.47327 11.9186C4.56821 10.4267 5.24057 8.55138 5.44639 7.93393C5.45563 7.9062 5.46493 7.87819 5.47432 7.84991C5.6656 7.27384 5.89296 6.58911 6.39553 5.98964C6.94005 5.34011 7.70186 4.89724 8.74389 4.49201C9.75782 4.0977 10.4176 3.96656 10.8966 3.87134C10.9214 3.86641 10.9457 3.86157 10.9696 3.8568C11.3845 3.77385 11.5407 3.73269 11.8174 3.54819C11.8896 3.5001 11.9839 3.43105 12.0967 3.34857C12.4638 3.08 13.0255 2.66902 13.6479 2.37546Z" fill="white" style="fill: white;"/>
</g>
<defs>
<clipPath id="clip0_2448_55012">
<rect x="0.132812" width="24" height="24" rx="3" fill="white"/>
</clipPath>
</defs>
</svg>
