<svg width="25" height="24" viewBox="0 0 25 24" fill="none" xmlns="http://www.w3.org/2000/svg">
<g clip-path="url(#clip0_2448_54992)">
<rect x="0.75" width="24" height="24" rx="3" fill="#DFDFDF" style="fill: #DFDFDF;"/>
<rect x="31.4893" y="-5.04468" width="8.44336" height="40.3838" transform="rotate(66.9721 31.4893 -5.04468)" fill="#CBE5A6" style="fill: #CBE5A6;"/>
<path fill-rule="evenodd" clip-rule="evenodd" d="M11.9028 14.3886L34.7333 4.25696L32.7052 -0.313232L7.47254 10.8844L4.67188 25.8268L9.5863 26.7479L11.9028 14.3886Z" fill="#FFF1B9" style="fill: #FFF1B9;"/>
<path fill-rule="evenodd" clip-rule="evenodd" d="M8.59931 11.7158L31.9103 1.37102L30.6934 -1.37109L5.94114 9.61331L3.2373 24.0391L6.18596 24.5918L8.59931 11.7158Z" fill="#FF3939" style="fill: #FF3939;"/>
<path fill-rule="evenodd" clip-rule="evenodd" d="M8.59985 11.7157L6.1865 24.5917L3.23785 24.039L5.94169 9.61323L30.6939 -1.37117L31.9108 1.37094L8.59985 11.7157ZM9.04288 12.0662L32.5706 1.62515L30.9481 -2.03101L5.49866 9.26281L2.6543 24.4384L6.58583 25.1753L9.04288 12.0662Z" fill="white" style="fill: white;"/>
<path fill-rule="evenodd" clip-rule="evenodd" d="M8.14665 14.1553L5.16433 13.7825L3.2373 24.0391L6.18596 24.5917L8.14665 14.1553Z" fill="#AD3838" style="fill: #AD3838;"/>
<path fill-rule="evenodd" clip-rule="evenodd" d="M13.861 15.5552L37.172 5.21038L35.9551 2.46826L11.2029 13.4527L8.49902 27.8785L11.4477 28.4311L13.861 15.5552Z" fill="#84CA50" style="fill: #84CA50;"/>
<path fill-rule="evenodd" clip-rule="evenodd" d="M13.8606 15.5551L11.4472 28.4311L8.49859 27.8784L11.2024 13.4526L35.9547 2.46818L37.1715 5.2103L13.8606 15.5551ZM14.3036 15.9055L37.8314 5.4645L36.2089 1.80835L10.7594 13.1022L7.91504 28.2777L11.8466 29.0146L14.3036 15.9055Z" fill="white" style="fill: white;"/>
</g>
<defs>
<clipPath id="clip0_2448_54992">
<rect x="0.75" width="24" height="24" rx="3" fill="white"/>
</clipPath>
</defs>
</svg>
