<svg width="24" height="24" viewBox="0 0 24 24" fill="none" xmlns="http://www.w3.org/2000/svg">
<g clip-path="url(#clip0_2444_54981)">
<rect width="24" height="24" rx="3" fill="#DFDFDF" style="fill: #DFDFDF;"/>
<path d="M6.90771 19.8675C8.11536 21.0118 7.94084 22.9403 7.70263 23.7615L3.80926 26.6223L-1.9125 23.7615L-4.05859 1.11276L1.58355 -2.62231C4.33847 -2.43687 9.76884 -1.7481 9.45097 -0.476602C9.05362 1.11278 10.8019 2.38436 12.1529 6.27833C13.5039 10.1723 9.53044 13.7484 7.70263 13.9073C5.87482 14.0663 5.95442 14.0662 5.08026 15.4967C4.2061 16.9271 5.39814 18.437 6.90771 19.8675Z" fill="#A3CCFF" style="fill: #A3CCFF;"/>
<path d="M8.49831 -1.6687H20.3391H24.789L25.4248 3.5763L16.5243 10.5696C15.5706 10.3788 12.6833 8.63581 11.3588 7.78815L9.45155 7.31133L7.62402 0.079666L8.49831 -1.6687Z" fill="#CDF09A" style="fill: #CDF09A;"/>
<path d="M21.1335 10.5696L25.4248 6.67558L24.789 18.0396C23.9943 16.8476 22.1507 14.3205 21.1335 13.7483C20.1163 13.1761 20.7096 11.3907 21.1335 10.5696Z" fill="#CDF09A" style="fill: #CDF09A;"/>
<path fill-rule="evenodd" clip-rule="evenodd" d="M13.8342 13.999L26.2205 4.47756L25.3063 3.28833L12.8807 12.84L12.8622 12.8563C9.95466 15.4116 9.13945 18.086 9.23146 19.6876V24.3911H10.7315V19.6411L10.7299 19.6172C10.6634 18.5739 11.2033 16.3195 13.8342 13.999Z" fill="#FFF1B9" style="fill: #FFF1B9;"/>
</g>
<defs>
<clipPath id="clip0_2444_54981">
<rect width="24" height="24" rx="3" fill="white"/>
</clipPath>
</defs>
</svg>
