<svg width="25" height="25" viewBox="0 0 25 25" fill="none" xmlns="http://www.w3.org/2000/svg">
<path fill-rule="evenodd" clip-rule="evenodd" d="M19.7655 9.81725C19.7655 11.1763 19.4314 12.4553 18.8431 13.5724C18.4948 14.3374 16.3978 17.2016 14.6677 19.2949C13.9719 20.1368 13.25 22.142 12.8952 23.1276L12.863 23.2168C12.7815 23.5914 12.4558 23.8714 12.0664 23.8714C11.6497 23.8714 11.3059 23.5509 11.2562 23.1368C10.9949 22.2392 10.3756 20.5095 9.46607 19.3C9.26304 19.0299 8.97727 18.6717 8.64424 18.2542C7.60894 16.9562 6.11681 15.0856 5.23311 13.5127L5.25908 13.512C4.6903 12.4093 4.36816 11.1519 4.36816 9.81725C4.36816 5.4515 7.81497 1.91235 12.0668 1.91235C16.3187 1.91235 19.7655 5.4515 19.7655 9.81725ZM12.0678 12.6356C13.7377 12.6356 15.0914 11.2819 15.0914 9.61196C15.0914 7.94204 13.7377 6.5883 12.0678 6.5883C10.3978 6.5883 9.0441 7.94204 9.0441 9.61196C9.0441 11.2819 10.3978 12.6356 12.0678 12.6356Z" fill="#60A850" style="fill: #60A850;"/>
<mask id="mask0_2440_54464" style="mask-type:alpha" maskUnits="userSpaceOnUse" x="4" y="1" width="16" height="23">
<path fill-rule="evenodd" clip-rule="evenodd" d="M19.7655 9.81725C19.7655 11.1757 19.4317 12.4542 18.8439 13.5708C18.4977 14.3336 16.3991 17.2002 14.6678 19.2949C13.972 20.1368 13.2501 22.142 12.8953 23.1276L12.8641 23.2142C12.7836 23.5902 12.4572 23.8716 12.0668 23.8716C11.6507 23.8716 11.3074 23.552 11.2569 23.1388C10.9959 22.2418 10.3763 20.5104 9.46617 19.3C9.26314 19.03 8.97738 18.6717 8.64435 18.2542C7.60905 16.9563 6.11691 15.0856 5.23321 13.5127L5.2591 13.512C4.6903 12.4093 4.36816 11.1519 4.36816 9.81725C4.36816 5.4515 7.81497 1.91235 12.0668 1.91235C16.3187 1.91235 19.7655 5.4515 19.7655 9.81725ZM12.0668 12.6357C13.7367 12.6357 15.0905 11.2819 15.0905 9.61201C15.0905 7.94208 13.7367 6.58835 12.0668 6.58835C10.3969 6.58835 9.04316 7.94208 9.04316 9.61201C9.04316 11.2819 10.3969 12.6357 12.0668 12.6357Z" fill="#60A850" style="fill: #60A850;"/>
</mask>
<g mask="url(#mask0_2440_54464)">
<rect x="17.0615" y="-0.929199" width="6.07589" height="11.4785" transform="rotate(40.3353 17.0615 -0.929199)" fill="#5085F7" style="fill: #5085F7;"/>
<rect x="9.63086" y="7.82031" width="6.07589" height="11.4785" transform="rotate(40.3353 9.63086 7.82031)" fill="#ECB72B" style="fill: #ECB72B;"/>
<rect x="5.00098" y="3.88745" width="6.07589" height="11.4785" transform="rotate(40.3353 5.00098 3.88745)" fill="#DA2F2A" style="fill: #DA2F2A;"/>
<rect x="12.4297" y="-4.8623" width="6.07589" height="11.4785" transform="rotate(40.3353 12.4297 -4.8623)" fill="#4274EB" style="fill: #4274EB;"/>
</g>
</svg>
