<svg width="25" height="24" viewBox="0 0 25 24" fill="none" xmlns="http://www.w3.org/2000/svg">
<g clip-path="url(#clip0_2448_55026)">
<rect x="0.963867" width="24" height="24" rx="3" fill="#566259" style="fill: #566259;"/>
<path d="M11.3569 24.9642C9.9066 20.7342 2.29267 17.7632 -1.33301 16.8064V0.943997L26.3124 18.317V24.9642H11.3569Z" fill="#7A7A7A" style="fill: #7A7A7A;"/>
<path d="M26.3124 10.1594L12.7161 -0.113335L22.5606 -2.96802L26.3124 2.15251V10.1594Z" fill="#7A7A7A" style="fill: #7A7A7A;"/>
<path d="M26.9167 27.0791L-3.59995 8.49754L-7.67871 0.641846L28.276 21.3384L26.9167 27.0791Z" fill="#C9C8C8" style="fill: #C9C8C8;"/>
<path fill-rule="evenodd" clip-rule="evenodd" d="M-10.9405 1.35989L-11.3658 1.09729L-10.8405 0.246383L-10.4151 0.50898L-10.9405 1.35989ZM-9.23903 2.41028L-10.0897 1.88508L-9.56443 1.03417L-8.71371 1.55937L-9.23903 2.41028ZM-7.5376 3.46066L-8.38832 2.93547L-7.863 2.08456L-7.01229 2.60976L-7.5376 3.46066ZM-5.83618 4.51105L-6.68689 3.98586L-6.16158 3.13495L-5.31086 3.66014L-5.83618 4.51105ZM-4.13475 5.56144L-4.98547 5.03625L-4.46015 4.18534L-3.60944 4.71053L-4.13475 5.56144ZM-2.43333 6.61183L-3.28404 6.08663L-2.75873 5.23572L-1.90801 5.76092L-2.43333 6.61183ZM-0.731903 7.66221L-1.58262 7.13702L-1.0573 6.28611L-0.206588 6.81131L-0.731903 7.66221ZM0.969522 8.7126L0.118809 8.18741L0.644124 7.3365L1.49484 7.86169L0.969522 8.7126ZM2.67095 9.76299L1.82023 9.2378L2.34555 8.38689L3.19626 8.91208L2.67095 9.76299ZM4.37237 10.8134L3.52166 10.2882L4.04698 9.43728L4.89769 9.96247L4.37237 10.8134ZM6.0738 11.8638L5.22309 11.3386L5.7484 10.4877L6.59911 11.0129L6.0738 11.8638ZM7.77523 12.9142L6.92451 12.389L7.44983 11.5381L8.30054 12.0632L7.77523 12.9142ZM9.47665 13.9645L8.62594 13.4394L9.15125 12.5884L10.002 13.1136L9.47665 13.9645ZM11.1781 15.0149L10.3274 14.4897L10.8527 13.6388L11.7034 14.164L11.1781 15.0149ZM12.8795 16.0653L12.0288 15.5401L12.5541 14.6892L13.4048 15.2144L12.8795 16.0653ZM14.5809 17.1157L13.7302 16.5905L14.2555 15.7396L15.1062 16.2648L14.5809 17.1157ZM16.2824 18.1661L15.4316 17.6409L15.957 16.79L16.8077 17.3152L16.2824 18.1661ZM17.9838 19.2165L17.1331 18.6913L17.6584 17.8404L18.5091 18.3656L17.9838 19.2165ZM19.6852 20.2669L18.8345 19.7417L19.3598 18.8908L20.2105 19.416L19.6852 20.2669ZM21.3866 21.3173L20.5359 20.7921L21.0612 19.9412L21.912 20.4664L21.3866 21.3173ZM23.0881 22.3677L22.2374 21.8425L22.7627 20.9916L23.6134 21.5167L23.0881 22.3677ZM24.7895 23.418L23.9388 22.8928L24.4641 22.0419L25.3148 22.5671L24.7895 23.418ZM26.4909 24.4684L25.6402 23.9432L26.1655 23.0923L27.0162 23.6175L26.4909 24.4684ZM28.1923 25.5188L27.3416 24.9936L27.8669 24.1427L28.7177 24.6679L28.1923 25.5188ZM29.4684 26.3066L29.0431 26.044L29.5684 25.1931L29.9937 25.4557L29.4684 26.3066Z" fill="#6D6A73" style="fill: #6D6A73;"/>
<path d="M25.708 25.7195C23.8951 16.051 11.1551 3.76403 5.01172 -1.1709H10.45C17.4597 2.5757 23.5427 11.0657 25.708 14.8424V25.7195Z" fill="#6D6A73" style="fill: #6D6A73;"/>
<path fill-rule="evenodd" clip-rule="evenodd" d="M3.5918 -1.6709H10.5762L10.6866 -1.61186C14.2677 0.302179 17.5874 3.41189 20.2736 6.4961C22.9631 9.58412 25.0441 12.6776 26.1427 14.5938L26.2089 14.7093V25.7195L25.2175 25.8116C24.3368 21.1149 20.7756 15.7112 16.6044 10.8238C12.4481 5.95389 7.75064 1.66986 4.6995 -0.781091L3.5918 -1.6709ZM6.40904 -0.670898C9.46045 1.88736 13.6269 5.79465 17.365 10.1746C20.6338 14.0047 23.6147 18.2412 25.2089 22.2805V14.9763C24.1252 13.1071 22.1115 10.129 19.5195 7.15287C16.8987 4.14368 13.7126 1.1668 10.3249 -0.670898H6.40904Z" fill="#AFA69D" style="fill: #AFA69D;"/>
</g>
<defs>
<clipPath id="clip0_2448_55026">
<rect x="0.963867" width="24" height="24" rx="3" fill="white"/>
</clipPath>
</defs>
</svg>
