<svg width="25" height="25" viewBox="0 0 25 25" fill="none" xmlns="http://www.w3.org/2000/svg">
<path d="M12.0101 23.4417C17.8918 23.4417 22.6599 18.6736 22.6599 12.7919C22.6599 6.91016 17.8918 2.14209 12.0101 2.14209C6.12842 2.14209 1.36035 6.91016 1.36035 12.7919C1.36035 18.6736 6.12842 23.4417 12.0101 23.4417Z" fill="#41A0FF" style="fill: #41A0FF;"/>
<path d="M17.1304 3.448C15.8745 3.48814 14.6613 4.16808 14.4163 4.11401C14.1181 4.04683 12.6697 4.29835 12.1389 4.49742C11.6064 4.6973 11.6564 4.95044 11.5245 4.98402C11.391 5.01761 11.3197 5.13557 11.1149 5.36823C10.9084 5.60007 11.2165 5.88024 11.2165 5.88024C11.2165 5.88024 12.0054 6.05719 12.1381 5.47063C12.2167 5.12165 12.1053 5.76802 12.1381 6.03344C12.1708 6.29969 12.6665 6.36604 12.9319 6.03344C13.0515 5.88434 13.0351 5.51815 13.1113 5.39363C13.2047 5.24126 13.4111 5.3584 13.5209 5.34283C13.5864 5.33464 13.4357 5.44604 13.5209 5.49683C13.6905 5.59678 14.0395 5.42475 13.9559 5.82944C13.9223 5.99164 13.4079 6.02442 13.3415 6.26445C13.2743 6.50448 13.1621 6.64865 13.1621 6.64865L12.0611 6.67315L11.7031 6.16204C11.7031 6.16204 11.3541 6.31279 11.4467 6.62245C11.5114 6.83545 11.3443 7.08366 11.3443 7.08366C11.3443 7.08366 10.7815 7.17378 10.7815 7.33926C10.7815 7.4302 10.5521 7.44166 10.4226 7.49327C10.317 7.53423 10.2457 7.70864 10.1416 7.72257L9.60425 7.80047C9.36996 7.82914 9.47564 7.88239 9.47564 7.97987C9.47564 8.11259 9.91063 8.13308 9.91063 8.13308C9.91063 8.13308 10.1892 8.24121 10.0909 8.44028C9.99091 8.64017 10.1613 8.72209 9.96224 8.72209C9.87541 8.72209 9.67552 8.69505 9.47564 8.69669C9.21758 8.69669 8.97018 8.61469 8.96363 8.72119C8.93905 9.13161 8.93823 9.7207 8.93823 9.7207C8.93823 9.7207 9.28804 9.89274 9.47564 9.84851C9.73615 9.78788 10.1179 9.99186 10.2948 9.5159C10.3088 9.47904 10.3178 9.39958 10.3465 9.3619C10.4693 9.20051 10.6029 8.87447 10.8069 8.77289C10.9322 8.70981 11.1067 8.75075 11.1657 8.74829C11.2984 8.7401 11.5237 8.56808 11.5237 8.56808C11.5237 8.56808 12.1119 8.64836 12.2667 9.2341C12.3126 9.40695 12.2692 9.69122 12.3691 9.7461C12.4297 9.77969 12.7017 9.4905 12.7017 9.4905L13.0089 9.5151L12.8295 9.10549L12.2667 8.46648L12.3691 8.41488C12.3691 8.41488 12.7951 8.44436 12.8295 8.54348C12.8623 8.64343 13.3767 8.89575 13.2907 9.1833C13.1465 9.65926 13.4955 9.77231 13.4955 9.77231C13.4955 9.77231 13.7978 9.84358 13.9297 9.5929C14.046 9.37417 14.0583 9.1833 14.0583 9.1833L14.4425 9.10629C14.4425 9.10629 14.4057 8.3092 14.8267 8.28708C15.247 8.26578 15.2871 8.28708 15.2871 8.28708C15.2871 8.28708 16.2112 8.59265 16.3112 8.82449C16.4103 9.05715 16.4562 9.27833 16.158 9.3111C15.8589 9.34469 15.4149 9.2857 15.4149 9.2857C15.4149 9.2857 14.2402 9.10792 14.3401 9.4397C14.4392 9.77148 14.5449 10.1049 14.5449 10.1049C14.5449 10.1049 14.7997 10.0795 15.0315 10.1303C15.2773 10.1868 15.5943 10.1557 15.5943 10.1557L15.646 10.7193L15.4919 10.7692C15.3248 10.8159 14.8317 10.848 14.6981 10.8979C14.5654 10.9471 13.1187 10.6939 13.0859 10.7439C13.0523 10.7931 12.5829 10.9635 12.3175 10.8979C12.0521 10.8316 11.9849 10.2065 11.9849 10.2065C11.9849 10.2065 11.9366 9.90832 11.7547 9.92471L10.3211 10.0524C10.3211 10.0524 9.91146 10.2352 9.91146 10.3343C9.91146 10.3343 9.79512 10.2516 9.62964 10.3343C9.46334 10.4179 9.20939 10.4064 9.14303 10.5391C9.07667 10.6726 8.81535 10.9209 8.68264 11.1535C8.54992 11.3862 8.16817 11.4042 8.06822 11.8195C7.96828 12.2341 7.89783 12.9279 7.91421 13.2269C7.93059 13.5259 7.9224 14.2673 8.22141 14.4312C8.52043 14.5934 8.91693 14.9973 9.06603 15.1472C9.21513 15.2963 10.0163 15.4184 10.1163 15.352C10.2154 15.2865 10.5734 15.1472 10.7552 15.1472C10.9387 15.1472 11.3312 15.1758 11.4475 15.2749C11.563 15.3748 11.7055 15.5896 11.8055 15.8386C11.9046 16.0876 12.0045 16.5079 12.0873 16.6578C12.17 16.8069 12.4854 17.092 12.3691 17.3746C12.2528 17.6573 12.0537 17.9382 12.0873 18.2708C12.12 18.6026 12.3191 19.0425 12.3945 19.1925C12.4699 19.3416 12.9491 19.8102 12.9319 19.9601C12.9155 20.1092 13.0564 20.0723 13.2391 20.1395C13.4218 20.2058 14.1976 19.9912 14.3147 19.8577C14.4311 19.725 14.6105 19.3055 14.8267 19.0901C15.0422 18.8738 15.4903 18.5199 15.7221 18.2708C15.9548 18.021 16.1924 17.7924 16.2088 17.477C16.2251 17.1608 16.0424 16.4669 16.2088 16.3506C16.3751 16.2343 16.6053 16.0549 16.7724 15.8386C16.9379 15.6232 17.2909 15.6395 17.54 14.9424C17.789 14.2452 17.8717 14.029 17.8218 13.9954C17.7726 13.9618 17.3761 14.1265 17.3098 14.2256C17.2434 14.3255 16.8551 14.3501 16.7724 14.4304C16.6888 14.5107 16.3112 14.4304 16.3112 14.4304C16.3112 14.4304 16.4709 13.8012 16.3882 13.5858C16.3046 13.3703 15.8802 12.5273 15.7484 12.2291C15.6386 11.9834 15.6197 11.6999 15.6713 11.5123C15.6926 11.5426 15.7058 11.5598 15.7221 11.5893C15.7811 11.6958 16.0998 12.0727 16.2342 12.4594C16.5217 13.29 16.8486 13.893 16.8486 13.893C16.8486 13.893 17.2811 13.9094 18.0012 13.3556C18.4903 12.9787 19.0137 12.9599 19.1014 12.7666C19.2677 12.4012 18.5894 12.0751 18.5894 12.0751H17.975L17.5146 11.2821L17.6424 11.2313C17.6424 11.2313 18.1527 11.8195 18.3846 11.8195C18.6172 11.8195 19.2349 11.7663 19.4348 11.9997C19.6339 12.2316 20.2565 12.624 20.3564 13.0238C20.4564 13.4211 20.4056 13.9782 20.5858 14.1748C20.8414 14.4525 21.0732 14.4312 21.0732 14.4312L21.3805 13.7144L22.0973 12.8952L22.6093 12.6388V12.6142C22.6224 12.4831 22.6273 12.3586 22.6338 12.2291C22.5399 10.4181 21.9851 8.66102 21.0219 7.12446C20.0588 5.5879 18.7193 4.32275 17.1304 3.4488V3.448ZM5.48197 4.36961C4.47337 5.1571 3.61479 6.11973 2.94731 7.21146C3.13901 6.84445 3.43393 6.64785 3.43393 6.64785L4.07373 6.18744C4.07373 6.18744 3.81896 7.57438 4.15075 7.77427C4.48253 7.97334 4.8012 7.35893 4.86756 7.15986C4.93391 6.96079 5.62615 6.20138 5.89158 5.80324C6.15782 5.40428 5.93171 4.46137 5.53357 4.39501C5.51309 4.39501 5.49917 4.37615 5.48197 4.37041V4.36961ZM2.94731 7.21146C2.13991 8.50995 1.62472 9.9685 1.4375 11.486C1.44405 11.4778 1.45799 11.4664 1.4629 11.4615C1.99457 10.7972 3.40853 10.1557 3.40853 10.1557C3.40853 10.1557 3.87548 10.1025 3.07593 8.77289C2.67615 8.10932 2.75644 7.57847 2.94731 7.21146ZM9.98764 4.39501C9.82872 4.4114 9.50102 4.49659 9.50102 4.75382V5.23953C9.50102 5.23953 9.40272 5.41493 9.34783 5.47063C9.29213 5.52634 9.34047 5.7803 9.37323 5.88024C9.406 5.98018 9.42484 6.28985 9.42484 6.28985C9.42484 6.28985 9.5854 6.37341 9.62964 6.41765C9.67388 6.46107 10.0524 6.55682 10.2178 6.46835C10.3841 6.37987 10.48 6.14649 10.6029 6.13584C10.7241 6.12437 10.6496 6.12519 10.6274 6.03344C10.6061 5.94497 10.7298 5.62383 10.7298 5.62383L10.3973 5.34193C10.3973 5.34193 10.1957 4.91103 10.2178 4.77832C10.24 4.64561 10.054 4.4114 10.0646 4.39501C10.0671 4.38682 10.0401 4.38682 9.98764 4.39501V4.39501ZM9.11763 5.36823C9.07257 5.38789 8.98574 5.49686 8.93823 5.52143C8.87515 5.5542 8.89481 5.66388 8.86123 5.75154C8.82846 5.84083 8.73342 6.16114 8.73342 6.16114L8.93823 6.23825C8.93823 6.23825 9.26346 6.1768 9.29705 6.11044C9.32326 6.05719 9.22741 5.76636 9.19464 5.65004C9.18645 5.62218 9.19464 5.59923 9.19464 5.59923L9.14303 5.39363C9.13484 5.37725 9.13238 5.36086 9.11763 5.36823V5.36823ZM17.694 8.18388C17.7694 8.18388 17.916 8.2363 17.9496 8.26088C17.9938 8.29447 17.9938 8.68358 17.9496 8.92689C17.9333 9.00822 17.9446 9.0926 17.9817 9.16679C18.0188 9.24099 18.0795 9.30074 18.1544 9.3365C18.2216 9.35862 18.2683 9.89112 18.2568 10.0017C18.2461 10.1123 17.9332 10.1959 17.8472 10.2065C17.7612 10.218 17.4007 10.2147 17.4122 10.0533C17.4236 9.89192 17.3499 9.36763 17.2844 9.15709C17.218 8.94656 17.2352 8.64919 17.3352 8.59349C17.4351 8.5386 17.6424 8.21008 17.6424 8.21008C17.6506 8.19206 17.6686 8.1855 17.694 8.18468V8.18388ZM1.4883 14.482C1.51288 14.6368 1.53417 14.79 1.5653 14.9424C1.84801 16.3072 2.39606 17.603 3.17833 18.7566C3.26025 18.8614 3.32415 18.9926 3.40853 19.0901C3.9058 19.6619 4.42845 20.11 4.89295 20.5745L5.37957 19.8577L5.73837 18.4241L4.86756 17.8866L3.86893 17.554L3.20373 15.941C3.20373 15.941 2.48036 15.3463 1.94951 15.1472C1.77993 15.0833 1.65214 14.8334 1.4883 14.482V14.482ZM17.2328 17.2468C17.1926 17.2468 17.1345 17.2549 17.0788 17.2713C17.0788 17.2713 17.0558 17.7629 16.8232 17.912C16.5913 18.0611 16.439 18.3511 16.439 18.5011C16.439 18.6501 16.3898 18.7861 16.439 18.9352C16.4881 19.0851 16.6028 19.2088 16.7462 19.1916C16.8903 19.1752 17.046 18.864 17.0788 18.7313C17.1123 18.5985 17.236 18.3118 17.3352 18.2192C17.4351 18.1267 17.4548 17.8661 17.4376 17.7325C17.4236 17.6162 17.5113 17.2402 17.2328 17.2459V17.2468Z" fill="#A0DF50" style="fill: #A0DF50;"/>
</svg>
