<svg width="25" height="25" viewBox="0 0 25 25" fill="none" xmlns="http://www.w3.org/2000/svg">
<g clip-path="url(#clip0_2440_54466)">
<path d="M10.3818 3.88905L10.3878 3.88205L10.3938 3.87305L10.3818 3.88905Z" fill="#95CA6E" style="fill: #95CA6E;"/>
<path d="M23.9859 7.61395C23.6479 5.39995 22.4689 3.51895 20.6539 2.30095C17.3509 0.0789452 12.8819 0.767945 10.3879 3.88194C9.34094 5.19094 8.71594 6.84994 8.71594 8.65394C8.71594 9.24694 8.78394 9.82494 8.90194 10.3279C9.08294 11.1289 9.48294 12.0959 9.90894 12.7579L10.1269 13.1009L8.38094 14.8449L8.10394 14.7039C7.86194 14.5799 7.78594 14.5639 7.48394 14.5639C6.83294 14.5619 7.01894 14.4049 3.41494 18.0129C-0.153064 21.5849 0.0429362 21.3539 0.0429362 21.9979C0.0389362 22.5779 0.109936 22.6869 1.22794 23.8009C2.16594 24.7339 2.34794 24.8799 2.70094 24.9689L2.70194 24.9699C2.95694 25.0339 3.37694 24.9879 3.64894 24.8639C3.86094 24.7669 4.28594 24.3589 7.05094 21.6029C10.6369 18.0209 10.4829 18.2049 10.4809 17.5539C10.4809 17.2529 10.4659 17.1779 10.3409 16.9369L10.1999 16.6559L11.9459 14.9119L12.2899 15.1309C13.6279 15.9879 15.3769 16.4249 16.9519 16.2939C18.0589 16.1999 18.8759 15.9739 19.8359 15.4899L19.8759 15.4729C20.5899 15.1269 21.2339 14.6559 21.7809 14.0889L21.7819 14.0879C22.9519 12.9439 23.7509 11.4259 23.9889 9.68694C24.0559 9.19294 24.0559 8.08095 23.9859 7.61395ZM22.1389 11.4399L22.1219 11.4779C21.2449 13.2499 19.5729 14.5599 17.5299 14.9499L17.5309 14.9519C17.0069 15.0469 15.9729 15.0669 15.4639 14.9889L15.4289 14.9849C13.8979 14.7519 12.5429 13.9769 11.5629 12.8559C10.5819 11.7349 9.98694 10.2659 9.98694 8.65895C9.98694 7.26695 10.4329 5.97695 11.1789 4.94595C11.4879 4.50995 12.2149 3.78194 12.6599 3.46494C13.3739 2.95994 14.1929 2.59295 15.1229 2.39595C15.7279 2.26695 16.9579 2.25495 17.5389 2.37095C18.3789 2.53895 19.2699 2.90294 19.9089 3.33294C22.5939 5.13494 23.5309 8.54094 22.1389 11.4399Z" fill="#404A5D" style="fill: #404A5D;"/>
<path d="M16.4453 2.29004C15.9563 2.29004 15.4483 2.32604 15.1223 2.39504C14.1923 2.59204 13.3733 2.96004 12.6593 3.46404C12.2143 3.78104 11.4873 4.50904 11.1783 4.94504C10.4323 5.97604 9.98633 7.26504 9.98633 8.65804C9.98633 10.266 10.5813 11.734 11.5623 12.855C11.6543 12.96 11.7493 13.062 11.8473 13.16L20.8823 4.12504C20.5893 3.83504 20.2653 3.56904 19.9093 3.33004C19.2713 2.90004 18.3793 2.53604 17.5393 2.36804C17.2703 2.31704 16.8643 2.29004 16.4453 2.29004Z" fill="#DEDEDE" style="fill: #DEDEDE;"/>
<path d="M16.392 1C14.131 1 11.898 1.996 10.388 3.882C9.34096 5.191 8.71596 6.85 8.71596 8.654C8.71596 9.247 8.78396 9.825 8.90196 10.328C9.08296 11.129 9.48296 12.096 9.90896 12.758L10.127 13.101L8.38096 14.845L8.10396 14.704C7.86196 14.58 7.78596 14.564 7.48396 14.564C7.42896 14.564 7.37996 14.563 7.33396 14.563C6.83696 14.563 6.71396 14.71 3.41396 18.014C-0.15404 21.586 0.0419597 21.355 0.0419597 21.999C0.0379597 22.578 0.10896 22.688 1.21696 23.792L11.847 13.162C11.749 13.063 11.654 12.962 11.562 12.857C10.581 11.736 9.98596 10.267 9.98596 8.66C9.98596 7.268 10.432 5.978 11.178 4.947C11.487 4.511 12.214 3.783 12.659 3.466C13.373 2.961 14.192 2.594 15.122 2.397C15.448 2.328 15.955 2.292 16.445 2.292C16.864 2.292 17.27 2.318 17.538 2.372C18.378 2.54 19.269 2.904 19.908 3.334C20.263 3.572 20.588 3.839 20.881 4.129L21.784 3.226C21.441 2.887 21.064 2.578 20.654 2.303C19.351 1.424 17.866 1 16.392 1Z" fill="#384051" style="fill: #384051;"/>
<path d="M2.75145 6.45912C2.76545 6.47812 3.74545 6.77412 4.93345 7.11312H4.93945L7.12445 7.74212L5.87645 3.36612L1.51945 2.12012L2.75145 6.45912ZM1.52145 12.2891C1.60645 12.7141 2.73745 16.5401 2.78645 16.5791L2.78745 16.5801L2.88145 16.6351L2.90645 16.6111C3.36645 16.1731 3.81945 15.7261 4.27345 15.2671C5.02845 14.5121 5.71445 13.8471 5.79845 13.7871C5.93545 13.6931 5.95145 13.6621 5.92345 13.5641C5.89345 13.4531 5.82245 13.4281 3.69845 12.8241C1.66745 12.2451 1.50545 12.2051 1.52145 12.2891ZM3.60945 12.2011L3.60745 12.2001C4.79645 12.5411 5.80745 12.8231 5.85745 12.8261C5.93745 12.8291 6.00445 12.6271 6.58045 10.6061C6.93045 9.38512 7.20945 8.37712 7.20045 8.36712L2.72545 7.11512L1.43945 11.5751C1.44145 11.5781 2.41945 11.8591 3.60945 12.2011Z" fill="#95CA6E" style="fill: #95CA6E;"/>
<path d="M1.51945 2.12012L2.75145 6.45912C2.76245 6.47412 3.39745 6.66812 4.26245 6.91912V2.90512L1.51945 2.12012ZM1.56445 12.2561C1.52345 12.2561 1.51745 12.2691 1.52145 12.2891C1.60645 12.7141 2.73745 16.5401 2.78645 16.5791L2.78745 16.5801L2.88145 16.6351L2.90645 16.6111C3.36345 16.1761 3.81345 15.7331 4.26345 15.2771V12.9861C4.09345 12.9371 3.90545 12.8841 3.69745 12.8251C2.15745 12.3851 1.69245 12.2561 1.56445 12.2561ZM2.72545 7.11512L1.43945 11.5751C1.44245 11.5781 2.41945 11.8581 3.60945 12.2011L3.60745 12.2001C3.83445 12.2651 4.05445 12.3281 4.26245 12.3871V7.54512L2.72545 7.11512Z" fill="#82B060" style="fill: #82B060;"/>
<path d="M9.9443 2.32204C9.9083 2.33604 9.1173 2.56504 8.1813 2.83004L6.4873 3.31404L6.5653 3.59404L7.0853 5.40004V5.40204C7.4763 6.76704 7.5913 7.08504 7.5913 6.79104L7.5953 6.76604C7.6273 6.57304 7.6743 6.38404 7.7233 6.23104L7.7373 6.17004C8.1093 4.84204 8.78731 3.64304 9.68431 2.65804C9.86131 2.46304 9.9783 2.30704 9.9443 2.32204Z" fill="#95CA6E" style="fill: #95CA6E;"/>
<path d="M8.0503 2.86792L6.4873 3.31392L6.5653 3.59392L7.0853 5.39992V5.40192C7.3893 6.46292 7.5263 6.89192 7.5723 6.89192C7.5853 6.89192 7.5913 6.85692 7.5913 6.79092L7.5953 6.76592C7.6273 6.57292 7.6743 6.38392 7.7233 6.23092L7.7373 6.16992C7.8253 5.85692 7.9303 5.54992 8.0503 5.25292V2.86792V2.86792Z" fill="#82B060" style="fill: #82B060;"/>
<path d="M7.43727 9.72998L7.01627 11.205C6.78327 12.017 6.58427 12.709 6.57227 12.739L6.57327 12.738L6.63127 12.772C6.67627 12.759 7.02827 12.657 7.41827 12.549C7.80627 12.438 8.13027 12.343 8.13827 12.337C8.14427 12.33 8.06327 12.088 7.95727 11.791C7.75827 11.238 7.58527 10.606 7.49227 10.051L7.43727 9.72998Z" fill="#95CA6E" style="fill: #95CA6E;"/>
<path d="M7.42827 9.76001L7.01627 11.205C6.78327 12.017 6.58427 12.709 6.57227 12.739L6.57327 12.738L6.63127 12.772C6.67627 12.759 7.02827 12.657 7.41827 12.549C7.42127 12.548 7.42527 12.547 7.42827 12.546V9.76001Z" fill="#82B060" style="fill: #82B060;"/>
<path d="M9.4768 22.078C10.2648 21.855 10.9228 21.658 10.9428 21.643L12.1908 17.283C12.1808 17.273 12.0918 17.289 11.9878 17.317L11.8058 17.368L11.7948 17.676C11.7888 17.846 11.7628 18.079 11.7368 18.197C11.6698 18.48 11.4348 18.994 11.2638 19.212C11.1888 19.313 10.4348 20.088 9.5878 20.94L9.58881 20.942L8.0498 22.484L9.4768 22.078Z" fill="#95CA6E" style="fill: #95CA6E;"/>
<path d="M10.7708 19.738C10.4608 20.057 10.0378 20.488 9.58878 20.94L9.58978 20.942L8.05078 22.484L9.47778 22.079C10.0328 21.922 10.5228 21.778 10.7708 21.701V19.738V19.738Z" fill="#82B060" style="fill: #82B060;"/>
<path d="M17.2666 18.463C17.0936 18.379 12.8696 17.2 12.8466 17.226L11.5876 21.675L11.0146 21.517C11.7436 21.75 12.4766 21.972 13.7866 22.325L13.7856 22.324C14.9776 22.669 15.9786 22.952 16.0066 22.955L16.1036 22.8L16.7986 19.986C17.0146 19.238 17.2326 18.491 16.7396 20.564C17.2626 18.751 17.3276 18.488 17.2666 18.463Z" fill="#95CA6E" style="fill: #95CA6E;"/>
<path d="M12.8486 17.2261C12.8476 17.2261 12.8466 17.2261 12.8466 17.2261L11.5876 21.6761L11.0146 21.5181C11.7436 21.7511 12.4766 21.9731 13.7866 22.3261L13.7856 22.3251C13.9046 22.3601 14.0226 22.3931 14.1366 22.4261V17.5641C13.4386 17.3721 12.8886 17.2261 12.8486 17.2261Z" fill="#82B060" style="fill: #82B060;"/>
<path d="M22.1191 15.661C22.1061 15.624 22.0131 15.671 21.8531 15.796C20.7201 16.652 19.2821 17.281 17.9411 17.509L17.7851 17.536L17.8291 17.692L17.8311 17.701L17.8881 17.88L17.8871 17.882L22.3851 16.62C22.3921 16.611 22.1731 15.826 22.1191 15.661ZM22.2971 17.293L17.9511 18.504L16.7031 22.85V22.851L16.8021 22.869C16.9351 22.843 21.0461 21.671 21.0661 21.651L22.2971 17.293Z" fill="#95CA6E" style="fill: #95CA6E;"/>
<path d="M19.6381 17.0281C19.0751 17.2491 18.4991 17.4141 17.9411 17.5091L17.7851 17.5361L17.8291 17.6921L17.8311 17.7011L17.8881 17.8801L17.8871 17.8821L19.6391 17.3911V17.0281H19.6381ZM19.6381 18.0341L17.9501 18.5041L16.7021 22.8501V22.8511L16.8011 22.8691C16.8821 22.8531 18.4301 22.4141 19.6391 22.0681V18.0341H19.6381Z" fill="#82B060" style="fill: #82B060;"/>
</g>
<defs>
<clipPath id="clip0_2440_54466">
<rect width="24" height="24" fill="white" transform="translate(0.0664062 0.891846)"/>
</clipPath>
</defs>
</svg>
