<svg width="25" height="25" viewBox="0 0 25 25" fill="none" xmlns="http://www.w3.org/2000/svg">
<g clip-path="url(#clip0_2440_54583)">
<path fill-rule="evenodd" clip-rule="evenodd" d="M11.0622 9.84396C11.1743 10.6004 11.2583 11.3569 11.3704 12.1134L11.4264 12.3096L11.2303 12.3376C8.54056 12.5617 6.10298 13.1501 3.63739 14.2988L3.41324 14.4109V14.1307C3.38522 13.4023 3.38522 12.6458 3.46928 11.9173C3.58135 11.1608 3.74946 10.4323 3.9736 9.70387L4.02964 9.5918H4.16973C5.29046 9.67585 6.38316 9.75991 7.50389 9.75991C8.62461 9.78792 9.77336 9.75991 10.8941 9.67585H11.0342L11.0622 9.84396Z" fill="#009846" style="fill: #009846;"/>
<path fill-rule="evenodd" clip-rule="evenodd" d="M20.365 12.5056C17.7313 12.2254 15.0975 12.1133 12.4358 12.2534L12.2677 12.2814V12.0853C12.2117 11.3288 12.1556 10.5443 12.1276 9.75978L12.0996 9.59167L12.2677 9.56366C14.3971 9.31149 16.2743 8.80717 18.2356 7.91059L18.3196 7.88257L18.4037 7.9386C19.4684 8.66708 20.449 10.9646 20.5331 12.3094L20.5611 12.5056H20.365Z" fill="#64BDEB" style="fill: #64BDEB;"/>
<path fill-rule="evenodd" clip-rule="evenodd" d="M5.31864 18.8937C4.64621 18.0532 4.11386 17.2967 3.83368 16.204L3.80566 16.0639L3.91774 16.0078C6.29928 14.4108 8.45667 13.206 11.3145 12.8698L11.4826 12.8418L11.5106 13.0379C11.6227 14.4108 11.7068 15.7837 11.7628 17.1566V17.3247L11.6227 17.3527C10.558 17.4648 9.54938 17.6609 8.51271 17.9691C7.50406 18.2493 6.4954 18.5855 5.51477 18.9497L5.4027 18.9778L5.31864 18.8937Z" fill="#EA5251" style="fill: #EA5251;"/>
<path fill-rule="evenodd" clip-rule="evenodd" d="M12.155 17.0446C12.211 15.6437 12.211 14.2708 12.239 12.8699V12.7298L12.4071 12.7018C13.752 12.5617 15.1249 12.5337 16.4978 12.5337C17.8146 12.5617 19.1315 12.5897 20.4483 12.5897H20.6164V12.7578C20.6445 14.9993 20.7005 15.8678 19.2436 17.605L19.1595 17.661H19.0754C17.9547 17.4369 16.806 17.2127 15.6572 17.1567C14.5645 17.0726 13.4438 17.1287 12.3231 17.2407H12.127L12.155 17.0446Z" fill="#FFD30A" style="fill: #FFD30A;"/>
<path fill-rule="evenodd" clip-rule="evenodd" d="M12.2115 17.0446C12.2676 15.6717 12.2676 14.2708 12.2956 12.8979C14.7051 12.6177 18.1234 12.7858 20.5329 12.7578C20.8411 14.7471 20.1407 16.232 19.048 17.4648C16.2742 16.9325 15.0133 16.8204 12.2115 17.0446ZM5.43114 18.7537C4.75871 17.9412 4.22637 17.2127 3.9742 16.148C6.35574 14.579 8.51314 13.4022 11.371 13.038C11.4831 14.4109 11.5671 15.7838 11.6232 17.1566C9.32566 17.4088 7.61656 18.0252 5.43114 18.7537ZM20.4769 12.2815C17.7591 12.0293 15.0133 11.9173 12.3236 12.0854C12.2676 11.3009 12.2115 10.5164 12.1835 9.73184C14.425 9.47968 16.3022 8.97536 18.2354 8.07878C19.3562 9.05941 20.3648 10.9366 20.4769 12.2815ZM3.52591 14.1307C3.46988 12.3655 3.58195 11.469 4.11429 9.75986C6.46782 9.98401 8.54116 10.012 10.9227 9.87193C11.0348 10.6284 11.1188 11.3849 11.2589 12.1414C8.51314 12.3936 6.07556 12.9819 3.52591 14.1307ZM11.7352 22.4521C9.21359 21.9758 6.49583 21.2473 4.56258 19.5102L3.46988 19.9865C3.32979 20.0425 3.27375 19.8744 3.41384 19.7904L4.36646 19.286C3.80609 18.5015 3.3578 17.9131 2.90951 17.0166C1.76077 17.9692 0.696082 17.717 0.752118 16.9045C0.780136 16.4562 1.3405 15.8678 2.15302 15.0273C1.70473 12.8979 1.62068 11.7491 2.06897 9.56374C1.78879 9.53572 1.53663 9.47968 1.28446 9.45166C1.17239 9.45166 1.17239 9.28355 1.28446 9.28355C1.59266 9.28355 1.87284 9.28355 2.18104 9.22752C3.10564 7.21021 4.92682 5.72525 6.88809 5.44507C7.75665 5.30498 8.84936 5.41705 8.93341 6.5658C8.98945 7.9667 5.93547 7.51841 4.45051 9.1995C6.55187 9.11545 8.59719 9.03139 10.6986 8.80725C10.5024 7.40634 10.0261 6.45372 9.49377 5.44507C8.82134 4.21227 6.29971 2.61524 7.64458 1.60659C8.84936 0.681991 10.5865 3.28768 11.0628 4.52047C11.5951 5.86534 11.8473 7.15418 12.0714 8.61112C13.3603 8.47103 15.994 7.9667 17.2268 7.07012C15.6578 5.83733 13.5564 5.08084 11.7072 4.18426C11.6512 4.15624 11.6792 3.98813 11.7632 4.01615C13.8086 4.63255 16.106 5.36102 18.1514 6.50976C19.4402 5.58516 20.3088 4.74462 20.8131 5.47309C21.1773 6.03345 20.4208 6.67787 19.3842 7.46238C21.0653 9.28355 21.4855 10.2362 21.9899 12.4496C22.3261 12.5056 22.8584 12.6457 23.1946 12.7018C23.3067 12.7018 23.2787 12.8699 23.1946 12.8699C22.8584 12.9259 22.3821 12.9539 22.0459 12.9819C22.242 15.0273 22.0739 16.4002 21.3174 18.1933C22.4662 18.6416 22.8864 19.258 22.5502 19.9304C22.27 20.4908 21.8498 20.743 20.4208 19.9865C19.3281 21.3594 17.8992 22.1999 16.1621 22.2559C14.8733 22.284 14.2569 21.3033 14.7051 20.5749C15.1815 19.7904 17.0587 19.7904 17.9552 18.8938C15.6017 18.2213 14.6211 18.1653 12.1835 18.2213C12.1275 19.4822 12.0995 20.743 12.0434 22.0038C12.2956 22.0878 12.968 22.312 13.3323 22.4521C13.5284 22.5361 13.4723 22.7603 13.2762 22.7323C12.7999 22.7042 12.3796 22.5922 12.0154 22.5081C11.9874 23.0405 11.9874 23.5728 11.9874 24.0771C11.9594 24.1892 11.8193 24.2172 11.7913 24.0771C11.7632 23.5448 11.7632 22.9844 11.7352 22.4521ZM11.7072 21.8917C11.6792 20.6309 11.6512 19.4822 11.6232 18.2213C10.5585 18.1373 6.4398 18.7817 5.79538 19.1459C7.33638 20.7149 9.54981 21.2753 11.7072 21.8917Z" fill="#2B2A29" style="fill: #2B2A29;"/>
</g>
<defs>
<clipPath id="clip0_2440_54583">
<rect width="24" height="24" fill="white" transform="translate(0.0664062 0.891846)"/>
</clipPath>
</defs>
</svg>
