<svg width="25" height="25" viewBox="0 0 25 25" fill="none" xmlns="http://www.w3.org/2000/svg">
<circle cx="11.9697" cy="12.792" r="10.5" fill="white" style="fill: white;"/>
<path fill-rule="evenodd" clip-rule="evenodd" d="M11.9697 9.02189L12.0598 8.99716C7.57821 10.3754 4.03237 12.7366 3.95941 14.4708C3.88134 16.3271 7.81163 16.7624 12.7357 15.4439C17.6598 14.1254 21.7161 11.5505 21.7938 9.69438C21.8341 8.73263 20.7969 8.15266 19.1039 8C21.1734 8.09159 22.4697 8.68934 22.4697 9.75642C22.4697 11.7903 17.7678 14.7596 11.9697 16.3884C6.17162 18.0172 1.46973 17.6873 1.46973 15.6535C1.46973 13.6197 6.17162 10.6503 11.9697 9.02207" fill="#6D6E71" style="fill: #6D6E71;"/>
<path fill-rule="evenodd" clip-rule="evenodd" d="M3.74805 19.7156L18.304 5.86816L16.9846 16.7537L14.5778 14.0228L3.74805 19.7156Z" fill="#ED1941" style="fill: #ED1941;"/>
</svg>
