<svg width="25" height="25" viewBox="0 0 25 25" fill="none" xmlns="http://www.w3.org/2000/svg">
<g clip-path="url(#clip0_2440_54530)">
<path d="M11.7979 1.16138C10.8247 1.16138 9.86095 1.35307 8.96178 1.72552C8.06261 2.09797 7.24561 2.64388 6.55741 3.33207C5.86922 4.02026 5.32331 4.83727 4.95086 5.73644C4.57842 6.63561 4.38672 7.59933 4.38672 8.57259L11.7979 8.57259V1.16138Z" fill="#006FB7" style="fill: #006FB7;"/>
<path d="M12.2011 1.16138C13.1743 1.16138 14.1381 1.35307 15.0372 1.72552C15.9364 2.09797 16.7534 2.64388 17.4416 3.33207C18.1298 4.02026 18.6757 4.83727 19.0482 5.73644C19.4206 6.63561 19.6123 7.59933 19.6123 8.57259L12.2011 8.57259V1.16138Z" fill="#DBE0E4" style="fill: #DBE0E4;"/>
<path d="M12.2011 16.4854C13.1743 16.4854 14.1381 16.2937 15.0372 15.9212C15.9364 15.5488 16.7534 15.0029 17.4416 14.3147C18.1298 13.6265 18.6757 12.8095 19.0482 11.9103C19.4206 11.0111 19.6123 10.0474 19.6123 9.07414L12.2011 9.07414V16.4854Z" fill="#7BBE4D" style="fill: #7BBE4D;"/>
<path d="M4.38664 24.4229C5.3599 24.4229 6.32362 24.2312 7.22279 23.8587C8.12196 23.4863 8.93896 22.9404 9.62716 22.2522C10.3154 21.564 10.8613 20.747 11.2337 19.8478C11.6062 18.9486 11.7979 17.9849 11.7979 17.0116L4.38664 17.0116V24.4229Z" fill="#DBE0E4" style="fill: #DBE0E4;"/>
<rect x="4.38672" y="9.10327" width="7.43588" height="7.43588" fill="#DBE0E4" style="fill: #DBE0E4;"/>
</g>
<defs>
<clipPath id="clip0_2440_54530">
<rect width="24" height="24" fill="white" transform="translate(0.0664062 0.891846)"/>
</clipPath>
</defs>
</svg>
