<svg width="25" height="25" viewBox="0 0 25 25" fill="none" xmlns="http://www.w3.org/2000/svg">
<g clip-path="url(#clip0_2440_54513)">
<path d="M12.0664 1.64185C7.09571 1.64185 3.06641 5.67115 3.06641 10.6418C3.06641 13.1263 4.07306 15.3758 5.70116 17.0044C7.32971 18.6338 11.1664 20.9918 11.3914 23.4668C11.4251 23.8379 11.6938 24.1418 12.0664 24.1418C12.439 24.1418 12.7077 23.8379 12.7414 23.4668C12.9664 20.9918 16.8031 18.6338 18.4317 17.0044C20.0598 15.3758 21.0664 13.1263 21.0664 10.6418C21.0664 5.67115 17.0371 1.64185 12.0664 1.64185Z" fill="#FF4433" style="fill: #FF4433;"/>
<path d="M12.066 13.7922C13.8057 13.7922 15.216 12.3819 15.216 10.6422C15.216 8.90249 13.8057 7.49219 12.066 7.49219C10.3263 7.49219 8.91602 8.90249 8.91602 10.6422C8.91602 12.3819 10.3263 13.7922 12.066 13.7922Z" fill="white" style="fill: white;"/>
</g>
<defs>
<clipPath id="clip0_2440_54513">
<rect width="24" height="24" fill="white" transform="translate(0.0664062 0.891846)"/>
</clipPath>
</defs>
</svg>
