<svg width="24px" height="24px" viewBox="0 0 24 24" fill="none" xmlns="http://www.w3.org/2000/svg">
 <defs>
   <clipPath id="id0">
    <path d="M3 0l18 0c2,0 3,1 3,3l0 18c0,2 -1,3 -3,3l-18 0c-2,0 -3,-1 -3,-3l0 -18c0,-2 1,-3 3,-3z"/>
   </clipPath>
 </defs>
 <g id="Layer_x0020_1">
  <g clip-path="url(#id0)">
   <g>
    <polygon fill="#FAF7F0" style="fill: #FAF7F0;" fill-rule="nonzero" points="24,24 0,24 0,21 0,0 24,0 "/>
    <polygon fill="#D4F2BB" style="fill: #D4F2BB;" fill-rule="nonzero" points="3,13 5,13 8,15 10,17 4,20 "/>
    <polygon fill="#D4F2BB" style="fill: #D4F2BB;" fill-rule="nonzero" points="14,5 14,0 24,0 24,12 "/>
    <path fill="#B8DFF5" style="fill: #B8DFF5;" fill-rule="nonzero" d="M14 24l0 -1c-1,-1 -1,-2 -1,-4 0,-1 -1,-2 -2,-3l-4 -3c-2,-1 -2,-3 -2,-5l0 -8 1 0 0 8c0,1 1,3 2,4l4 2c1,1 2,3 2,5 0,1 1,2 1,3l2 2 -3 0z"/>
    <polygon fill="#FFD07F" style="fill: #FFD07F;" fill-rule="nonzero" points="20,24 20,18 9,8 9,0 10,0 10,7 21,17 21,24 "/>
    <polygon fill="#FFD07F" style="fill: #FFD07F;" fill-rule="nonzero" points="3,24 3,20 11,16 15,12 15,13 12,17 4,20 4,24 "/>
    <polygon fill="#D4F2BB" style="fill: #D4F2BB;" fill-rule="nonzero" points="15,0 15,3 18,3 17,0 "/>
    <polygon fill="#FFD07F" style="fill: #FFD07F;" fill-rule="nonzero" points="3,20 2,10 0,10 0,9 3,9 4,20 "/>
    <polygon fill="#EDE8DF" style="fill: #EDE8DF;" fill-rule="nonzero" points="3,0 2,5 0,7 0,0 "/>
    <polygon fill="#FFD07F" style="fill: #FFD07F;" fill-rule="nonzero" points="2,10 2,9 10,7 14,4 13,0 14,0 15,5 10,8 "/>
    <polygon fill="#FFD07F" style="fill: #FFD07F;" fill-rule="nonzero" points="24,13 22,12 14,5 14,4 23,11 24,12 "/>
    <polygon fill="#FFD07F" style="fill: #FFD07F;" fill-rule="nonzero" points="21,22 24,22 24,20 21,20 "/>
    <polygon fill="#EBEBEB" style="fill: #EBEBEB;" fill-rule="nonzero" points="16,16 19,19 19,22 18,22 15,17 "/>
    <polygon fill="#9CADB7" style="fill: #9CADB7;" fill-rule="nonzero" points="13,7 14,6 18,9 17,11 "/>
    <polygon fill="#EDE8DF" style="fill: #EDE8DF;" fill-rule="nonzero" points="5,21 5,23 11,22 11,18 "/>
    <path fill="#000072" style="fill: #000072;" fill-rule="nonzero" d="M0 22c0,0 0,0 0,0 0,-1 0,-1 0,-1 0,0 0,0 0,1 0,0 0,0 0,0z"/>
    <polygon fill="#D4F2BB" style="fill: #D4F2BB;" points="11,8 14,5 22,12 24,13 24,20 21,20 21,17 "/>
    <polygon fill="#EFEAE0" style="fill: #EFEAE0;" points="0,24 3,24 3,20 2,10 0,10 "/>
    <path fill="#EBEBEB" style="fill: #EBEBEB;" d="M10 0c0,0 0,6 0,6l4 -2 -1 -4 -3 0z"/>
   </g>
  </g>
  <path fill="none" style="fill: none;" d="M3 0l18 0c2,0 3,1 3,3l0 18c0,2 -1,3 -3,3l-18 0c-2,0 -3,-1 -3,-3l0 -18c0,-2 1,-3 3,-3z"/>
 </g>
</svg>
