<svg  width="24px" height="24px" viewBox="0 0 24 24" fill="none" xmlns="http://www.w3.org/2000/svg">
 <defs>
   <clipPath id="id0">
    <path d="M3 0l18 0c2,0 3,1 3,3l0 18c0,2 -1,3 -3,3l-18 0c-2,0 -3,-1 -3,-3l0 -18c0,-2 1,-3 3,-3z"/>
   </clipPath>
 </defs>
 <g id="Layer_x0020_1">
  <g clip-path="url(#id0)">
   <g>
    <polygon fill="#5C7341" style="fill: #5C7341;" fill-rule="nonzero" points="24,24 0,24 0,21 0,0 24,0 "/>
    <polygon fill="#1D4D19" style="fill: #1D4D19;" fill-rule="nonzero" points="3,13 5,13 8,15 10,17 4,20 "/>
    <polygon fill="#1D4D19" style="fill: #1D4D19;" fill-rule="nonzero" points="14,4 14,0 24,0 24,12 "/>
    <path fill="#83B8D6" style="fill: #83B8D6;" fill-rule="nonzero" d="M14 24l0 -1c-1,-1 -1,-2 -1,-4 0,-1 -1,-3 -2,-3l-4 -3c-2,-1 -2,-3 -2,-5l0 -8 1 0 0 8c0,1 1,3 2,3l4 3c1,1 2,3 2,5 0,1 1,2 1,3l2 2 -3 0z"/>
    <polygon fill="#505F3A" style="fill: #505F3A;" fill-rule="nonzero" points="15,0 15,3 18,3 17,0 "/>
    <polygon fill="#77AD39" style="fill: #77AD39;" fill-rule="nonzero" points="3,0 2,5 0,7 0,0 "/>
    <polygon fill="#77AD39" style="fill: #77AD39;" fill-rule="nonzero" points="16,16 19,18 19,22 18,22 15,17 "/>
    <polygon fill="#9CADB7" style="fill: #9CADB7;" fill-rule="nonzero" points="13,7 14,6 18,9 17,11 "/>
    <polygon fill="#77AD39" style="fill: #77AD39;" fill-rule="nonzero" points="5,21 5,23 11,22 11,18 "/>
    <path fill="#000072" style="fill: #000072;" fill-rule="nonzero" d="M0 21c0,0 0,0 0,0 0,0 0,0 0,0 0,0 0,0 0,0 0,0 0,0 0,0z"/>
    <polygon fill="#1D4D19" style="fill: #1D4D19;" points="11,7 14,5 22,12 24,13 24,20 21,20 21,17 "/>
    <polygon fill="#77AD39" style="fill: #77AD39;" points="0,24 3,24 3,20 2,10 0,10 "/>
    <path fill="#77AD39" style="fill: #77AD39;" d="M10 0c0,0 0,6 0,6l4 -2 -1 -4 -3 0z"/>
   </g>
  </g>
  <path fill="none" style="fill: none;" d="M3 0l18 0c2,0 3,1 3,3l0 18c0,2 -1,3 -3,3l-18 0c-2,0 -3,-1 -3,-3l0 -18c0,-2 1,-3 3,-3z"/>
 </g>
</svg>
